<?xml version="1.0" encoding="UTF-8" standalone="no"?><svg xmlns="http://www.w3.org/2000/svg" xmlns:xlink="http://www.w3.org/1999/xlink" contentScriptType="application/ecmascript" contentStyleType="text/css" height="981px" preserveAspectRatio="none" style="width:2077px;height:981px;background:#FFFFFF;" version="1.1" viewBox="0 0 2077 981" width="2077px" zoomAndPan="magnify"><defs><filter height="300%" id="fa54g3y93so0u" width="300%" x="-1" y="-1"><feGaussianBlur result="blurOut" stdDeviation="2.0"/><feColorMatrix in="blurOut" result="blurOut2" type="matrix" values="0 0 0 0 0 0 0 0 0 0 0 0 0 0 0 0 0 0 .4 0"/><feOffset dx="4.0" dy="4.0" in="blurOut2" result="blurOut3"/><feBlend in="SourceGraphic" in2="blurOut3" mode="normal"/></filter></defs><g><!--MD5=[3fd616f346a44cd59a91eb10b19e157c]
class User--><rect codeLine="3" fill="#FEFECE" filter="url(#fa54g3y93so0u)" height="278.4844" id="User" style="stroke:#A80036;stroke-width:1.5;" width="253" x="574" y="7"/><ellipse cx="681.75" cy="23" fill="#ADD1B2" rx="11" ry="11" style="stroke:#A80036;stroke-width:1.0;"/><path d="M680.5469,23.875 L682,23.875 L682,23.9844 C682,24.3906 682.0313,24.5469 682.1094,24.7031 C682.2656,24.9531 682.5469,25.1094 682.8438,25.1094 C683.0938,25.1094 683.3594,24.9688 683.5156,24.75 C683.6406,24.5938 683.6719,24.4375 683.6719,23.9844 L683.6719,22.0625 C683.6719,21.9063 683.6719,21.8594 683.6563,21.7031 C683.5938,21.2344 683.2813,20.9219 682.8281,20.9219 C682.5781,20.9219 682.3125,21.0625 682.1406,21.2813 C682.0313,21.4531 682,21.6094 682,22.0625 L682,22.1875 L680.5469,22.1875 L680.5469,19.7813 L684.5313,19.7813 L684.5313,20.6406 C684.5313,21.0469 684.5625,21.2188 684.6406,21.375 C684.8125,21.625 685.0938,21.7813 685.375,21.7813 C685.6406,21.7813 685.9063,21.6406 686.0781,21.4219 C686.1875,21.25 686.2188,21.1094 686.2188,20.6406 L686.2188,18.0938 L678.5938,18.0938 C678.1563,18.0938 678.0313,18.1094 677.875,18.2031 C677.625,18.3594 677.4688,18.6563 677.4688,18.9375 C677.4688,19.2188 677.6094,19.4688 677.8281,19.6406 C677.9844,19.75 678.1719,19.7813 678.5938,19.7813 L678.8438,19.7813 L678.8438,26.2969 L678.5938,26.2969 C678.1875,26.2969 678.0313,26.3125 677.875,26.4219 C677.625,26.5938 677.4688,26.8594 677.4688,27.1563 C677.4688,27.4219 677.6094,27.6719 677.8281,27.8281 C677.9688,27.9531 678.2031,28 678.5938,28 L686.5938,28 L686.5938,25.4219 C686.5938,24.9844 686.5625,24.8438 686.4844,24.6875 C686.3125,24.4375 686.0313,24.2813 685.75,24.2813 C685.4844,24.2813 685.2188,24.3906 685.0469,24.6406 C684.9375,24.7969 684.9063,24.9375 684.9063,25.4219 L684.9063,26.2969 L680.5469,26.2969 L680.5469,23.875 Z " fill="#000000"/><text fill="#000000" font-family="sans-serif" font-size="12" lengthAdjust="spacing" textLength="29" x="702.25" y="27.1543">User</text><line style="stroke:#A80036;stroke-width:1.5;" x1="575" x2="826" y1="39" y2="39"/><ellipse cx="585" cy="50" fill="#000000" rx="3" ry="3" style="stroke:#000000;stroke-width:1.0;"/><text fill="#000000" font-family="sans-serif" font-size="11" lengthAdjust="spacing" textLength="31" x="594" y="53.2104">id: Int</text><ellipse cx="585" cy="62.8047" fill="#000000" rx="3" ry="3" style="stroke:#000000;stroke-width:1.0;"/><text fill="#000000" font-family="sans-serif" font-size="11" lengthAdjust="spacing" textLength="72" x="594" y="66.0151">email: String</text><ellipse cx="585" cy="75.6094" fill="#000000" rx="3" ry="3" style="stroke:#000000;stroke-width:1.0;"/><text fill="#000000" font-family="sans-serif" font-size="11" lengthAdjust="spacing" textLength="93" x="594" y="78.8198">password: String</text><ellipse cx="585" cy="88.4141" fill="#000000" rx="3" ry="3" style="stroke:#000000;stroke-width:1.0;"/><text fill="#000000" font-family="sans-serif" font-size="11" lengthAdjust="spacing" textLength="120" x="594" y="91.6245">createdAt: DateTime</text><ellipse cx="585" cy="101.2188" fill="#000000" rx="3" ry="3" style="stroke:#000000;stroke-width:1.0;"/><text fill="#000000" font-family="sans-serif" font-size="11" lengthAdjust="spacing" textLength="123" x="594" y="104.4292">updatedAt: DateTime</text><ellipse cx="585" cy="114.0234" fill="#000000" rx="3" ry="3" style="stroke:#000000;stroke-width:1.0;"/><text fill="#000000" font-family="sans-serif" font-size="11" lengthAdjust="spacing" textLength="89" x="594" y="117.2339">active: Boolean</text><text fill="#000000" font-family="sans-serif" font-size="11" lengthAdjust="spacing" textLength="69" x="594" y="130.0386">groupId: Int?</text><text fill="#000000" font-family="sans-serif" font-size="11" lengthAdjust="spacing" textLength="82" x="594" y="142.8433">phone: String?</text><ellipse cx="585" cy="152.4375" fill="#000000" rx="3" ry="3" style="stroke:#000000;stroke-width:1.0;"/><text fill="#000000" font-family="sans-serif" font-size="11" lengthAdjust="spacing" textLength="81" x="594" y="155.6479">gender: String</text><ellipse cx="585" cy="165.2422" fill="#000000" rx="3" ry="3" style="stroke:#000000;stroke-width:1.0;"/><text fill="#000000" font-family="sans-serif" font-size="11" lengthAdjust="spacing" textLength="73" x="594" y="168.4526">name: String</text><text fill="#000000" font-family="sans-serif" font-size="11" lengthAdjust="spacing" textLength="87" x="594" y="181.2573">Groups: Group?</text><text fill="#000000" font-family="sans-serif" font-size="11" lengthAdjust="spacing" textLength="65" x="594" y="194.062">Adm: Adm?</text><text fill="#000000" font-family="sans-serif" font-size="11" lengthAdjust="spacing" textLength="87" x="594" y="206.8667">Doctor: Doctor?</text><text fill="#000000" font-family="sans-serif" font-size="11" lengthAdjust="spacing" textLength="51" x="594" y="219.6714">Jwts: Jwt?</text><text fill="#000000" font-family="sans-serif" font-size="11" lengthAdjust="spacing" textLength="79" x="594" y="232.4761">Nurse: Nurse?</text><ellipse cx="585" cy="242.0703" fill="#000000" rx="3" ry="3" style="stroke:#000000;stroke-width:1.0;"/><text fill="#000000" font-family="sans-serif" font-size="11" lengthAdjust="spacing" textLength="155" x="594" y="245.2808">TeamReport: TeamReport[]</text><text fill="#000000" font-family="sans-serif" font-size="11" lengthAdjust="spacing" textLength="185" x="594" y="258.0854">LinkResetEmail: LinkResetEmail?</text><text fill="#000000" font-family="sans-serif" font-size="11" lengthAdjust="spacing" textLength="227" x="594" y="270.8901">LinkResetPassword: LinkResetPassword?</text><line style="stroke:#A80036;stroke-width:1.5;" x1="575" x2="826" y1="277.4844" y2="277.4844"/><!--MD5=[8d0aa4c87893388269c540d0d03eb533]
class Jwt--><rect codeLine="24" fill="#FEFECE" filter="url(#fa54g3y93so0u)" height="137.6328" id="Jwt" style="stroke:#A80036;stroke-width:1.5;" width="149" x="7" y="345"/><ellipse cx="68.25" cy="361" fill="#ADD1B2" rx="11" ry="11" style="stroke:#A80036;stroke-width:1.0;"/><path d="M67.0469,361.875 L68.5,361.875 L68.5,361.9844 C68.5,362.3906 68.5313,362.5469 68.6094,362.7031 C68.7656,362.9531 69.0469,363.1094 69.3438,363.1094 C69.5938,363.1094 69.8594,362.9688 70.0156,362.75 C70.1406,362.5938 70.1719,362.4375 70.1719,361.9844 L70.1719,360.0625 C70.1719,359.9063 70.1719,359.8594 70.1563,359.7031 C70.0938,359.2344 69.7813,358.9219 69.3281,358.9219 C69.0781,358.9219 68.8125,359.0625 68.6406,359.2813 C68.5313,359.4531 68.5,359.6094 68.5,360.0625 L68.5,360.1875 L67.0469,360.1875 L67.0469,357.7813 L71.0313,357.7813 L71.0313,358.6406 C71.0313,359.0469 71.0625,359.2188 71.1406,359.375 C71.3125,359.625 71.5938,359.7813 71.875,359.7813 C72.1406,359.7813 72.4063,359.6406 72.5781,359.4219 C72.6875,359.25 72.7188,359.1094 72.7188,358.6406 L72.7188,356.0938 L65.0938,356.0938 C64.6563,356.0938 64.5313,356.1094 64.375,356.2031 C64.125,356.3594 63.9688,356.6563 63.9688,356.9375 C63.9688,357.2188 64.1094,357.4688 64.3281,357.6406 C64.4844,357.75 64.6719,357.7813 65.0938,357.7813 L65.3438,357.7813 L65.3438,364.2969 L65.0938,364.2969 C64.6875,364.2969 64.5313,364.3125 64.375,364.4219 C64.125,364.5938 63.9688,364.8594 63.9688,365.1563 C63.9688,365.4219 64.1094,365.6719 64.3281,365.8281 C64.4688,365.9531 64.7031,366 65.0938,366 L73.0938,366 L73.0938,363.4219 C73.0938,362.9844 73.0625,362.8438 72.9844,362.6875 C72.8125,362.4375 72.5313,362.2813 72.25,362.2813 C71.9844,362.2813 71.7188,362.3906 71.5469,362.6406 C71.4375,362.7969 71.4063,362.9375 71.4063,363.4219 L71.4063,364.2969 L67.0469,364.2969 L67.0469,361.875 Z " fill="#000000"/><text fill="#000000" font-family="sans-serif" font-size="12" lengthAdjust="spacing" textLength="18" x="88.75" y="365.1543">Jwt</text><line style="stroke:#A80036;stroke-width:1.5;" x1="8" x2="155" y1="377" y2="377"/><ellipse cx="18" cy="388" fill="#000000" rx="3" ry="3" style="stroke:#000000;stroke-width:1.0;"/><text fill="#000000" font-family="sans-serif" font-size="11" lengthAdjust="spacing" textLength="31" x="27" y="391.2104">id: Int</text><ellipse cx="18" cy="400.8047" fill="#000000" rx="3" ry="3" style="stroke:#000000;stroke-width:1.0;"/><text fill="#000000" font-family="sans-serif" font-size="11" lengthAdjust="spacing" textLength="72" x="27" y="404.0151">token: String</text><ellipse cx="18" cy="413.6094" fill="#000000" rx="3" ry="3" style="stroke:#000000;stroke-width:1.0;"/><text fill="#000000" font-family="sans-serif" font-size="11" lengthAdjust="spacing" textLength="101" x="27" y="416.8198">expire: DateTime</text><ellipse cx="18" cy="426.4141" fill="#000000" rx="3" ry="3" style="stroke:#000000;stroke-width:1.0;"/><text fill="#000000" font-family="sans-serif" font-size="11" lengthAdjust="spacing" textLength="57" x="27" y="429.6245">idUser: Int</text><ellipse cx="18" cy="439.2188" fill="#000000" rx="3" ry="3" style="stroke:#000000;stroke-width:1.0;"/><text fill="#000000" font-family="sans-serif" font-size="11" lengthAdjust="spacing" textLength="120" x="27" y="442.4292">createdAt: DateTime</text><ellipse cx="18" cy="452.0234" fill="#000000" rx="3" ry="3" style="stroke:#000000;stroke-width:1.0;"/><text fill="#000000" font-family="sans-serif" font-size="11" lengthAdjust="spacing" textLength="123" x="27" y="455.2339">updatedAt: DateTime</text><ellipse cx="18" cy="464.8281" fill="#000000" rx="3" ry="3" style="stroke:#000000;stroke-width:1.0;"/><text fill="#000000" font-family="sans-serif" font-size="11" lengthAdjust="spacing" textLength="59" x="27" y="468.0386">User: User</text><line style="stroke:#A80036;stroke-width:1.5;" x1="8" x2="155" y1="474.6328" y2="474.6328"/><!--MD5=[41314a0efc36828092cff9ebad2fcafd]
class Group--><rect codeLine="34" fill="#FEFECE" filter="url(#fa54g3y93so0u)" height="112.0234" id="Group" style="stroke:#A80036;stroke-width:1.5;" width="149" x="191" y="358"/><ellipse cx="242.75" cy="374" fill="#ADD1B2" rx="11" ry="11" style="stroke:#A80036;stroke-width:1.0;"/><path d="M241.5469,374.875 L243,374.875 L243,374.9844 C243,375.3906 243.0313,375.5469 243.1094,375.7031 C243.2656,375.9531 243.5469,376.1094 243.8438,376.1094 C244.0938,376.1094 244.3594,375.9688 244.5156,375.75 C244.6406,375.5938 244.6719,375.4375 244.6719,374.9844 L244.6719,373.0625 C244.6719,372.9063 244.6719,372.8594 244.6563,372.7031 C244.5938,372.2344 244.2813,371.9219 243.8281,371.9219 C243.5781,371.9219 243.3125,372.0625 243.1406,372.2813 C243.0313,372.4531 243,372.6094 243,373.0625 L243,373.1875 L241.5469,373.1875 L241.5469,370.7813 L245.5313,370.7813 L245.5313,371.6406 C245.5313,372.0469 245.5625,372.2188 245.6406,372.375 C245.8125,372.625 246.0938,372.7813 246.375,372.7813 C246.6406,372.7813 246.9063,372.6406 247.0781,372.4219 C247.1875,372.25 247.2188,372.1094 247.2188,371.6406 L247.2188,369.0938 L239.5938,369.0938 C239.1563,369.0938 239.0313,369.1094 238.875,369.2031 C238.625,369.3594 238.4688,369.6563 238.4688,369.9375 C238.4688,370.2188 238.6094,370.4688 238.8281,370.6406 C238.9844,370.75 239.1719,370.7813 239.5938,370.7813 L239.8438,370.7813 L239.8438,377.2969 L239.5938,377.2969 C239.1875,377.2969 239.0313,377.3125 238.875,377.4219 C238.625,377.5938 238.4688,377.8594 238.4688,378.1563 C238.4688,378.4219 238.6094,378.6719 238.8281,378.8281 C238.9688,378.9531 239.2031,379 239.5938,379 L247.5938,379 L247.5938,376.4219 C247.5938,375.9844 247.5625,375.8438 247.4844,375.6875 C247.3125,375.4375 247.0313,375.2813 246.75,375.2813 C246.4844,375.2813 246.2188,375.3906 246.0469,375.6406 C245.9375,375.7969 245.9063,375.9375 245.9063,376.4219 L245.9063,377.2969 L241.5469,377.2969 L241.5469,374.875 Z " fill="#000000"/><text fill="#000000" font-family="sans-serif" font-size="12" lengthAdjust="spacing" textLength="37" x="263.25" y="378.1543">Group</text><line style="stroke:#A80036;stroke-width:1.5;" x1="192" x2="339" y1="390" y2="390"/><ellipse cx="202" cy="401" fill="#000000" rx="3" ry="3" style="stroke:#000000;stroke-width:1.0;"/><text fill="#000000" font-family="sans-serif" font-size="11" lengthAdjust="spacing" textLength="31" x="211" y="404.2104">id: Int</text><ellipse cx="202" cy="413.8047" fill="#000000" rx="3" ry="3" style="stroke:#000000;stroke-width:1.0;"/><text fill="#000000" font-family="sans-serif" font-size="11" lengthAdjust="spacing" textLength="120" x="211" y="417.0151">createdAt: DateTime</text><ellipse cx="202" cy="426.6094" fill="#000000" rx="3" ry="3" style="stroke:#000000;stroke-width:1.0;"/><text fill="#000000" font-family="sans-serif" font-size="11" lengthAdjust="spacing" textLength="123" x="211" y="429.8198">updatedAt: DateTime</text><ellipse cx="202" cy="439.4141" fill="#000000" rx="3" ry="3" style="stroke:#000000;stroke-width:1.0;"/><text fill="#000000" font-family="sans-serif" font-size="11" lengthAdjust="spacing" textLength="73" x="211" y="442.6245">name: String</text><ellipse cx="202" cy="452.2188" fill="#000000" rx="3" ry="3" style="stroke:#000000;stroke-width:1.0;"/><text fill="#000000" font-family="sans-serif" font-size="11" lengthAdjust="spacing" textLength="67" x="211" y="455.4292">User: User[]</text><line style="stroke:#A80036;stroke-width:1.5;" x1="192" x2="339" y1="462.0234" y2="462.0234"/><!--MD5=[9dd4eaa2771a2ff8dbee15cc1e732cab]
class Patient--><rect codeLine="42" fill="#FEFECE" filter="url(#fa54g3y93so0u)" height="214.4609" id="Patient" style="stroke:#A80036;stroke-width:1.5;" width="203" x="1747" y="39"/><ellipse cx="1824.75" cy="55" fill="#ADD1B2" rx="11" ry="11" style="stroke:#A80036;stroke-width:1.0;"/><path d="M1823.5469,55.875 L1825,55.875 L1825,55.9844 C1825,56.3906 1825.0313,56.5469 1825.1094,56.7031 C1825.2656,56.9531 1825.5469,57.1094 1825.8438,57.1094 C1826.0938,57.1094 1826.3594,56.9688 1826.5156,56.75 C1826.6406,56.5938 1826.6719,56.4375 1826.6719,55.9844 L1826.6719,54.0625 C1826.6719,53.9063 1826.6719,53.8594 1826.6563,53.7031 C1826.5938,53.2344 1826.2813,52.9219 1825.8281,52.9219 C1825.5781,52.9219 1825.3125,53.0625 1825.1406,53.2813 C1825.0313,53.4531 1825,53.6094 1825,54.0625 L1825,54.1875 L1823.5469,54.1875 L1823.5469,51.7813 L1827.5313,51.7813 L1827.5313,52.6406 C1827.5313,53.0469 1827.5625,53.2188 1827.6406,53.375 C1827.8125,53.625 1828.0938,53.7813 1828.375,53.7813 C1828.6406,53.7813 1828.9063,53.6406 1829.0781,53.4219 C1829.1875,53.25 1829.2188,53.1094 1829.2188,52.6406 L1829.2188,50.0938 L1821.5938,50.0938 C1821.1563,50.0938 1821.0313,50.1094 1820.875,50.2031 C1820.625,50.3594 1820.4688,50.6563 1820.4688,50.9375 C1820.4688,51.2188 1820.6094,51.4688 1820.8281,51.6406 C1820.9844,51.75 1821.1719,51.7813 1821.5938,51.7813 L1821.8438,51.7813 L1821.8438,58.2969 L1821.5938,58.2969 C1821.1875,58.2969 1821.0313,58.3125 1820.875,58.4219 C1820.625,58.5938 1820.4688,58.8594 1820.4688,59.1563 C1820.4688,59.4219 1820.6094,59.6719 1820.8281,59.8281 C1820.9688,59.9531 1821.2031,60 1821.5938,60 L1829.5938,60 L1829.5938,57.4219 C1829.5938,56.9844 1829.5625,56.8438 1829.4844,56.6875 C1829.3125,56.4375 1829.0313,56.2813 1828.75,56.2813 C1828.4844,56.2813 1828.2188,56.3906 1828.0469,56.6406 C1827.9375,56.7969 1827.9063,56.9375 1827.9063,57.4219 L1827.9063,58.2969 L1823.5469,58.2969 L1823.5469,55.875 Z " fill="#000000"/><text fill="#000000" font-family="sans-serif" font-size="12" lengthAdjust="spacing" textLength="39" x="1845.25" y="59.1543">Patient</text><line style="stroke:#A80036;stroke-width:1.5;" x1="1748" x2="1949" y1="71" y2="71"/><ellipse cx="1758" cy="82" fill="#000000" rx="3" ry="3" style="stroke:#000000;stroke-width:1.0;"/><text fill="#000000" font-family="sans-serif" font-size="11" lengthAdjust="spacing" textLength="31" x="1767" y="85.2104">id: Int</text><ellipse cx="1758" cy="94.8047" fill="#000000" rx="3" ry="3" style="stroke:#000000;stroke-width:1.0;"/><text fill="#000000" font-family="sans-serif" font-size="11" lengthAdjust="spacing" textLength="73" x="1767" y="98.0151">name: String</text><ellipse cx="1758" cy="107.6094" fill="#000000" rx="3" ry="3" style="stroke:#000000;stroke-width:1.0;"/><text fill="#000000" font-family="sans-serif" font-size="11" lengthAdjust="spacing" textLength="94" x="1767" y="110.8198">lastName: String</text><text fill="#000000" font-family="sans-serif" font-size="11" lengthAdjust="spacing" textLength="136" x="1767" y="123.6245">addressNumber: String?</text><text fill="#000000" font-family="sans-serif" font-size="11" lengthAdjust="spacing" textLength="67" x="1767" y="136.4292">cep: String?</text><ellipse cx="1758" cy="146.0234" fill="#000000" rx="3" ry="3" style="stroke:#000000;stroke-width:1.0;"/><text fill="#000000" font-family="sans-serif" font-size="11" lengthAdjust="spacing" textLength="110" x="1767" y="149.2339">birthday: DateTime</text><text fill="#000000" font-family="sans-serif" font-size="11" lengthAdjust="spacing" textLength="82" x="1767" y="162.0386">phone: String?</text><text fill="#000000" font-family="sans-serif" font-size="11" lengthAdjust="spacing" textLength="137" x="1767" y="174.8433">healthInsurance: String?</text><ellipse cx="1758" cy="184.4375" fill="#000000" rx="3" ry="3" style="stroke:#000000;stroke-width:1.0;"/><text fill="#000000" font-family="sans-serif" font-size="11" lengthAdjust="spacing" textLength="57" x="1767" y="187.6479">cpf: String</text><ellipse cx="1758" cy="197.2422" fill="#000000" rx="3" ry="3" style="stroke:#000000;stroke-width:1.0;"/><text fill="#000000" font-family="sans-serif" font-size="11" lengthAdjust="spacing" textLength="51" x="1767" y="200.4526">rg: String</text><ellipse cx="1758" cy="210.0469" fill="#000000" rx="3" ry="3" style="stroke:#000000;stroke-width:1.0;"/><text fill="#000000" font-family="sans-serif" font-size="11" lengthAdjust="spacing" textLength="81" x="1767" y="213.2573">gender: String</text><text fill="#000000" font-family="sans-serif" font-size="11" lengthAdjust="spacing" textLength="118" x="1767" y="226.062">complement: String?</text><text fill="#000000" font-family="sans-serif" font-size="11" lengthAdjust="spacing" textLength="177" x="1767" y="238.8667">MedicalRecord: MedicalRecord?</text><line style="stroke:#A80036;stroke-width:1.5;" x1="1748" x2="1949" y1="245.4609" y2="245.4609"/><!--MD5=[5a42d898e2a5d299cc26761d1eaa7d84]
class Doctor--><rect codeLine="58" fill="#FEFECE" filter="url(#fa54g3y93so0u)" height="112.0234" id="Doctor" style="stroke:#A80036;stroke-width:1.5;" width="248" x="375.5" y="358"/><ellipse cx="474.75" cy="374" fill="#ADD1B2" rx="11" ry="11" style="stroke:#A80036;stroke-width:1.0;"/><path d="M473.5469,374.875 L475,374.875 L475,374.9844 C475,375.3906 475.0313,375.5469 475.1094,375.7031 C475.2656,375.9531 475.5469,376.1094 475.8438,376.1094 C476.0938,376.1094 476.3594,375.9688 476.5156,375.75 C476.6406,375.5938 476.6719,375.4375 476.6719,374.9844 L476.6719,373.0625 C476.6719,372.9063 476.6719,372.8594 476.6563,372.7031 C476.5938,372.2344 476.2813,371.9219 475.8281,371.9219 C475.5781,371.9219 475.3125,372.0625 475.1406,372.2813 C475.0313,372.4531 475,372.6094 475,373.0625 L475,373.1875 L473.5469,373.1875 L473.5469,370.7813 L477.5313,370.7813 L477.5313,371.6406 C477.5313,372.0469 477.5625,372.2188 477.6406,372.375 C477.8125,372.625 478.0938,372.7813 478.375,372.7813 C478.6406,372.7813 478.9063,372.6406 479.0781,372.4219 C479.1875,372.25 479.2188,372.1094 479.2188,371.6406 L479.2188,369.0938 L471.5938,369.0938 C471.1563,369.0938 471.0313,369.1094 470.875,369.2031 C470.625,369.3594 470.4688,369.6563 470.4688,369.9375 C470.4688,370.2188 470.6094,370.4688 470.8281,370.6406 C470.9844,370.75 471.1719,370.7813 471.5938,370.7813 L471.8438,370.7813 L471.8438,377.2969 L471.5938,377.2969 C471.1875,377.2969 471.0313,377.3125 470.875,377.4219 C470.625,377.5938 470.4688,377.8594 470.4688,378.1563 C470.4688,378.4219 470.6094,378.6719 470.8281,378.8281 C470.9688,378.9531 471.2031,379 471.5938,379 L479.5938,379 L479.5938,376.4219 C479.5938,375.9844 479.5625,375.8438 479.4844,375.6875 C479.3125,375.4375 479.0313,375.2813 478.75,375.2813 C478.4844,375.2813 478.2188,375.3906 478.0469,375.6406 C477.9375,375.7969 477.9063,375.9375 477.9063,376.4219 L477.9063,377.2969 L473.5469,377.2969 L473.5469,374.875 Z " fill="#000000"/><text fill="#000000" font-family="sans-serif" font-size="12" lengthAdjust="spacing" textLength="41" x="495.25" y="378.1543">Doctor</text><line style="stroke:#A80036;stroke-width:1.5;" x1="376.5" x2="622.5" y1="390" y2="390"/><ellipse cx="386.5" cy="401" fill="#000000" rx="3" ry="3" style="stroke:#000000;stroke-width:1.0;"/><text fill="#000000" font-family="sans-serif" font-size="11" lengthAdjust="spacing" textLength="61" x="395.5" y="404.2104">crm: String</text><ellipse cx="386.5" cy="413.8047" fill="#000000" rx="3" ry="3" style="stroke:#000000;stroke-width:1.0;"/><text fill="#000000" font-family="sans-serif" font-size="11" lengthAdjust="spacing" textLength="66" x="395.5" y="417.0151">area: String</text><ellipse cx="386.5" cy="426.6094" fill="#000000" rx="3" ry="3" style="stroke:#000000;stroke-width:1.0;"/><text fill="#000000" font-family="sans-serif" font-size="11" lengthAdjust="spacing" textLength="56" x="395.5" y="429.8198">userId: Int</text><ellipse cx="386.5" cy="439.4141" fill="#000000" rx="3" ry="3" style="stroke:#000000;stroke-width:1.0;"/><text fill="#000000" font-family="sans-serif" font-size="11" lengthAdjust="spacing" textLength="58" x="395.5" y="442.6245">user: User</text><ellipse cx="386.5" cy="452.2188" fill="#000000" rx="3" ry="3" style="stroke:#000000;stroke-width:1.0;"/><text fill="#000000" font-family="sans-serif" font-size="11" lengthAdjust="spacing" textLength="222" x="395.5" y="455.4292">MedicalPrescriber: MedicalPrescription[]</text><line style="stroke:#A80036;stroke-width:1.5;" x1="376.5" x2="622.5" y1="462.0234" y2="462.0234"/><!--MD5=[31de7d9ab45089250e68e111f91ce83b]
class Adm--><rect codeLine="66" fill="#FEFECE" filter="url(#fa54g3y93so0u)" height="73.6094" id="Adm" style="stroke:#A80036;stroke-width:1.5;" width="84" x="658.5" y="377"/><ellipse cx="684.75" cy="393" fill="#ADD1B2" rx="11" ry="11" style="stroke:#A80036;stroke-width:1.0;"/><path d="M683.5469,393.875 L685,393.875 L685,393.9844 C685,394.3906 685.0313,394.5469 685.1094,394.7031 C685.2656,394.9531 685.5469,395.1094 685.8438,395.1094 C686.0938,395.1094 686.3594,394.9688 686.5156,394.75 C686.6406,394.5938 686.6719,394.4375 686.6719,393.9844 L686.6719,392.0625 C686.6719,391.9063 686.6719,391.8594 686.6563,391.7031 C686.5938,391.2344 686.2813,390.9219 685.8281,390.9219 C685.5781,390.9219 685.3125,391.0625 685.1406,391.2813 C685.0313,391.4531 685,391.6094 685,392.0625 L685,392.1875 L683.5469,392.1875 L683.5469,389.7813 L687.5313,389.7813 L687.5313,390.6406 C687.5313,391.0469 687.5625,391.2188 687.6406,391.375 C687.8125,391.625 688.0938,391.7813 688.375,391.7813 C688.6406,391.7813 688.9063,391.6406 689.0781,391.4219 C689.1875,391.25 689.2188,391.1094 689.2188,390.6406 L689.2188,388.0938 L681.5938,388.0938 C681.1563,388.0938 681.0313,388.1094 680.875,388.2031 C680.625,388.3594 680.4688,388.6563 680.4688,388.9375 C680.4688,389.2188 680.6094,389.4688 680.8281,389.6406 C680.9844,389.75 681.1719,389.7813 681.5938,389.7813 L681.8438,389.7813 L681.8438,396.2969 L681.5938,396.2969 C681.1875,396.2969 681.0313,396.3125 680.875,396.4219 C680.625,396.5938 680.4688,396.8594 680.4688,397.1563 C680.4688,397.4219 680.6094,397.6719 680.8281,397.8281 C680.9688,397.9531 681.2031,398 681.5938,398 L689.5938,398 L689.5938,395.4219 C689.5938,394.9844 689.5625,394.8438 689.4844,394.6875 C689.3125,394.4375 689.0313,394.2813 688.75,394.2813 C688.4844,394.2813 688.2188,394.3906 688.0469,394.6406 C687.9375,394.7969 687.9063,394.9375 687.9063,395.4219 L687.9063,396.2969 L683.5469,396.2969 L683.5469,393.875 Z " fill="#000000"/><text fill="#000000" font-family="sans-serif" font-size="12" lengthAdjust="spacing" textLength="27" x="701.25" y="397.1543">Adm</text><line style="stroke:#A80036;stroke-width:1.5;" x1="659.5" x2="741.5" y1="409" y2="409"/><ellipse cx="669.5" cy="420" fill="#000000" rx="3" ry="3" style="stroke:#000000;stroke-width:1.0;"/><text fill="#000000" font-family="sans-serif" font-size="11" lengthAdjust="spacing" textLength="56" x="678.5" y="423.2104">userId: Int</text><ellipse cx="669.5" cy="432.8047" fill="#000000" rx="3" ry="3" style="stroke:#000000;stroke-width:1.0;"/><text fill="#000000" font-family="sans-serif" font-size="11" lengthAdjust="spacing" textLength="58" x="678.5" y="436.0151">user: User</text><line style="stroke:#A80036;stroke-width:1.5;" x1="659.5" x2="741.5" y1="442.6094" y2="442.6094"/><!--MD5=[b987e1d1a4ae943a3ffe62b99fe85c43]
class MedicalPrescription--><rect codeLine="71" fill="#FEFECE" filter="url(#fa54g3y93so0u)" height="240.0703" id="MedicalPrescription" style="stroke:#A80036;stroke-width:1.5;" width="261" x="369" y="543"/><ellipse cx="436.75" cy="559" fill="#ADD1B2" rx="11" ry="11" style="stroke:#A80036;stroke-width:1.0;"/><path d="M435.5469,559.875 L437,559.875 L437,559.9844 C437,560.3906 437.0313,560.5469 437.1094,560.7031 C437.2656,560.9531 437.5469,561.1094 437.8438,561.1094 C438.0938,561.1094 438.3594,560.9688 438.5156,560.75 C438.6406,560.5938 438.6719,560.4375 438.6719,559.9844 L438.6719,558.0625 C438.6719,557.9063 438.6719,557.8594 438.6563,557.7031 C438.5938,557.2344 438.2813,556.9219 437.8281,556.9219 C437.5781,556.9219 437.3125,557.0625 437.1406,557.2813 C437.0313,557.4531 437,557.6094 437,558.0625 L437,558.1875 L435.5469,558.1875 L435.5469,555.7813 L439.5313,555.7813 L439.5313,556.6406 C439.5313,557.0469 439.5625,557.2188 439.6406,557.375 C439.8125,557.625 440.0938,557.7813 440.375,557.7813 C440.6406,557.7813 440.9063,557.6406 441.0781,557.4219 C441.1875,557.25 441.2188,557.1094 441.2188,556.6406 L441.2188,554.0938 L433.5938,554.0938 C433.1563,554.0938 433.0313,554.1094 432.875,554.2031 C432.625,554.3594 432.4688,554.6563 432.4688,554.9375 C432.4688,555.2188 432.6094,555.4688 432.8281,555.6406 C432.9844,555.75 433.1719,555.7813 433.5938,555.7813 L433.8438,555.7813 L433.8438,562.2969 L433.5938,562.2969 C433.1875,562.2969 433.0313,562.3125 432.875,562.4219 C432.625,562.5938 432.4688,562.8594 432.4688,563.1563 C432.4688,563.4219 432.6094,563.6719 432.8281,563.8281 C432.9688,563.9531 433.2031,564 433.5938,564 L441.5938,564 L441.5938,561.4219 C441.5938,560.9844 441.5625,560.8438 441.4844,560.6875 C441.3125,560.4375 441.0313,560.2813 440.75,560.2813 C440.4844,560.2813 440.2188,560.3906 440.0469,560.6406 C439.9375,560.7969 439.9063,560.9375 439.9063,561.4219 L439.9063,562.2969 L435.5469,562.2969 L435.5469,559.875 Z " fill="#000000"/><text fill="#000000" font-family="sans-serif" font-size="12" lengthAdjust="spacing" textLength="117" x="457.25" y="563.1543">MedicalPrescription</text><line style="stroke:#A80036;stroke-width:1.5;" x1="370" x2="629" y1="575" y2="575"/><ellipse cx="380" cy="586" fill="#000000" rx="3" ry="3" style="stroke:#000000;stroke-width:1.0;"/><text fill="#000000" font-family="sans-serif" font-size="11" lengthAdjust="spacing" textLength="31" x="389" y="589.2104">id: Int</text><ellipse cx="380" cy="598.8047" fill="#000000" rx="3" ry="3" style="stroke:#000000;stroke-width:1.0;"/><text fill="#000000" font-family="sans-serif" font-size="11" lengthAdjust="spacing" textLength="65" x="389" y="602.0151">drug: String</text><ellipse cx="380" cy="611.6094" fill="#000000" rx="3" ry="3" style="stroke:#000000;stroke-width:1.0;"/><text fill="#000000" font-family="sans-serif" font-size="11" lengthAdjust="spacing" textLength="109" x="389" y="614.8198">drugDosage: String</text><ellipse cx="380" cy="624.4141" fill="#000000" rx="3" ry="3" style="stroke:#000000;stroke-width:1.0;"/><text fill="#000000" font-family="sans-serif" font-size="11" lengthAdjust="spacing" textLength="90" x="389" y="627.6245">drugWay: String</text><ellipse cx="380" cy="637.2188" fill="#000000" rx="3" ry="3" style="stroke:#000000;stroke-width:1.0;"/><text fill="#000000" font-family="sans-serif" font-size="11" lengthAdjust="spacing" textLength="163" x="389" y="640.4292">administrationInterval: String</text><ellipse cx="380" cy="650.0234" fill="#000000" rx="3" ry="3" style="stroke:#000000;stroke-width:1.0;"/><text fill="#000000" font-family="sans-serif" font-size="11" lengthAdjust="spacing" textLength="158" x="389" y="653.2339">prescriptionDate: DateTime</text><ellipse cx="380" cy="662.8281" fill="#000000" rx="3" ry="3" style="stroke:#000000;stroke-width:1.0;"/><text fill="#000000" font-family="sans-serif" font-size="11" lengthAdjust="spacing" textLength="101" x="389" y="666.0386">realized: Boolean</text><text fill="#000000" font-family="sans-serif" font-size="11" lengthAdjust="spacing" textLength="66" x="389" y="678.8433">obs: String?</text><ellipse cx="380" cy="688.4375" fill="#000000" rx="3" ry="3" style="stroke:#000000;stroke-width:1.0;"/><text fill="#000000" font-family="sans-serif" font-size="11" lengthAdjust="spacing" textLength="115" x="389" y="691.6479">medicalRecordId: Int</text><ellipse cx="380" cy="701.2422" fill="#000000" rx="3" ry="3" style="stroke:#000000;stroke-width:1.0;"/><text fill="#000000" font-family="sans-serif" font-size="11" lengthAdjust="spacing" textLength="88" x="389" y="704.4526">prescriberId: Int</text><ellipse cx="380" cy="714.0469" fill="#000000" rx="3" ry="3" style="stroke:#000000;stroke-width:1.0;"/><text fill="#000000" font-family="sans-serif" font-size="11" lengthAdjust="spacing" textLength="134" x="389" y="717.2573">administrationCount: Int</text><ellipse cx="380" cy="726.8516" fill="#000000" rx="3" ry="3" style="stroke:#000000;stroke-width:1.0;"/><text fill="#000000" font-family="sans-serif" font-size="11" lengthAdjust="spacing" textLength="171" x="389" y="730.062">MedicalRecord: MedicalRecord</text><ellipse cx="380" cy="739.6563" fill="#000000" rx="3" ry="3" style="stroke:#000000;stroke-width:1.0;"/><text fill="#000000" font-family="sans-serif" font-size="11" lengthAdjust="spacing" textLength="100" x="389" y="742.8667">Prescriber: Doctor</text><ellipse cx="380" cy="752.4609" fill="#000000" rx="3" ry="3" style="stroke:#000000;stroke-width:1.0;"/><text fill="#000000" font-family="sans-serif" font-size="11" lengthAdjust="spacing" textLength="235" x="389" y="755.6714">Executors: ExecutorsMedicalPrescription[]</text><ellipse cx="380" cy="765.2656" fill="#000000" rx="3" ry="3" style="stroke:#000000;stroke-width:1.0;"/><text fill="#000000" font-family="sans-serif" font-size="11" lengthAdjust="spacing" textLength="106" x="389" y="768.4761">canceled: Boolean</text><line style="stroke:#A80036;stroke-width:1.5;" x1="370" x2="629" y1="775.0703" y2="775.0703"/><!--MD5=[f18746c352202dfe215a446b29fe4847]
class MedicalRecord--><rect codeLine="89" fill="#FEFECE" filter="url(#fa54g3y93so0u)" height="137.6328" id="MedicalRecord" style="stroke:#A80036;stroke-width:1.5;" width="257" x="1720" y="345"/><ellipse cx="1799.75" cy="361" fill="#ADD1B2" rx="11" ry="11" style="stroke:#A80036;stroke-width:1.0;"/><path d="M1798.5469,361.875 L1800,361.875 L1800,361.9844 C1800,362.3906 1800.0313,362.5469 1800.1094,362.7031 C1800.2656,362.9531 1800.5469,363.1094 1800.8438,363.1094 C1801.0938,363.1094 1801.3594,362.9688 1801.5156,362.75 C1801.6406,362.5938 1801.6719,362.4375 1801.6719,361.9844 L1801.6719,360.0625 C1801.6719,359.9063 1801.6719,359.8594 1801.6563,359.7031 C1801.5938,359.2344 1801.2813,358.9219 1800.8281,358.9219 C1800.5781,358.9219 1800.3125,359.0625 1800.1406,359.2813 C1800.0313,359.4531 1800,359.6094 1800,360.0625 L1800,360.1875 L1798.5469,360.1875 L1798.5469,357.7813 L1802.5313,357.7813 L1802.5313,358.6406 C1802.5313,359.0469 1802.5625,359.2188 1802.6406,359.375 C1802.8125,359.625 1803.0938,359.7813 1803.375,359.7813 C1803.6406,359.7813 1803.9063,359.6406 1804.0781,359.4219 C1804.1875,359.25 1804.2188,359.1094 1804.2188,358.6406 L1804.2188,356.0938 L1796.5938,356.0938 C1796.1563,356.0938 1796.0313,356.1094 1795.875,356.2031 C1795.625,356.3594 1795.4688,356.6563 1795.4688,356.9375 C1795.4688,357.2188 1795.6094,357.4688 1795.8281,357.6406 C1795.9844,357.75 1796.1719,357.7813 1796.5938,357.7813 L1796.8438,357.7813 L1796.8438,364.2969 L1796.5938,364.2969 C1796.1875,364.2969 1796.0313,364.3125 1795.875,364.4219 C1795.625,364.5938 1795.4688,364.8594 1795.4688,365.1563 C1795.4688,365.4219 1795.6094,365.6719 1795.8281,365.8281 C1795.9688,365.9531 1796.2031,366 1796.5938,366 L1804.5938,366 L1804.5938,363.4219 C1804.5938,362.9844 1804.5625,362.8438 1804.4844,362.6875 C1804.3125,362.4375 1804.0313,362.2813 1803.75,362.2813 C1803.4844,362.2813 1803.2188,362.3906 1803.0469,362.6406 C1802.9375,362.7969 1802.9063,362.9375 1802.9063,363.4219 L1802.9063,364.2969 L1798.5469,364.2969 L1798.5469,361.875 Z " fill="#000000"/><text fill="#000000" font-family="sans-serif" font-size="12" lengthAdjust="spacing" textLength="89" x="1820.25" y="365.1543">MedicalRecord</text><line style="stroke:#A80036;stroke-width:1.5;" x1="1721" x2="1976" y1="377" y2="377"/><ellipse cx="1731" cy="388" fill="#000000" rx="3" ry="3" style="stroke:#000000;stroke-width:1.0;"/><text fill="#000000" font-family="sans-serif" font-size="11" lengthAdjust="spacing" textLength="31" x="1740" y="391.2104">id: Int</text><ellipse cx="1731" cy="400.8047" fill="#000000" rx="3" ry="3" style="stroke:#000000;stroke-width:1.0;"/><text fill="#000000" font-family="sans-serif" font-size="11" lengthAdjust="spacing" textLength="71" x="1740" y="404.0151">patientId: Int</text><ellipse cx="1731" cy="413.6094" fill="#000000" rx="3" ry="3" style="stroke:#000000;stroke-width:1.0;"/><text fill="#000000" font-family="sans-serif" font-size="11" lengthAdjust="spacing" textLength="86" x="1740" y="416.8198">patient: Patient</text><ellipse cx="1731" cy="426.4141" fill="#000000" rx="3" ry="3" style="stroke:#000000;stroke-width:1.0;"/><text fill="#000000" font-family="sans-serif" font-size="11" lengthAdjust="spacing" textLength="231" x="1740" y="429.6245">MedicalPrescription: MedicalPrescription[]</text><ellipse cx="1731" cy="439.2188" fill="#000000" rx="3" ry="3" style="stroke:#000000;stroke-width:1.0;"/><text fill="#000000" font-family="sans-serif" font-size="11" lengthAdjust="spacing" textLength="211" x="1740" y="442.4292">NursePrescription: NursePrescription[]</text><ellipse cx="1731" cy="452.0234" fill="#000000" rx="3" ry="3" style="stroke:#000000;stroke-width:1.0;"/><text fill="#000000" font-family="sans-serif" font-size="11" lengthAdjust="spacing" textLength="155" x="1740" y="455.2339">NurseReport: NurseReport[]</text><ellipse cx="1731" cy="464.8281" fill="#000000" rx="3" ry="3" style="stroke:#000000;stroke-width:1.0;"/><text fill="#000000" font-family="sans-serif" font-size="11" lengthAdjust="spacing" textLength="155" x="1740" y="468.0386">TeamReport: TeamReport[]</text><line style="stroke:#A80036;stroke-width:1.5;" x1="1721" x2="1976" y1="474.6328" y2="474.6328"/><!--MD5=[4cecd69333ffe5e300c271dde8a957f3]
class TeamReport--><rect codeLine="99" fill="#FEFECE" filter="url(#fa54g3y93so0u)" height="137.6328" id="TeamReport" style="stroke:#A80036;stroke-width:1.5;" width="197" x="778" y="345"/><ellipse cx="835.75" cy="361" fill="#ADD1B2" rx="11" ry="11" style="stroke:#A80036;stroke-width:1.0;"/><path d="M834.5469,361.875 L836,361.875 L836,361.9844 C836,362.3906 836.0313,362.5469 836.1094,362.7031 C836.2656,362.9531 836.5469,363.1094 836.8438,363.1094 C837.0938,363.1094 837.3594,362.9688 837.5156,362.75 C837.6406,362.5938 837.6719,362.4375 837.6719,361.9844 L837.6719,360.0625 C837.6719,359.9063 837.6719,359.8594 837.6563,359.7031 C837.5938,359.2344 837.2813,358.9219 836.8281,358.9219 C836.5781,358.9219 836.3125,359.0625 836.1406,359.2813 C836.0313,359.4531 836,359.6094 836,360.0625 L836,360.1875 L834.5469,360.1875 L834.5469,357.7813 L838.5313,357.7813 L838.5313,358.6406 C838.5313,359.0469 838.5625,359.2188 838.6406,359.375 C838.8125,359.625 839.0938,359.7813 839.375,359.7813 C839.6406,359.7813 839.9063,359.6406 840.0781,359.4219 C840.1875,359.25 840.2188,359.1094 840.2188,358.6406 L840.2188,356.0938 L832.5938,356.0938 C832.1563,356.0938 832.0313,356.1094 831.875,356.2031 C831.625,356.3594 831.4688,356.6563 831.4688,356.9375 C831.4688,357.2188 831.6094,357.4688 831.8281,357.6406 C831.9844,357.75 832.1719,357.7813 832.5938,357.7813 L832.8438,357.7813 L832.8438,364.2969 L832.5938,364.2969 C832.1875,364.2969 832.0313,364.3125 831.875,364.4219 C831.625,364.5938 831.4688,364.8594 831.4688,365.1563 C831.4688,365.4219 831.6094,365.6719 831.8281,365.8281 C831.9688,365.9531 832.2031,366 832.5938,366 L840.5938,366 L840.5938,363.4219 C840.5938,362.9844 840.5625,362.8438 840.4844,362.6875 C840.3125,362.4375 840.0313,362.2813 839.75,362.2813 C839.4844,362.2813 839.2188,362.3906 839.0469,362.6406 C838.9375,362.7969 838.9063,362.9375 838.9063,363.4219 L838.9063,364.2969 L834.5469,364.2969 L834.5469,361.875 Z " fill="#000000"/><text fill="#000000" font-family="sans-serif" font-size="12" lengthAdjust="spacing" textLength="73" x="856.25" y="365.1543">TeamReport</text><line style="stroke:#A80036;stroke-width:1.5;" x1="779" x2="974" y1="377" y2="377"/><ellipse cx="789" cy="388" fill="#000000" rx="3" ry="3" style="stroke:#000000;stroke-width:1.0;"/><text fill="#000000" font-family="sans-serif" font-size="11" lengthAdjust="spacing" textLength="31" x="798" y="391.2104">id: Int</text><ellipse cx="789" cy="400.8047" fill="#000000" rx="3" ry="3" style="stroke:#000000;stroke-width:1.0;"/><text fill="#000000" font-family="sans-serif" font-size="11" lengthAdjust="spacing" textLength="126" x="798" y="404.0151">reportDate: DateTime</text><ellipse cx="789" cy="413.6094" fill="#000000" rx="3" ry="3" style="stroke:#000000;stroke-width:1.0;"/><text fill="#000000" font-family="sans-serif" font-size="11" lengthAdjust="spacing" textLength="74" x="798" y="416.8198">report: String</text><ellipse cx="789" cy="426.4141" fill="#000000" rx="3" ry="3" style="stroke:#000000;stroke-width:1.0;"/><text fill="#000000" font-family="sans-serif" font-size="11" lengthAdjust="spacing" textLength="56" x="798" y="429.6245">userId: Int</text><ellipse cx="789" cy="439.2188" fill="#000000" rx="3" ry="3" style="stroke:#000000;stroke-width:1.0;"/><text fill="#000000" font-family="sans-serif" font-size="11" lengthAdjust="spacing" textLength="115" x="798" y="442.4292">medicalRecordId: Int</text><ellipse cx="789" cy="452.0234" fill="#000000" rx="3" ry="3" style="stroke:#000000;stroke-width:1.0;"/><text fill="#000000" font-family="sans-serif" font-size="11" lengthAdjust="spacing" textLength="171" x="798" y="455.2339">MedicalRecord: MedicalRecord</text><ellipse cx="789" cy="464.8281" fill="#000000" rx="3" ry="3" style="stroke:#000000;stroke-width:1.0;"/><text fill="#000000" font-family="sans-serif" font-size="11" lengthAdjust="spacing" textLength="85" x="798" y="468.0386">signatory: User</text><line style="stroke:#A80036;stroke-width:1.5;" x1="779" x2="974" y1="474.6328" y2="474.6328"/><!--MD5=[a059576e163b46f56762f12600c49258]
class Nurse--><rect codeLine="109" fill="#FEFECE" filter="url(#fa54g3y93so0u)" height="137.6328" id="Nurse" style="stroke:#A80036;stroke-width:1.5;" width="331" x="1010" y="345"/><ellipse cx="1153.75" cy="361" fill="#ADD1B2" rx="11" ry="11" style="stroke:#A80036;stroke-width:1.0;"/><path d="M1152.5469,361.875 L1154,361.875 L1154,361.9844 C1154,362.3906 1154.0313,362.5469 1154.1094,362.7031 C1154.2656,362.9531 1154.5469,363.1094 1154.8438,363.1094 C1155.0938,363.1094 1155.3594,362.9688 1155.5156,362.75 C1155.6406,362.5938 1155.6719,362.4375 1155.6719,361.9844 L1155.6719,360.0625 C1155.6719,359.9063 1155.6719,359.8594 1155.6563,359.7031 C1155.5938,359.2344 1155.2813,358.9219 1154.8281,358.9219 C1154.5781,358.9219 1154.3125,359.0625 1154.1406,359.2813 C1154.0313,359.4531 1154,359.6094 1154,360.0625 L1154,360.1875 L1152.5469,360.1875 L1152.5469,357.7813 L1156.5313,357.7813 L1156.5313,358.6406 C1156.5313,359.0469 1156.5625,359.2188 1156.6406,359.375 C1156.8125,359.625 1157.0938,359.7813 1157.375,359.7813 C1157.6406,359.7813 1157.9063,359.6406 1158.0781,359.4219 C1158.1875,359.25 1158.2188,359.1094 1158.2188,358.6406 L1158.2188,356.0938 L1150.5938,356.0938 C1150.1563,356.0938 1150.0313,356.1094 1149.875,356.2031 C1149.625,356.3594 1149.4688,356.6563 1149.4688,356.9375 C1149.4688,357.2188 1149.6094,357.4688 1149.8281,357.6406 C1149.9844,357.75 1150.1719,357.7813 1150.5938,357.7813 L1150.8438,357.7813 L1150.8438,364.2969 L1150.5938,364.2969 C1150.1875,364.2969 1150.0313,364.3125 1149.875,364.4219 C1149.625,364.5938 1149.4688,364.8594 1149.4688,365.1563 C1149.4688,365.4219 1149.6094,365.6719 1149.8281,365.8281 C1149.9688,365.9531 1150.2031,366 1150.5938,366 L1158.5938,366 L1158.5938,363.4219 C1158.5938,362.9844 1158.5625,362.8438 1158.4844,362.6875 C1158.3125,362.4375 1158.0313,362.2813 1157.75,362.2813 C1157.4844,362.2813 1157.2188,362.3906 1157.0469,362.6406 C1156.9375,362.7969 1156.9063,362.9375 1156.9063,363.4219 L1156.9063,364.2969 L1152.5469,364.2969 L1152.5469,361.875 Z " fill="#000000"/><text fill="#000000" font-family="sans-serif" font-size="12" lengthAdjust="spacing" textLength="35" x="1174.25" y="365.1543">Nurse</text><line style="stroke:#A80036;stroke-width:1.5;" x1="1011" x2="1340" y1="377" y2="377"/><ellipse cx="1021" cy="388" fill="#000000" rx="3" ry="3" style="stroke:#000000;stroke-width:1.0;"/><text fill="#000000" font-family="sans-serif" font-size="11" lengthAdjust="spacing" textLength="72" x="1030" y="391.2104">coren: String</text><ellipse cx="1021" cy="400.8047" fill="#000000" rx="3" ry="3" style="stroke:#000000;stroke-width:1.0;"/><text fill="#000000" font-family="sans-serif" font-size="11" lengthAdjust="spacing" textLength="56" x="1030" y="404.0151">userId: Int</text><ellipse cx="1021" cy="413.6094" fill="#000000" rx="3" ry="3" style="stroke:#000000;stroke-width:1.0;"/><text fill="#000000" font-family="sans-serif" font-size="11" lengthAdjust="spacing" textLength="58" x="1030" y="416.8198">user: User</text><ellipse cx="1021" cy="426.4141" fill="#000000" rx="3" ry="3" style="stroke:#000000;stroke-width:1.0;"/><text fill="#000000" font-family="sans-serif" font-size="11" lengthAdjust="spacing" textLength="305" x="1030" y="429.6245">NurseExecutorMedical: ExecutorsMedicalPrescription[]</text><ellipse cx="1021" cy="439.2188" fill="#000000" rx="3" ry="3" style="stroke:#000000;stroke-width:1.0;"/><text fill="#000000" font-family="sans-serif" font-size="11" lengthAdjust="spacing" textLength="196" x="1030" y="442.4292">NurseExecutor: NursePrescription[]</text><ellipse cx="1021" cy="452.0234" fill="#000000" rx="3" ry="3" style="stroke:#000000;stroke-width:1.0;"/><text fill="#000000" font-family="sans-serif" font-size="11" lengthAdjust="spacing" textLength="202" x="1030" y="455.2339">NursePrescriber: NursePrescription[]</text><ellipse cx="1021" cy="464.8281" fill="#000000" rx="3" ry="3" style="stroke:#000000;stroke-width:1.0;"/><text fill="#000000" font-family="sans-serif" font-size="11" lengthAdjust="spacing" textLength="155" x="1030" y="468.0386">NurseReport: NurseReport[]</text><line style="stroke:#A80036;stroke-width:1.5;" x1="1011" x2="1340" y1="474.6328" y2="474.6328"/><!--MD5=[64d1cc86830029754a80a19dcbe7ac94]
class NursePrescription--><rect codeLine="119" fill="#FEFECE" filter="url(#fa54g3y93so0u)" height="214.4609" id="NursePrescription" style="stroke:#A80036;stroke-width:1.5;" width="197" x="1634" y="556"/><ellipse cx="1675.55" cy="572" fill="#ADD1B2" rx="11" ry="11" style="stroke:#A80036;stroke-width:1.0;"/><path d="M1674.3469,572.875 L1675.8,572.875 L1675.8,572.9844 C1675.8,573.3906 1675.8313,573.5469 1675.9094,573.7031 C1676.0656,573.9531 1676.3469,574.1094 1676.6438,574.1094 C1676.8938,574.1094 1677.1594,573.9688 1677.3156,573.75 C1677.4406,573.5938 1677.4719,573.4375 1677.4719,572.9844 L1677.4719,571.0625 C1677.4719,570.9063 1677.4719,570.8594 1677.4563,570.7031 C1677.3938,570.2344 1677.0813,569.9219 1676.6281,569.9219 C1676.3781,569.9219 1676.1125,570.0625 1675.9406,570.2813 C1675.8313,570.4531 1675.8,570.6094 1675.8,571.0625 L1675.8,571.1875 L1674.3469,571.1875 L1674.3469,568.7813 L1678.3313,568.7813 L1678.3313,569.6406 C1678.3313,570.0469 1678.3625,570.2188 1678.4406,570.375 C1678.6125,570.625 1678.8938,570.7813 1679.175,570.7813 C1679.4406,570.7813 1679.7063,570.6406 1679.8781,570.4219 C1679.9875,570.25 1680.0188,570.1094 1680.0188,569.6406 L1680.0188,567.0938 L1672.3938,567.0938 C1671.9563,567.0938 1671.8313,567.1094 1671.675,567.2031 C1671.425,567.3594 1671.2688,567.6563 1671.2688,567.9375 C1671.2688,568.2188 1671.4094,568.4688 1671.6281,568.6406 C1671.7844,568.75 1671.9719,568.7813 1672.3938,568.7813 L1672.6438,568.7813 L1672.6438,575.2969 L1672.3938,575.2969 C1671.9875,575.2969 1671.8313,575.3125 1671.675,575.4219 C1671.425,575.5938 1671.2688,575.8594 1671.2688,576.1563 C1671.2688,576.4219 1671.4094,576.6719 1671.6281,576.8281 C1671.7688,576.9531 1672.0031,577 1672.3938,577 L1680.3938,577 L1680.3938,574.4219 C1680.3938,573.9844 1680.3625,573.8438 1680.2844,573.6875 C1680.1125,573.4375 1679.8313,573.2813 1679.55,573.2813 C1679.2844,573.2813 1679.0188,573.3906 1678.8469,573.6406 C1678.7375,573.7969 1678.7063,573.9375 1678.7063,574.4219 L1678.7063,575.2969 L1674.3469,575.2969 L1674.3469,572.875 Z " fill="#000000"/><text fill="#000000" font-family="sans-serif" font-size="12" lengthAdjust="spacing" textLength="106" x="1695.45" y="576.1543">NursePrescription</text><line style="stroke:#A80036;stroke-width:1.5;" x1="1635" x2="1830" y1="588" y2="588"/><ellipse cx="1645" cy="599" fill="#000000" rx="3" ry="3" style="stroke:#000000;stroke-width:1.0;"/><text fill="#000000" font-family="sans-serif" font-size="11" lengthAdjust="spacing" textLength="31" x="1654" y="602.2104">id: Int</text><ellipse cx="1645" cy="611.8047" fill="#000000" rx="3" ry="3" style="stroke:#000000;stroke-width:1.0;"/><text fill="#000000" font-family="sans-serif" font-size="11" lengthAdjust="spacing" textLength="106" x="1654" y="615.0151">prescription: String</text><ellipse cx="1645" cy="624.6094" fill="#000000" rx="3" ry="3" style="stroke:#000000;stroke-width:1.0;"/><text fill="#000000" font-family="sans-serif" font-size="11" lengthAdjust="spacing" textLength="158" x="1654" y="627.8198">prescriptionDate: DateTime</text><ellipse cx="1645" cy="637.4141" fill="#000000" rx="3" ry="3" style="stroke:#000000;stroke-width:1.0;"/><text fill="#000000" font-family="sans-serif" font-size="11" lengthAdjust="spacing" textLength="101" x="1654" y="640.6245">realized: Boolean</text><text fill="#000000" font-family="sans-serif" font-size="11" lengthAdjust="spacing" textLength="66" x="1654" y="653.4292">obs: String?</text><text fill="#000000" font-family="sans-serif" font-size="11" lengthAdjust="spacing" textLength="155" x="1654" y="666.2339">executionDate: DateTime?</text><ellipse cx="1645" cy="675.8281" fill="#000000" rx="3" ry="3" style="stroke:#000000;stroke-width:1.0;"/><text fill="#000000" font-family="sans-serif" font-size="11" lengthAdjust="spacing" textLength="115" x="1654" y="679.0386">medicalRecordId: Int</text><ellipse cx="1645" cy="688.6328" fill="#000000" rx="3" ry="3" style="stroke:#000000;stroke-width:1.0;"/><text fill="#000000" font-family="sans-serif" font-size="11" lengthAdjust="spacing" textLength="88" x="1654" y="691.8433">prescriberId: Int</text><text fill="#000000" font-family="sans-serif" font-size="11" lengthAdjust="spacing" textLength="88" x="1654" y="704.6479">executorId: Int?</text><ellipse cx="1645" cy="714.2422" fill="#000000" rx="3" ry="3" style="stroke:#000000;stroke-width:1.0;"/><text fill="#000000" font-family="sans-serif" font-size="11" lengthAdjust="spacing" textLength="106" x="1654" y="717.4526">canceled: Boolean</text><text fill="#000000" font-family="sans-serif" font-size="11" lengthAdjust="spacing" textLength="96" x="1654" y="730.2573">Executor: Nurse?</text><ellipse cx="1645" cy="739.8516" fill="#000000" rx="3" ry="3" style="stroke:#000000;stroke-width:1.0;"/><text fill="#000000" font-family="sans-serif" font-size="11" lengthAdjust="spacing" textLength="171" x="1654" y="743.062">MedicalRecord: MedicalRecord</text><ellipse cx="1645" cy="752.6563" fill="#000000" rx="3" ry="3" style="stroke:#000000;stroke-width:1.0;"/><text fill="#000000" font-family="sans-serif" font-size="11" lengthAdjust="spacing" textLength="96" x="1654" y="755.8667">Prescriber: Nurse</text><line style="stroke:#A80036;stroke-width:1.5;" x1="1635" x2="1830" y1="762.4609" y2="762.4609"/><!--MD5=[4ef6a16edff0380b0f2779ea2fe63ece]
class NurseReport--><rect codeLine="135" fill="#FEFECE" filter="url(#fa54g3y93so0u)" height="137.6328" id="NurseReport" style="stroke:#A80036;stroke-width:1.5;" width="197" x="1866" y="594"/><ellipse cx="1922.75" cy="610" fill="#ADD1B2" rx="11" ry="11" style="stroke:#A80036;stroke-width:1.0;"/><path d="M1921.5469,610.875 L1923,610.875 L1923,610.9844 C1923,611.3906 1923.0313,611.5469 1923.1094,611.7031 C1923.2656,611.9531 1923.5469,612.1094 1923.8438,612.1094 C1924.0938,612.1094 1924.3594,611.9688 1924.5156,611.75 C1924.6406,611.5938 1924.6719,611.4375 1924.6719,610.9844 L1924.6719,609.0625 C1924.6719,608.9063 1924.6719,608.8594 1924.6563,608.7031 C1924.5938,608.2344 1924.2813,607.9219 1923.8281,607.9219 C1923.5781,607.9219 1923.3125,608.0625 1923.1406,608.2813 C1923.0313,608.4531 1923,608.6094 1923,609.0625 L1923,609.1875 L1921.5469,609.1875 L1921.5469,606.7813 L1925.5313,606.7813 L1925.5313,607.6406 C1925.5313,608.0469 1925.5625,608.2188 1925.6406,608.375 C1925.8125,608.625 1926.0938,608.7813 1926.375,608.7813 C1926.6406,608.7813 1926.9063,608.6406 1927.0781,608.4219 C1927.1875,608.25 1927.2188,608.1094 1927.2188,607.6406 L1927.2188,605.0938 L1919.5938,605.0938 C1919.1563,605.0938 1919.0313,605.1094 1918.875,605.2031 C1918.625,605.3594 1918.4688,605.6563 1918.4688,605.9375 C1918.4688,606.2188 1918.6094,606.4688 1918.8281,606.6406 C1918.9844,606.75 1919.1719,606.7813 1919.5938,606.7813 L1919.8438,606.7813 L1919.8438,613.2969 L1919.5938,613.2969 C1919.1875,613.2969 1919.0313,613.3125 1918.875,613.4219 C1918.625,613.5938 1918.4688,613.8594 1918.4688,614.1563 C1918.4688,614.4219 1918.6094,614.6719 1918.8281,614.8281 C1918.9688,614.9531 1919.2031,615 1919.5938,615 L1927.5938,615 L1927.5938,612.4219 C1927.5938,611.9844 1927.5625,611.8438 1927.4844,611.6875 C1927.3125,611.4375 1927.0313,611.2813 1926.75,611.2813 C1926.4844,611.2813 1926.2188,611.3906 1926.0469,611.6406 C1925.9375,611.7969 1925.9063,611.9375 1925.9063,612.4219 L1925.9063,613.2969 L1921.5469,613.2969 L1921.5469,610.875 Z " fill="#000000"/><text fill="#000000" font-family="sans-serif" font-size="12" lengthAdjust="spacing" textLength="75" x="1943.25" y="614.1543">NurseReport</text><line style="stroke:#A80036;stroke-width:1.5;" x1="1867" x2="2062" y1="626" y2="626"/><ellipse cx="1877" cy="637" fill="#000000" rx="3" ry="3" style="stroke:#000000;stroke-width:1.0;"/><text fill="#000000" font-family="sans-serif" font-size="11" lengthAdjust="spacing" textLength="31" x="1886" y="640.2104">id: Int</text><ellipse cx="1877" cy="649.8047" fill="#000000" rx="3" ry="3" style="stroke:#000000;stroke-width:1.0;"/><text fill="#000000" font-family="sans-serif" font-size="11" lengthAdjust="spacing" textLength="126" x="1886" y="653.0151">reportDate: DateTime</text><ellipse cx="1877" cy="662.6094" fill="#000000" rx="3" ry="3" style="stroke:#000000;stroke-width:1.0;"/><text fill="#000000" font-family="sans-serif" font-size="11" lengthAdjust="spacing" textLength="74" x="1886" y="665.8198">report: String</text><ellipse cx="1877" cy="675.4141" fill="#000000" rx="3" ry="3" style="stroke:#000000;stroke-width:1.0;"/><text fill="#000000" font-family="sans-serif" font-size="11" lengthAdjust="spacing" textLength="115" x="1886" y="678.6245">medicalRecordId: Int</text><ellipse cx="1877" cy="688.2188" fill="#000000" rx="3" ry="3" style="stroke:#000000;stroke-width:1.0;"/><text fill="#000000" font-family="sans-serif" font-size="11" lengthAdjust="spacing" textLength="83" x="1886" y="691.4292">signatoryId: Int</text><ellipse cx="1877" cy="701.0234" fill="#000000" rx="3" ry="3" style="stroke:#000000;stroke-width:1.0;"/><text fill="#000000" font-family="sans-serif" font-size="11" lengthAdjust="spacing" textLength="171" x="1886" y="704.2339">MedicalRecord: MedicalRecord</text><ellipse cx="1877" cy="713.8281" fill="#000000" rx="3" ry="3" style="stroke:#000000;stroke-width:1.0;"/><text fill="#000000" font-family="sans-serif" font-size="11" lengthAdjust="spacing" textLength="92" x="1886" y="717.0386">signatory: Nurse</text><line style="stroke:#A80036;stroke-width:1.5;" x1="1867" x2="2062" y1="723.6328" y2="723.6328"/><!--MD5=[bf963651faa913c734e6109ff257fb0b]
class ExecutorsMedicalPrescription--><rect codeLine="145" fill="#FEFECE" filter="url(#fa54g3y93so0u)" height="124.8281" id="ExecutorsMedicalPrescription" style="stroke:#A80036;stroke-width:1.5;" width="249" x="375" y="843"/><ellipse cx="408" cy="859" fill="#ADD1B2" rx="11" ry="11" style="stroke:#A80036;stroke-width:1.0;"/><path d="M406.7969,859.875 L408.25,859.875 L408.25,859.9844 C408.25,860.3906 408.2813,860.5469 408.3594,860.7031 C408.5156,860.9531 408.7969,861.1094 409.0938,861.1094 C409.3438,861.1094 409.6094,860.9688 409.7656,860.75 C409.8906,860.5938 409.9219,860.4375 409.9219,859.9844 L409.9219,858.0625 C409.9219,857.9063 409.9219,857.8594 409.9063,857.7031 C409.8438,857.2344 409.5313,856.9219 409.0781,856.9219 C408.8281,856.9219 408.5625,857.0625 408.3906,857.2813 C408.2813,857.4531 408.25,857.6094 408.25,858.0625 L408.25,858.1875 L406.7969,858.1875 L406.7969,855.7813 L410.7813,855.7813 L410.7813,856.6406 C410.7813,857.0469 410.8125,857.2188 410.8906,857.375 C411.0625,857.625 411.3438,857.7813 411.625,857.7813 C411.8906,857.7813 412.1563,857.6406 412.3281,857.4219 C412.4375,857.25 412.4688,857.1094 412.4688,856.6406 L412.4688,854.0938 L404.8438,854.0938 C404.4063,854.0938 404.2813,854.1094 404.125,854.2031 C403.875,854.3594 403.7188,854.6563 403.7188,854.9375 C403.7188,855.2188 403.8594,855.4688 404.0781,855.6406 C404.2344,855.75 404.4219,855.7813 404.8438,855.7813 L405.0938,855.7813 L405.0938,862.2969 L404.8438,862.2969 C404.4375,862.2969 404.2813,862.3125 404.125,862.4219 C403.875,862.5938 403.7188,862.8594 403.7188,863.1563 C403.7188,863.4219 403.8594,863.6719 404.0781,863.8281 C404.2188,863.9531 404.4531,864 404.8438,864 L412.8438,864 L412.8438,861.4219 C412.8438,860.9844 412.8125,860.8438 412.7344,860.6875 C412.5625,860.4375 412.2813,860.2813 412,860.2813 C411.7344,860.2813 411.4688,860.3906 411.2969,860.6406 C411.1875,860.7969 411.1563,860.9375 411.1563,861.4219 L411.1563,862.2969 L406.7969,862.2969 L406.7969,859.875 Z " fill="#000000"/><text fill="#000000" font-family="sans-serif" font-size="12" lengthAdjust="spacing" textLength="177" x="426" y="863.1543">ExecutorsMedicalPrescription</text><line style="stroke:#A80036;stroke-width:1.5;" x1="376" x2="623" y1="875" y2="875"/><ellipse cx="386" cy="886" fill="#000000" rx="3" ry="3" style="stroke:#000000;stroke-width:1.0;"/><text fill="#000000" font-family="sans-serif" font-size="11" lengthAdjust="spacing" textLength="31" x="395" y="889.2104">id: Int</text><ellipse cx="386" cy="898.8047" fill="#000000" rx="3" ry="3" style="stroke:#000000;stroke-width:1.0;"/><text fill="#000000" font-family="sans-serif" font-size="11" lengthAdjust="spacing" textLength="141" x="395" y="902.0151">medicalPrescriptionId: Int</text><ellipse cx="386" cy="911.6094" fill="#000000" rx="3" ry="3" style="stroke:#000000;stroke-width:1.0;"/><text fill="#000000" font-family="sans-serif" font-size="11" lengthAdjust="spacing" textLength="82" x="395" y="914.8198">executorId: Int</text><ellipse cx="386" cy="924.4141" fill="#000000" rx="3" ry="3" style="stroke:#000000;stroke-width:1.0;"/><text fill="#000000" font-family="sans-serif" font-size="11" lengthAdjust="spacing" textLength="149" x="395" y="927.6245">executionDate: DateTime</text><ellipse cx="386" cy="937.2188" fill="#000000" rx="3" ry="3" style="stroke:#000000;stroke-width:1.0;"/><text fill="#000000" font-family="sans-serif" font-size="11" lengthAdjust="spacing" textLength="90" x="395" y="940.4292">Executor: Nurse</text><ellipse cx="386" cy="950.0234" fill="#000000" rx="3" ry="3" style="stroke:#000000;stroke-width:1.0;"/><text fill="#000000" font-family="sans-serif" font-size="11" lengthAdjust="spacing" textLength="223" x="395" y="953.2339">MedicalPrescription: MedicalPrescription</text><line style="stroke:#A80036;stroke-width:1.5;" x1="376" x2="623" y1="959.8281" y2="959.8281"/><!--MD5=[2c5a3c95ff381545d9ca50069ff1bab6]
class LinkResetEmail--><rect codeLine="154" fill="#FEFECE" filter="url(#fa54g3y93so0u)" height="124.8281" id="LinkResetEmail" style="stroke:#A80036;stroke-width:1.5;" width="127" x="1376" y="351.5"/><ellipse cx="1394.15" cy="367.5" fill="#ADD1B2" rx="11" ry="11" style="stroke:#A80036;stroke-width:1.0;"/><path d="M1392.9469,368.375 L1394.4,368.375 L1394.4,368.4844 C1394.4,368.8906 1394.4313,369.0469 1394.5094,369.2031 C1394.6656,369.4531 1394.9469,369.6094 1395.2438,369.6094 C1395.4938,369.6094 1395.7594,369.4688 1395.9156,369.25 C1396.0406,369.0938 1396.0719,368.9375 1396.0719,368.4844 L1396.0719,366.5625 C1396.0719,366.4063 1396.0719,366.3594 1396.0563,366.2031 C1395.9938,365.7344 1395.6813,365.4219 1395.2281,365.4219 C1394.9781,365.4219 1394.7125,365.5625 1394.5406,365.7813 C1394.4313,365.9531 1394.4,366.1094 1394.4,366.5625 L1394.4,366.6875 L1392.9469,366.6875 L1392.9469,364.2813 L1396.9313,364.2813 L1396.9313,365.1406 C1396.9313,365.5469 1396.9625,365.7188 1397.0406,365.875 C1397.2125,366.125 1397.4938,366.2813 1397.775,366.2813 C1398.0406,366.2813 1398.3063,366.1406 1398.4781,365.9219 C1398.5875,365.75 1398.6188,365.6094 1398.6188,365.1406 L1398.6188,362.5938 L1390.9938,362.5938 C1390.5563,362.5938 1390.4313,362.6094 1390.275,362.7031 C1390.025,362.8594 1389.8688,363.1563 1389.8688,363.4375 C1389.8688,363.7188 1390.0094,363.9688 1390.2281,364.1406 C1390.3844,364.25 1390.5719,364.2813 1390.9938,364.2813 L1391.2438,364.2813 L1391.2438,370.7969 L1390.9938,370.7969 C1390.5875,370.7969 1390.4313,370.8125 1390.275,370.9219 C1390.025,371.0938 1389.8688,371.3594 1389.8688,371.6563 C1389.8688,371.9219 1390.0094,372.1719 1390.2281,372.3281 C1390.3688,372.4531 1390.6031,372.5 1390.9938,372.5 L1398.9938,372.5 L1398.9938,369.9219 C1398.9938,369.4844 1398.9625,369.3438 1398.8844,369.1875 C1398.7125,368.9375 1398.4313,368.7813 1398.15,368.7813 C1397.8844,368.7813 1397.6188,368.8906 1397.4469,369.1406 C1397.3375,369.2969 1397.3063,369.4375 1397.3063,369.9219 L1397.3063,370.7969 L1392.9469,370.7969 L1392.9469,368.375 Z " fill="#000000"/><text fill="#000000" font-family="sans-serif" font-size="12" lengthAdjust="spacing" textLength="88" x="1408.85" y="371.6543">LinkResetEmail</text><line style="stroke:#A80036;stroke-width:1.5;" x1="1377" x2="1502" y1="383.5" y2="383.5"/><ellipse cx="1387" cy="394.5" fill="#000000" rx="3" ry="3" style="stroke:#000000;stroke-width:1.0;"/><text fill="#000000" font-family="sans-serif" font-size="11" lengthAdjust="spacing" textLength="31" x="1396" y="397.7104">id: Int</text><ellipse cx="1387" cy="407.3047" fill="#000000" rx="3" ry="3" style="stroke:#000000;stroke-width:1.0;"/><text fill="#000000" font-family="sans-serif" font-size="11" lengthAdjust="spacing" textLength="54" x="1396" y="410.5151">url: String</text><ellipse cx="1387" cy="420.1094" fill="#000000" rx="3" ry="3" style="stroke:#000000;stroke-width:1.0;"/><text fill="#000000" font-family="sans-serif" font-size="11" lengthAdjust="spacing" textLength="101" x="1396" y="423.3198">expire: DateTime</text><ellipse cx="1387" cy="432.9141" fill="#000000" rx="3" ry="3" style="stroke:#000000;stroke-width:1.0;"/><text fill="#000000" font-family="sans-serif" font-size="11" lengthAdjust="spacing" textLength="95" x="1396" y="436.1245">newEmail: String</text><ellipse cx="1387" cy="445.7188" fill="#000000" rx="3" ry="3" style="stroke:#000000;stroke-width:1.0;"/><text fill="#000000" font-family="sans-serif" font-size="11" lengthAdjust="spacing" textLength="59" x="1396" y="448.9292">User: User</text><ellipse cx="1387" cy="458.5234" fill="#000000" rx="3" ry="3" style="stroke:#000000;stroke-width:1.0;"/><text fill="#000000" font-family="sans-serif" font-size="11" lengthAdjust="spacing" textLength="56" x="1396" y="461.7339">userId: Int</text><line style="stroke:#A80036;stroke-width:1.5;" x1="1377" x2="1502" y1="468.3281" y2="468.3281"/><!--MD5=[712284f309a3aea3cb2e2a8a4f900076]
class LinkResetPassword--><rect codeLine="163" fill="#FEFECE" filter="url(#fa54g3y93so0u)" height="112.0234" id="LinkResetPassword" style="stroke:#A80036;stroke-width:1.5;" width="147" x="1538" y="358"/><ellipse cx="1553" cy="374" fill="#ADD1B2" rx="11" ry="11" style="stroke:#A80036;stroke-width:1.0;"/><path d="M1551.7969,374.875 L1553.25,374.875 L1553.25,374.9844 C1553.25,375.3906 1553.2813,375.5469 1553.3594,375.7031 C1553.5156,375.9531 1553.7969,376.1094 1554.0938,376.1094 C1554.3438,376.1094 1554.6094,375.9688 1554.7656,375.75 C1554.8906,375.5938 1554.9219,375.4375 1554.9219,374.9844 L1554.9219,373.0625 C1554.9219,372.9063 1554.9219,372.8594 1554.9063,372.7031 C1554.8438,372.2344 1554.5313,371.9219 1554.0781,371.9219 C1553.8281,371.9219 1553.5625,372.0625 1553.3906,372.2813 C1553.2813,372.4531 1553.25,372.6094 1553.25,373.0625 L1553.25,373.1875 L1551.7969,373.1875 L1551.7969,370.7813 L1555.7813,370.7813 L1555.7813,371.6406 C1555.7813,372.0469 1555.8125,372.2188 1555.8906,372.375 C1556.0625,372.625 1556.3438,372.7813 1556.625,372.7813 C1556.8906,372.7813 1557.1563,372.6406 1557.3281,372.4219 C1557.4375,372.25 1557.4688,372.1094 1557.4688,371.6406 L1557.4688,369.0938 L1549.8438,369.0938 C1549.4063,369.0938 1549.2813,369.1094 1549.125,369.2031 C1548.875,369.3594 1548.7188,369.6563 1548.7188,369.9375 C1548.7188,370.2188 1548.8594,370.4688 1549.0781,370.6406 C1549.2344,370.75 1549.4219,370.7813 1549.8438,370.7813 L1550.0938,370.7813 L1550.0938,377.2969 L1549.8438,377.2969 C1549.4375,377.2969 1549.2813,377.3125 1549.125,377.4219 C1548.875,377.5938 1548.7188,377.8594 1548.7188,378.1563 C1548.7188,378.4219 1548.8594,378.6719 1549.0781,378.8281 C1549.2188,378.9531 1549.4531,379 1549.8438,379 L1557.8438,379 L1557.8438,376.4219 C1557.8438,375.9844 1557.8125,375.8438 1557.7344,375.6875 C1557.5625,375.4375 1557.2813,375.2813 1557,375.2813 C1556.7344,375.2813 1556.4688,375.3906 1556.2969,375.6406 C1556.1875,375.7969 1556.1563,375.9375 1556.1563,376.4219 L1556.1563,377.2969 L1551.7969,377.2969 L1551.7969,374.875 Z " fill="#000000"/><text fill="#000000" font-family="sans-serif" font-size="12" lengthAdjust="spacing" textLength="115" x="1567" y="378.1543">LinkResetPassword</text><line style="stroke:#A80036;stroke-width:1.5;" x1="1539" x2="1684" y1="390" y2="390"/><ellipse cx="1549" cy="401" fill="#000000" rx="3" ry="3" style="stroke:#000000;stroke-width:1.0;"/><text fill="#000000" font-family="sans-serif" font-size="11" lengthAdjust="spacing" textLength="31" x="1558" y="404.2104">id: Int</text><ellipse cx="1549" cy="413.8047" fill="#000000" rx="3" ry="3" style="stroke:#000000;stroke-width:1.0;"/><text fill="#000000" font-family="sans-serif" font-size="11" lengthAdjust="spacing" textLength="54" x="1558" y="417.0151">url: String</text><ellipse cx="1549" cy="426.6094" fill="#000000" rx="3" ry="3" style="stroke:#000000;stroke-width:1.0;"/><text fill="#000000" font-family="sans-serif" font-size="11" lengthAdjust="spacing" textLength="101" x="1558" y="429.8198">expire: DateTime</text><ellipse cx="1549" cy="439.4141" fill="#000000" rx="3" ry="3" style="stroke:#000000;stroke-width:1.0;"/><text fill="#000000" font-family="sans-serif" font-size="11" lengthAdjust="spacing" textLength="59" x="1558" y="442.6245">User: User</text><ellipse cx="1549" cy="452.2188" fill="#000000" rx="3" ry="3" style="stroke:#000000;stroke-width:1.0;"/><text fill="#000000" font-family="sans-serif" font-size="11" lengthAdjust="spacing" textLength="56" x="1558" y="455.4292">userId: Int</text><line style="stroke:#A80036;stroke-width:1.5;" x1="1539" x2="1684" y1="462.0234" y2="462.0234"/><!--MD5=[67141e6eb3ba199f7c4756941637724e]
link User to Group--><path codeLine="171" d="M565.936,100 C565.936,100 240.667,100 240.667,100 C240.667,100 240.667,349.863 240.667,349.863 " fill="none" id="User-Group" style="stroke:#A80036;stroke-width:1.0;stroke-dasharray:7.0,7.0;"/><line style="stroke:#A80036;stroke-width:1.0;" x1="240.667" x2="240.667" y1="346.863" y2="357.863"/><ellipse cx="240.667" cy="346.863" rx="4" ry="4" style="stroke:#A80036;stroke-width:1.0;fill:none;"/><line style="stroke:#A80036;stroke-width:1.0;fill:none;" x1="244.667" x2="236.667" y1="353.863" y2="353.863"/><line style="stroke:#A80036;stroke-width:1.0;fill:none;" x1="565.936" x2="573.936" y1="100" y2="94"/><line style="stroke:#A80036;stroke-width:1.0;fill:none;" x1="565.936" x2="573.936" y1="100" y2="106"/><line style="stroke:#A80036;stroke-width:1.0;fill:none;" x1="565.936" x2="573.936" y1="100" y2="100"/><line style="stroke:#A80036;stroke-width:1.0;fill:none;" x1="563.936" x2="563.936" y1="96" y2="104"/><!--MD5=[67141e6eb3ba199f7c4756941637724e]
link User to Group--><path codeLine="173" d="M565.81,193 C565.81,193 290.333,193 290.333,193 C290.333,193 290.333,349.947 290.333,349.947 " fill="none" id="User-Group-1" style="stroke:#A80036;stroke-width:1.0;stroke-dasharray:7.0,7.0;"/><line style="stroke:#A80036;stroke-width:1.0;" x1="290.333" x2="290.333" y1="346.947" y2="357.947"/><ellipse cx="290.333" cy="346.947" rx="4" ry="4" style="stroke:#A80036;stroke-width:1.0;fill:none;"/><line style="stroke:#A80036;stroke-width:1.0;fill:none;" x1="294.333" x2="286.333" y1="353.947" y2="353.947"/><line style="stroke:#A80036;stroke-width:1.0;fill:none;" x1="565.81" x2="573.81" y1="193" y2="187"/><line style="stroke:#A80036;stroke-width:1.0;fill:none;" x1="565.81" x2="573.81" y1="193" y2="199"/><line style="stroke:#A80036;stroke-width:1.0;fill:none;" x1="565.81" x2="573.81" y1="193" y2="193"/><line style="stroke:#A80036;stroke-width:1.0;fill:none;" x1="563.81" x2="563.81" y1="189" y2="197"/><!--MD5=[b6d3dd3a27d395b097e9e19547bf02f2]
link User to Jwt--><path codeLine="172" d="M590.5,293.118 C590.5,293.118 590.5,352 590.5,352 C590.5,352 164.058,352 164.058,352 " fill="none" id="User-Jwt" style="stroke:#A80036;stroke-width:1.0;stroke-dasharray:7.0,7.0;"/><line style="stroke:#A80036;stroke-width:1.0;" x1="167.058" x2="156.058" y1="352" y2="352"/><ellipse cx="167.058" cy="352" rx="4" ry="4" style="stroke:#A80036;stroke-width:1.0;fill:none;"/><line style="stroke:#A80036;stroke-width:1.0;fill:none;" x1="160.058" x2="160.058" y1="356" y2="348"/><line style="stroke:#A80036;stroke-width:1.0;fill:none;" x1="586.5" x2="594.5" y1="289.118" y2="289.118"/><line style="stroke:#A80036;stroke-width:1.0;fill:none;" x1="586.5" x2="594.5" y1="292.118" y2="292.118"/><line style="stroke:#A80036;stroke-width:1.0;fill:none;" x1="590.5" x2="590.5" y1="293.118" y2="285.118"/><!--MD5=[5499e531898646cba9793dbd8f48ef3a]
link Patient to MedicalRecord--><path codeLine="174" d="M1814.67,261.076 C1814.67,261.076 1814.67,336.834 1814.67,336.834 " fill="none" id="Patient-MedicalRecord" style="stroke:#A80036;stroke-width:1.0;stroke-dasharray:7.0,7.0;"/><line style="stroke:#A80036;stroke-width:1.0;" x1="1814.67" x2="1814.67" y1="333.834" y2="344.834"/><ellipse cx="1814.67" cy="333.834" rx="4" ry="4" style="stroke:#A80036;stroke-width:1.0;fill:none;"/><line style="stroke:#A80036;stroke-width:1.0;fill:none;" x1="1818.67" x2="1810.67" y1="340.834" y2="340.834"/><line style="stroke:#A80036;stroke-width:1.0;fill:none;" x1="1810.67" x2="1818.67" y1="257.076" y2="257.076"/><line style="stroke:#A80036;stroke-width:1.0;fill:none;" x1="1810.67" x2="1818.67" y1="260.076" y2="260.076"/><line style="stroke:#A80036;stroke-width:1.0;fill:none;" x1="1814.67" x2="1814.67" y1="261.076" y2="253.076"/><!--MD5=[5499e531898646cba9793dbd8f48ef3a]
link Patient to MedicalRecord--><path codeLine="178" d="M1882.33,261.076 C1882.33,261.076 1882.33,336.834 1882.33,336.834 " fill="none" id="Patient-MedicalRecord-1" style="stroke:#A80036;stroke-width:1.0;stroke-dasharray:7.0,7.0;"/><line style="stroke:#A80036;stroke-width:1.0;" x1="1882.33" x2="1882.33" y1="333.834" y2="344.834"/><ellipse cx="1882.33" cy="333.834" rx="4" ry="4" style="stroke:#A80036;stroke-width:1.0;fill:none;"/><line style="stroke:#A80036;stroke-width:1.0;fill:none;" x1="1886.33" x2="1878.33" y1="340.834" y2="340.834"/><line style="stroke:#A80036;stroke-width:1.0;fill:none;" x1="1878.33" x2="1886.33" y1="257.076" y2="257.076"/><line style="stroke:#A80036;stroke-width:1.0;fill:none;" x1="1878.33" x2="1886.33" y1="260.076" y2="260.076"/><line style="stroke:#A80036;stroke-width:1.0;fill:none;" x1="1882.33" x2="1882.33" y1="261.076" y2="253.076"/><!--MD5=[368f8f536ed01aad29fd9302b9bb6d68]
link User to Doctor--><path codeLine="175" d="M607,293.102 C607,293.102 607,349.776 607,349.776 " fill="none" id="User-Doctor" style="stroke:#A80036;stroke-width:1.0;stroke-dasharray:7.0,7.0;"/><line style="stroke:#A80036;stroke-width:1.0;" x1="607" x2="607" y1="346.776" y2="357.776"/><ellipse cx="607" cy="346.776" rx="4" ry="4" style="stroke:#A80036;stroke-width:1.0;fill:none;"/><line style="stroke:#A80036;stroke-width:1.0;fill:none;" x1="611" x2="603" y1="353.776" y2="353.776"/><line style="stroke:#A80036;stroke-width:1.0;fill:none;" x1="603" x2="611" y1="289.102" y2="289.102"/><line style="stroke:#A80036;stroke-width:1.0;fill:none;" x1="603" x2="611" y1="292.102" y2="292.102"/><line style="stroke:#A80036;stroke-width:1.0;fill:none;" x1="607" x2="607" y1="293.102" y2="285.102"/><!--MD5=[1e108d242f2159a04bb04a1d1378df89]
link User to Adm--><path codeLine="176" d="M700.5,293.102 C700.5,293.102 700.5,368.805 700.5,368.805 " fill="none" id="User-Adm" style="stroke:#A80036;stroke-width:1.0;stroke-dasharray:7.0,7.0;"/><line style="stroke:#A80036;stroke-width:1.0;" x1="700.5" x2="700.5" y1="365.805" y2="376.805"/><ellipse cx="700.5" cy="365.805" rx="4" ry="4" style="stroke:#A80036;stroke-width:1.0;fill:none;"/><line style="stroke:#A80036;stroke-width:1.0;fill:none;" x1="704.5" x2="696.5" y1="372.805" y2="372.805"/><line style="stroke:#A80036;stroke-width:1.0;fill:none;" x1="696.5" x2="704.5" y1="289.102" y2="289.102"/><line style="stroke:#A80036;stroke-width:1.0;fill:none;" x1="696.5" x2="704.5" y1="292.102" y2="292.102"/><line style="stroke:#A80036;stroke-width:1.0;fill:none;" x1="700.5" x2="700.5" y1="293.102" y2="285.102"/><!--MD5=[9128ef9680314361adbc1f4cf193280d]
link Doctor to MedicalPrescription--><path codeLine="177" d="M499.5,478.191 C499.5,478.191 499.5,534.912 499.5,534.912 " fill="none" id="Doctor-MedicalPrescription" style="stroke:#A80036;stroke-width:1.0;stroke-dasharray:7.0,7.0;"/><line style="stroke:#A80036;stroke-width:1.0;" x1="499.5" x2="505.5" y1="534.912" y2="542.912"/><line style="stroke:#A80036;stroke-width:1.0;" x1="499.5" x2="493.5" y1="534.912" y2="542.912"/><line style="stroke:#A80036;stroke-width:1.0;" x1="499.5" x2="499.5" y1="534.912" y2="542.912"/><line style="stroke:#A80036;stroke-width:1.0;" x1="503.5" x2="495.5" y1="532.912" y2="532.912"/><line style="stroke:#A80036;stroke-width:1.0;" x1="495.5" x2="503.5" y1="474.191" y2="474.191"/><line style="stroke:#A80036;stroke-width:1.0;" x1="495.5" x2="503.5" y1="477.191" y2="477.191"/><line style="stroke:#A80036;stroke-width:1.0;" x1="499.5" x2="499.5" y1="478.191" y2="470.191"/><!--MD5=[e15fb0f5fa1df4ddc09bb30ea4f267f0]
link User to TeamReport--><path codeLine="179" d="M802.5,293.102 C802.5,293.102 802.5,336.935 802.5,336.935 " fill="none" id="User-TeamReport" style="stroke:#A80036;stroke-width:1.0;stroke-dasharray:7.0,7.0;"/><line style="stroke:#A80036;stroke-width:1.0;" x1="802.5" x2="808.5" y1="336.935" y2="344.935"/><line style="stroke:#A80036;stroke-width:1.0;" x1="802.5" x2="796.5" y1="336.935" y2="344.935"/><line style="stroke:#A80036;stroke-width:1.0;" x1="802.5" x2="802.5" y1="336.935" y2="344.935"/><line style="stroke:#A80036;stroke-width:1.0;" x1="806.5" x2="798.5" y1="334.935" y2="334.935"/><line style="stroke:#A80036;stroke-width:1.0;" x1="798.5" x2="806.5" y1="289.102" y2="289.102"/><line style="stroke:#A80036;stroke-width:1.0;" x1="798.5" x2="806.5" y1="292.102" y2="292.102"/><line style="stroke:#A80036;stroke-width:1.0;" x1="802.5" x2="802.5" y1="293.102" y2="285.102"/><!--MD5=[e2f390ff4d92bb292ca9911c4fa65422]
link User to Nurse--><path codeLine="180" d="M835.167,277 C835.167,277 1175.5,277 1175.5,277 C1175.5,277 1175.5,336.697 1175.5,336.697 " fill="none" id="User-Nurse" style="stroke:#A80036;stroke-width:1.0;stroke-dasharray:7.0,7.0;"/><line style="stroke:#A80036;stroke-width:1.0;" x1="1175.5" x2="1175.5" y1="333.697" y2="344.697"/><ellipse cx="1175.5" cy="333.697" rx="4" ry="4" style="stroke:#A80036;stroke-width:1.0;fill:none;"/><line style="stroke:#A80036;stroke-width:1.0;fill:none;" x1="1179.5" x2="1171.5" y1="340.697" y2="340.697"/><line style="stroke:#A80036;stroke-width:1.0;fill:none;" x1="831.167" x2="831.167" y1="281" y2="273"/><line style="stroke:#A80036;stroke-width:1.0;fill:none;" x1="834.167" x2="834.167" y1="281" y2="273"/><line style="stroke:#A80036;stroke-width:1.0;fill:none;" x1="835.167" x2="827.167" y1="277" y2="277"/><!--MD5=[7406c410648326ab31d5abb90736e2a3]
link MedicalRecord to NursePrescription--><path codeLine="181" d="M1775.5,491.03 C1775.5,491.03 1775.5,547.536 1775.5,547.536 " fill="none" id="MedicalRecord-NursePrescription" style="stroke:#A80036;stroke-width:1.0;stroke-dasharray:7.0,7.0;"/><line style="stroke:#A80036;stroke-width:1.0;" x1="1775.5" x2="1781.5" y1="547.536" y2="555.536"/><line style="stroke:#A80036;stroke-width:1.0;" x1="1775.5" x2="1769.5" y1="547.536" y2="555.536"/><line style="stroke:#A80036;stroke-width:1.0;" x1="1775.5" x2="1775.5" y1="547.536" y2="555.536"/><line style="stroke:#A80036;stroke-width:1.0;" x1="1779.5" x2="1771.5" y1="545.536" y2="545.536"/><line style="stroke:#A80036;stroke-width:1.0;" x1="1771.5" x2="1779.5" y1="487.03" y2="487.03"/><line style="stroke:#A80036;stroke-width:1.0;" x1="1771.5" x2="1779.5" y1="490.03" y2="490.03"/><line style="stroke:#A80036;stroke-width:1.0;" x1="1775.5" x2="1775.5" y1="491.03" y2="483.03"/><!--MD5=[cd3fcb776391f88b4419779acf245183]
link MedicalRecord to NurseReport--><path codeLine="182" d="M1921.5,491.03 C1921.5,491.03 1921.5,585.836 1921.5,585.836 " fill="none" id="MedicalRecord-NurseReport" style="stroke:#A80036;stroke-width:1.0;stroke-dasharray:7.0,7.0;"/><line style="stroke:#A80036;stroke-width:1.0;" x1="1921.5" x2="1927.5" y1="585.836" y2="593.836"/><line style="stroke:#A80036;stroke-width:1.0;" x1="1921.5" x2="1915.5" y1="585.836" y2="593.836"/><line style="stroke:#A80036;stroke-width:1.0;" x1="1921.5" x2="1921.5" y1="585.836" y2="593.836"/><line style="stroke:#A80036;stroke-width:1.0;" x1="1925.5" x2="1917.5" y1="583.836" y2="583.836"/><line style="stroke:#A80036;stroke-width:1.0;" x1="1917.5" x2="1925.5" y1="487.03" y2="487.03"/><line style="stroke:#A80036;stroke-width:1.0;" x1="1917.5" x2="1925.5" y1="490.03" y2="490.03"/><line style="stroke:#A80036;stroke-width:1.0;" x1="1921.5" x2="1921.5" y1="491.03" y2="483.03"/><!--MD5=[f3d6c2e42e51a5dfe566d3dd43151177]
link MedicalPrescription to ExecutorsMedicalPrescription--><path codeLine="183" d="M499.5,791.184 C499.5,791.184 499.5,834.739 499.5,834.739 " fill="none" id="MedicalPrescription-ExecutorsMedicalPrescription" style="stroke:#A80036;stroke-width:1.0;stroke-dasharray:7.0,7.0;"/><line style="stroke:#A80036;stroke-width:1.0;" x1="499.5" x2="505.5" y1="834.739" y2="842.739"/><line style="stroke:#A80036;stroke-width:1.0;" x1="499.5" x2="493.5" y1="834.739" y2="842.739"/><line style="stroke:#A80036;stroke-width:1.0;" x1="499.5" x2="499.5" y1="834.739" y2="842.739"/><line style="stroke:#A80036;stroke-width:1.0;" x1="503.5" x2="495.5" y1="832.739" y2="832.739"/><line style="stroke:#A80036;stroke-width:1.0;" x1="495.5" x2="503.5" y1="787.184" y2="787.184"/><line style="stroke:#A80036;stroke-width:1.0;" x1="495.5" x2="503.5" y1="790.184" y2="790.184"/><line style="stroke:#A80036;stroke-width:1.0;" x1="499.5" x2="499.5" y1="791.184" y2="783.184"/><!--MD5=[ea0e985d22d9bd3ab93e4bc4a749f055]
link User to LinkResetEmail--><path codeLine="184" d="M835.119,269 C835.119,269 1439.5,269 1439.5,269 C1439.5,269 1439.5,343.244 1439.5,343.244 " fill="none" id="User-LinkResetEmail" style="stroke:#A80036;stroke-width:1.0;stroke-dasharray:7.0,7.0;"/><line style="stroke:#A80036;stroke-width:1.0;" x1="1439.5" x2="1439.5" y1="340.244" y2="351.244"/><ellipse cx="1439.5" cy="340.244" rx="4" ry="4" style="stroke:#A80036;stroke-width:1.0;fill:none;"/><line style="stroke:#A80036;stroke-width:1.0;fill:none;" x1="1443.5" x2="1435.5" y1="347.244" y2="347.244"/><line style="stroke:#A80036;stroke-width:1.0;fill:none;" x1="831.119" x2="831.119" y1="273" y2="265"/><line style="stroke:#A80036;stroke-width:1.0;fill:none;" x1="834.119" x2="834.119" y1="273" y2="265"/><line style="stroke:#A80036;stroke-width:1.0;fill:none;" x1="835.119" x2="827.119" y1="269" y2="269"/><!--MD5=[8795ef00169a255482fea4ef1eba63b3]
link User to LinkResetPassword--><path codeLine="185" d="M835.171,261 C835.171,261 1611.5,261 1611.5,261 C1611.5,261 1611.5,349.897 1611.5,349.897 " fill="none" id="User-LinkResetPassword" style="stroke:#A80036;stroke-width:1.0;stroke-dasharray:7.0,7.0;"/><line style="stroke:#A80036;stroke-width:1.0;" x1="1611.5" x2="1611.5" y1="346.897" y2="357.897"/><ellipse cx="1611.5" cy="346.897" rx="4" ry="4" style="stroke:#A80036;stroke-width:1.0;fill:none;"/><line style="stroke:#A80036;stroke-width:1.0;fill:none;" x1="1615.5" x2="1607.5" y1="353.897" y2="353.897"/><line style="stroke:#A80036;stroke-width:1.0;fill:none;" x1="831.171" x2="831.171" y1="265" y2="257"/><line style="stroke:#A80036;stroke-width:1.0;fill:none;" x1="834.171" x2="834.171" y1="265" y2="257"/><line style="stroke:#A80036;stroke-width:1.0;fill:none;" x1="835.171" x2="827.171" y1="261" y2="261"/><!--MD5=[46a66a27723d255a3eaaccc056af168f]
@startuml
skinparam linetype ortho

entity User {
  * id: Int
  * email: String
  * password: String
  * createdAt: DateTime
  * updatedAt: DateTime
  * active: Boolean
  groupId: Int?
  phone: String?
  * gender: String
  * name: String
  Groups: Group?
  Adm: Adm?
  Doctor: Doctor?
  Jwts: Jwt?
  Nurse: Nurse?
  * TeamReport: TeamReport[]
  LinkResetEmail: LinkResetEmail?
  LinkResetPassword: LinkResetPassword?
}

entity Jwt {
  * id: Int
  * token: String
  * expire: DateTime
  * idUser: Int
  * createdAt: DateTime
  * updatedAt: DateTime
  * User: User
}

entity Group {
  * id: Int
  * createdAt: DateTime
  * updatedAt: DateTime
  * name: String
  * User: User[]
}

entity Patient {
  * id: Int
  * name: String
  * lastName: String
  addressNumber: String?
  cep: String?
  * birthday: DateTime
  phone: String?
  healthInsurance: String?
  * cpf: String
  * rg: String
  * gender: String
  complement: String?
  MedicalRecord: MedicalRecord?
}

entity Doctor {
  * crm: String
  * area: String
  * userId: Int
  * user: User
  * MedicalPrescriber: MedicalPrescription[]
}

entity Adm {
  * userId: Int
  * user: User
}

entity MedicalPrescription {
  * id: Int
  * drug: String
  * drugDosage: String
  * drugWay: String
  * administrationInterval: String
  * prescriptionDate: DateTime
  * realized: Boolean
  obs: String?
  * medicalRecordId: Int
  * prescriberId: Int
  * administrationCount: Int
  * MedicalRecord: MedicalRecord
  * Prescriber: Doctor
  * Executors: ExecutorsMedicalPrescription[]
  * canceled: Boolean
}

entity MedicalRecord {
  * id: Int
  * patientId: Int
  * patient: Patient
  * MedicalPrescription: MedicalPrescription[]
  * NursePrescription: NursePrescription[]
  * NurseReport: NurseReport[]
  * TeamReport: TeamReport[]
}

entity TeamReport {
  * id: Int
  * reportDate: DateTime
  * report: String
  * userId: Int
  * medicalRecordId: Int
  * MedicalRecord: MedicalRecord
  * signatory: User
}

entity Nurse {
  * coren: String
  * userId: Int
  * user: User
  * NurseExecutorMedical: ExecutorsMedicalPrescription[]
  * NurseExecutor: NursePrescription[]
  * NursePrescriber: NursePrescription[]
  * NurseReport: NurseReport[]
}

entity NursePrescription {
  * id: Int
  * prescription: String
  * prescriptionDate: DateTime
  * realized: Boolean
  obs: String?
  executionDate: DateTime?
  * medicalRecordId: Int
  * prescriberId: Int
  executorId: Int?
  * canceled: Boolean
  Executor: Nurse?
  * MedicalRecord: MedicalRecord
  * Prescriber: Nurse
}

entity NurseReport {
  * id: Int
  * reportDate: DateTime
  * report: String
  * medicalRecordId: Int
  * signatoryId: Int
  * MedicalRecord: MedicalRecord
  * signatory: Nurse
}

entity ExecutorsMedicalPrescription {
  * id: Int
  * medicalPrescriptionId: Int
  * executorId: Int
  * executionDate: DateTime
  * Executor: Nurse
  * MedicalPrescription: MedicalPrescription
}

entity LinkResetEmail {
  * id: Int
  * url: String
  * expire: DateTime
  * newEmail: String
  * User: User
  * userId: Int
}

entity LinkResetPassword {
  * id: Int
  * url: String
  * expire: DateTime
  * User: User
  * userId: Int
}

User }|..o| Group
User ||..o| Jwt
User }|..o| Group
Patient ||..o| MedicalRecord
User ||..o| Doctor
User ||..o| Adm
Doctor ||..|{ MedicalPrescription
Patient ||..o| MedicalRecord
User ||..|{ TeamReport
User ||..o| Nurse
MedicalRecord ||..|{ NursePrescription
MedicalRecord ||..|{ NurseReport
MedicalPrescription ||..|{ ExecutorsMedicalPrescription
User ||..o| LinkResetEmail
User ||..o| LinkResetPassword
@enduml

PlantUML version 1.2021.15beta3(Unknown compile time)
(GPL source distribution)
Java Runtime: Java(TM) SE Runtime Environment
JVM: Java HotSpot(TM) 64-Bit Server VM
Default Encoding: UTF-8
Language: en
Country: US
--></g></svg>