<?xml version="1.0" encoding="UTF-8" standalone="no"?><svg xmlns="http://www.w3.org/2000/svg" xmlns:xlink="http://www.w3.org/1999/xlink" contentScriptType="application/ecmascript" contentStyleType="text/css" height="956px" preserveAspectRatio="none" style="width:1895px;height:956px;background:#FFFFFF;" version="1.1" viewBox="0 0 1895 956" width="1895px" zoomAndPan="magnify"><defs><filter height="300%" id="fl2g9fxtmjgal" width="300%" x="-1" y="-1"><feGaussianBlur result="blurOut" stdDeviation="2.0"/><feColorMatrix in="blurOut" result="blurOut2" type="matrix" values="0 0 0 0 0 0 0 0 0 0 0 0 0 0 0 0 0 0 .4 0"/><feOffset dx="4.0" dy="4.0" in="blurOut2" result="blurOut3"/><feBlend in="SourceGraphic" in2="blurOut3" mode="normal"/></filter></defs><g><!--MD5=[3fd616f346a44cd59a91eb10b19e157c]
class User--><rect codeLine="3" fill="#FEFECE" filter="url(#fl2g9fxtmjgal)" height="265.6797" id="User" style="stroke:#A80036;stroke-width:1.5;" width="211" x="494" y="7"/><ellipse cx="580.75" cy="23" fill="#ADD1B2" rx="11" ry="11" style="stroke:#A80036;stroke-width:1.0;"/><path d="M579.5469,23.875 L581,23.875 L581,23.9844 C581,24.3906 581.0313,24.5469 581.1094,24.7031 C581.2656,24.9531 581.5469,25.1094 581.8438,25.1094 C582.0938,25.1094 582.3594,24.9688 582.5156,24.75 C582.6406,24.5938 582.6719,24.4375 582.6719,23.9844 L582.6719,22.0625 C582.6719,21.9063 582.6719,21.8594 582.6563,21.7031 C582.5938,21.2344 582.2813,20.9219 581.8281,20.9219 C581.5781,20.9219 581.3125,21.0625 581.1406,21.2813 C581.0313,21.4531 581,21.6094 581,22.0625 L581,22.1875 L579.5469,22.1875 L579.5469,19.7813 L583.5313,19.7813 L583.5313,20.6406 C583.5313,21.0469 583.5625,21.2188 583.6406,21.375 C583.8125,21.625 584.0938,21.7813 584.375,21.7813 C584.6406,21.7813 584.9063,21.6406 585.0781,21.4219 C585.1875,21.25 585.2188,21.1094 585.2188,20.6406 L585.2188,18.0938 L577.5938,18.0938 C577.1563,18.0938 577.0313,18.1094 576.875,18.2031 C576.625,18.3594 576.4688,18.6563 576.4688,18.9375 C576.4688,19.2188 576.6094,19.4688 576.8281,19.6406 C576.9844,19.75 577.1719,19.7813 577.5938,19.7813 L577.8438,19.7813 L577.8438,26.2969 L577.5938,26.2969 C577.1875,26.2969 577.0313,26.3125 576.875,26.4219 C576.625,26.5938 576.4688,26.8594 576.4688,27.1563 C576.4688,27.4219 576.6094,27.6719 576.8281,27.8281 C576.9688,27.9531 577.2031,28 577.5938,28 L585.5938,28 L585.5938,25.4219 C585.5938,24.9844 585.5625,24.8438 585.4844,24.6875 C585.3125,24.4375 585.0313,24.2813 584.75,24.2813 C584.4844,24.2813 584.2188,24.3906 584.0469,24.6406 C583.9375,24.7969 583.9063,24.9375 583.9063,25.4219 L583.9063,26.2969 L579.5469,26.2969 L579.5469,23.875 Z " fill="#000000"/><text fill="#000000" font-family="sans-serif" font-size="12" lengthAdjust="spacing" textLength="29" x="601.25" y="27.1543">User</text><line style="stroke:#A80036;stroke-width:1.5;" x1="495" x2="704" y1="39" y2="39"/><ellipse cx="505" cy="50" fill="#000000" rx="3" ry="3" style="stroke:#000000;stroke-width:1.0;"/><text fill="#000000" font-family="sans-serif" font-size="11" lengthAdjust="spacing" textLength="31" x="514" y="53.2104">id: Int</text><ellipse cx="505" cy="62.8047" fill="#000000" rx="3" ry="3" style="stroke:#000000;stroke-width:1.0;"/><text fill="#000000" font-family="sans-serif" font-size="11" lengthAdjust="spacing" textLength="72" x="514" y="66.0151">email: String</text><ellipse cx="505" cy="75.6094" fill="#000000" rx="3" ry="3" style="stroke:#000000;stroke-width:1.0;"/><text fill="#000000" font-family="sans-serif" font-size="11" lengthAdjust="spacing" textLength="93" x="514" y="78.8198">password: String</text><ellipse cx="505" cy="88.4141" fill="#000000" rx="3" ry="3" style="stroke:#000000;stroke-width:1.0;"/><text fill="#000000" font-family="sans-serif" font-size="11" lengthAdjust="spacing" textLength="120" x="514" y="91.6245">createdAt: DateTime</text><ellipse cx="505" cy="101.2188" fill="#000000" rx="3" ry="3" style="stroke:#000000;stroke-width:1.0;"/><text fill="#000000" font-family="sans-serif" font-size="11" lengthAdjust="spacing" textLength="123" x="514" y="104.4292">updatedAt: DateTime</text><ellipse cx="505" cy="114.0234" fill="#000000" rx="3" ry="3" style="stroke:#000000;stroke-width:1.0;"/><text fill="#000000" font-family="sans-serif" font-size="11" lengthAdjust="spacing" textLength="89" x="514" y="117.2339">active: Boolean</text><text fill="#000000" font-family="sans-serif" font-size="11" lengthAdjust="spacing" textLength="69" x="514" y="130.0386">groupId: Int?</text><text fill="#000000" font-family="sans-serif" font-size="11" lengthAdjust="spacing" textLength="82" x="514" y="142.8433">phone: String?</text><ellipse cx="505" cy="152.4375" fill="#000000" rx="3" ry="3" style="stroke:#000000;stroke-width:1.0;"/><text fill="#000000" font-family="sans-serif" font-size="11" lengthAdjust="spacing" textLength="81" x="514" y="155.6479">gender: String</text><ellipse cx="505" cy="165.2422" fill="#000000" rx="3" ry="3" style="stroke:#000000;stroke-width:1.0;"/><text fill="#000000" font-family="sans-serif" font-size="11" lengthAdjust="spacing" textLength="73" x="514" y="168.4526">name: String</text><text fill="#000000" font-family="sans-serif" font-size="11" lengthAdjust="spacing" textLength="87" x="514" y="181.2573">Groups: Group?</text><text fill="#000000" font-family="sans-serif" font-size="11" lengthAdjust="spacing" textLength="65" x="514" y="194.062">Adm: Adm?</text><text fill="#000000" font-family="sans-serif" font-size="11" lengthAdjust="spacing" textLength="87" x="514" y="206.8667">Doctor: Doctor?</text><text fill="#000000" font-family="sans-serif" font-size="11" lengthAdjust="spacing" textLength="51" x="514" y="219.6714">Jwts: Jwt?</text><text fill="#000000" font-family="sans-serif" font-size="11" lengthAdjust="spacing" textLength="79" x="514" y="232.4761">Nurse: Nurse?</text><ellipse cx="505" cy="242.0703" fill="#000000" rx="3" ry="3" style="stroke:#000000;stroke-width:1.0;"/><text fill="#000000" font-family="sans-serif" font-size="11" lengthAdjust="spacing" textLength="155" x="514" y="245.2808">TeamReport: TeamReport[]</text><text fill="#000000" font-family="sans-serif" font-size="11" lengthAdjust="spacing" textLength="185" x="514" y="258.0854">LinkResetEmail: LinkResetEmail?</text><line style="stroke:#A80036;stroke-width:1.5;" x1="495" x2="704" y1="264.6797" y2="264.6797"/><!--MD5=[8d0aa4c87893388269c540d0d03eb533]
class Jwt--><rect codeLine="23" fill="#FEFECE" filter="url(#fl2g9fxtmjgal)" height="137.6328" id="Jwt" style="stroke:#A80036;stroke-width:1.5;" width="149" x="7" y="333"/><ellipse cx="68.25" cy="349" fill="#ADD1B2" rx="11" ry="11" style="stroke:#A80036;stroke-width:1.0;"/><path d="M67.0469,349.875 L68.5,349.875 L68.5,349.9844 C68.5,350.3906 68.5313,350.5469 68.6094,350.7031 C68.7656,350.9531 69.0469,351.1094 69.3438,351.1094 C69.5938,351.1094 69.8594,350.9688 70.0156,350.75 C70.1406,350.5938 70.1719,350.4375 70.1719,349.9844 L70.1719,348.0625 C70.1719,347.9063 70.1719,347.8594 70.1563,347.7031 C70.0938,347.2344 69.7813,346.9219 69.3281,346.9219 C69.0781,346.9219 68.8125,347.0625 68.6406,347.2813 C68.5313,347.4531 68.5,347.6094 68.5,348.0625 L68.5,348.1875 L67.0469,348.1875 L67.0469,345.7813 L71.0313,345.7813 L71.0313,346.6406 C71.0313,347.0469 71.0625,347.2188 71.1406,347.375 C71.3125,347.625 71.5938,347.7813 71.875,347.7813 C72.1406,347.7813 72.4063,347.6406 72.5781,347.4219 C72.6875,347.25 72.7188,347.1094 72.7188,346.6406 L72.7188,344.0938 L65.0938,344.0938 C64.6563,344.0938 64.5313,344.1094 64.375,344.2031 C64.125,344.3594 63.9688,344.6563 63.9688,344.9375 C63.9688,345.2188 64.1094,345.4688 64.3281,345.6406 C64.4844,345.75 64.6719,345.7813 65.0938,345.7813 L65.3438,345.7813 L65.3438,352.2969 L65.0938,352.2969 C64.6875,352.2969 64.5313,352.3125 64.375,352.4219 C64.125,352.5938 63.9688,352.8594 63.9688,353.1563 C63.9688,353.4219 64.1094,353.6719 64.3281,353.8281 C64.4688,353.9531 64.7031,354 65.0938,354 L73.0938,354 L73.0938,351.4219 C73.0938,350.9844 73.0625,350.8438 72.9844,350.6875 C72.8125,350.4375 72.5313,350.2813 72.25,350.2813 C71.9844,350.2813 71.7188,350.3906 71.5469,350.6406 C71.4375,350.7969 71.4063,350.9375 71.4063,351.4219 L71.4063,352.2969 L67.0469,352.2969 L67.0469,349.875 Z " fill="#000000"/><text fill="#000000" font-family="sans-serif" font-size="12" lengthAdjust="spacing" textLength="18" x="88.75" y="353.1543">Jwt</text><line style="stroke:#A80036;stroke-width:1.5;" x1="8" x2="155" y1="365" y2="365"/><ellipse cx="18" cy="376" fill="#000000" rx="3" ry="3" style="stroke:#000000;stroke-width:1.0;"/><text fill="#000000" font-family="sans-serif" font-size="11" lengthAdjust="spacing" textLength="31" x="27" y="379.2104">id: Int</text><ellipse cx="18" cy="388.8047" fill="#000000" rx="3" ry="3" style="stroke:#000000;stroke-width:1.0;"/><text fill="#000000" font-family="sans-serif" font-size="11" lengthAdjust="spacing" textLength="72" x="27" y="392.0151">token: String</text><ellipse cx="18" cy="401.6094" fill="#000000" rx="3" ry="3" style="stroke:#000000;stroke-width:1.0;"/><text fill="#000000" font-family="sans-serif" font-size="11" lengthAdjust="spacing" textLength="101" x="27" y="404.8198">expire: DateTime</text><ellipse cx="18" cy="414.4141" fill="#000000" rx="3" ry="3" style="stroke:#000000;stroke-width:1.0;"/><text fill="#000000" font-family="sans-serif" font-size="11" lengthAdjust="spacing" textLength="57" x="27" y="417.6245">idUser: Int</text><ellipse cx="18" cy="427.2188" fill="#000000" rx="3" ry="3" style="stroke:#000000;stroke-width:1.0;"/><text fill="#000000" font-family="sans-serif" font-size="11" lengthAdjust="spacing" textLength="120" x="27" y="430.4292">createdAt: DateTime</text><ellipse cx="18" cy="440.0234" fill="#000000" rx="3" ry="3" style="stroke:#000000;stroke-width:1.0;"/><text fill="#000000" font-family="sans-serif" font-size="11" lengthAdjust="spacing" textLength="123" x="27" y="443.2339">updatedAt: DateTime</text><ellipse cx="18" cy="452.8281" fill="#000000" rx="3" ry="3" style="stroke:#000000;stroke-width:1.0;"/><text fill="#000000" font-family="sans-serif" font-size="11" lengthAdjust="spacing" textLength="59" x="27" y="456.0386">User: User</text><line style="stroke:#A80036;stroke-width:1.5;" x1="8" x2="155" y1="462.6328" y2="462.6328"/><!--MD5=[41314a0efc36828092cff9ebad2fcafd]
class Group--><rect codeLine="33" fill="#FEFECE" filter="url(#fl2g9fxtmjgal)" height="112.0234" id="Group" style="stroke:#A80036;stroke-width:1.5;" width="149" x="191" y="346"/><ellipse cx="242.75" cy="362" fill="#ADD1B2" rx="11" ry="11" style="stroke:#A80036;stroke-width:1.0;"/><path d="M241.5469,362.875 L243,362.875 L243,362.9844 C243,363.3906 243.0313,363.5469 243.1094,363.7031 C243.2656,363.9531 243.5469,364.1094 243.8438,364.1094 C244.0938,364.1094 244.3594,363.9688 244.5156,363.75 C244.6406,363.5938 244.6719,363.4375 244.6719,362.9844 L244.6719,361.0625 C244.6719,360.9063 244.6719,360.8594 244.6563,360.7031 C244.5938,360.2344 244.2813,359.9219 243.8281,359.9219 C243.5781,359.9219 243.3125,360.0625 243.1406,360.2813 C243.0313,360.4531 243,360.6094 243,361.0625 L243,361.1875 L241.5469,361.1875 L241.5469,358.7813 L245.5313,358.7813 L245.5313,359.6406 C245.5313,360.0469 245.5625,360.2188 245.6406,360.375 C245.8125,360.625 246.0938,360.7813 246.375,360.7813 C246.6406,360.7813 246.9063,360.6406 247.0781,360.4219 C247.1875,360.25 247.2188,360.1094 247.2188,359.6406 L247.2188,357.0938 L239.5938,357.0938 C239.1563,357.0938 239.0313,357.1094 238.875,357.2031 C238.625,357.3594 238.4688,357.6563 238.4688,357.9375 C238.4688,358.2188 238.6094,358.4688 238.8281,358.6406 C238.9844,358.75 239.1719,358.7813 239.5938,358.7813 L239.8438,358.7813 L239.8438,365.2969 L239.5938,365.2969 C239.1875,365.2969 239.0313,365.3125 238.875,365.4219 C238.625,365.5938 238.4688,365.8594 238.4688,366.1563 C238.4688,366.4219 238.6094,366.6719 238.8281,366.8281 C238.9688,366.9531 239.2031,367 239.5938,367 L247.5938,367 L247.5938,364.4219 C247.5938,363.9844 247.5625,363.8438 247.4844,363.6875 C247.3125,363.4375 247.0313,363.2813 246.75,363.2813 C246.4844,363.2813 246.2188,363.3906 246.0469,363.6406 C245.9375,363.7969 245.9063,363.9375 245.9063,364.4219 L245.9063,365.2969 L241.5469,365.2969 L241.5469,362.875 Z " fill="#000000"/><text fill="#000000" font-family="sans-serif" font-size="12" lengthAdjust="spacing" textLength="37" x="263.25" y="366.1543">Group</text><line style="stroke:#A80036;stroke-width:1.5;" x1="192" x2="339" y1="378" y2="378"/><ellipse cx="202" cy="389" fill="#000000" rx="3" ry="3" style="stroke:#000000;stroke-width:1.0;"/><text fill="#000000" font-family="sans-serif" font-size="11" lengthAdjust="spacing" textLength="31" x="211" y="392.2104">id: Int</text><ellipse cx="202" cy="401.8047" fill="#000000" rx="3" ry="3" style="stroke:#000000;stroke-width:1.0;"/><text fill="#000000" font-family="sans-serif" font-size="11" lengthAdjust="spacing" textLength="120" x="211" y="405.0151">createdAt: DateTime</text><ellipse cx="202" cy="414.6094" fill="#000000" rx="3" ry="3" style="stroke:#000000;stroke-width:1.0;"/><text fill="#000000" font-family="sans-serif" font-size="11" lengthAdjust="spacing" textLength="123" x="211" y="417.8198">updatedAt: DateTime</text><ellipse cx="202" cy="427.4141" fill="#000000" rx="3" ry="3" style="stroke:#000000;stroke-width:1.0;"/><text fill="#000000" font-family="sans-serif" font-size="11" lengthAdjust="spacing" textLength="73" x="211" y="430.6245">name: String</text><ellipse cx="202" cy="440.2188" fill="#000000" rx="3" ry="3" style="stroke:#000000;stroke-width:1.0;"/><text fill="#000000" font-family="sans-serif" font-size="11" lengthAdjust="spacing" textLength="67" x="211" y="443.4292">User: User[]</text><line style="stroke:#A80036;stroke-width:1.5;" x1="192" x2="339" y1="450.0234" y2="450.0234"/><!--MD5=[9dd4eaa2771a2ff8dbee15cc1e732cab]
class Patient--><rect codeLine="41" fill="#FEFECE" filter="url(#fl2g9fxtmjgal)" height="214.4609" id="Patient" style="stroke:#A80036;stroke-width:1.5;" width="203" x="1565" y="33"/><ellipse cx="1642.75" cy="49" fill="#ADD1B2" rx="11" ry="11" style="stroke:#A80036;stroke-width:1.0;"/><path d="M1641.5469,49.875 L1643,49.875 L1643,49.9844 C1643,50.3906 1643.0313,50.5469 1643.1094,50.7031 C1643.2656,50.9531 1643.5469,51.1094 1643.8438,51.1094 C1644.0938,51.1094 1644.3594,50.9688 1644.5156,50.75 C1644.6406,50.5938 1644.6719,50.4375 1644.6719,49.9844 L1644.6719,48.0625 C1644.6719,47.9063 1644.6719,47.8594 1644.6563,47.7031 C1644.5938,47.2344 1644.2813,46.9219 1643.8281,46.9219 C1643.5781,46.9219 1643.3125,47.0625 1643.1406,47.2813 C1643.0313,47.4531 1643,47.6094 1643,48.0625 L1643,48.1875 L1641.5469,48.1875 L1641.5469,45.7813 L1645.5313,45.7813 L1645.5313,46.6406 C1645.5313,47.0469 1645.5625,47.2188 1645.6406,47.375 C1645.8125,47.625 1646.0938,47.7813 1646.375,47.7813 C1646.6406,47.7813 1646.9063,47.6406 1647.0781,47.4219 C1647.1875,47.25 1647.2188,47.1094 1647.2188,46.6406 L1647.2188,44.0938 L1639.5938,44.0938 C1639.1563,44.0938 1639.0313,44.1094 1638.875,44.2031 C1638.625,44.3594 1638.4688,44.6563 1638.4688,44.9375 C1638.4688,45.2188 1638.6094,45.4688 1638.8281,45.6406 C1638.9844,45.75 1639.1719,45.7813 1639.5938,45.7813 L1639.8438,45.7813 L1639.8438,52.2969 L1639.5938,52.2969 C1639.1875,52.2969 1639.0313,52.3125 1638.875,52.4219 C1638.625,52.5938 1638.4688,52.8594 1638.4688,53.1563 C1638.4688,53.4219 1638.6094,53.6719 1638.8281,53.8281 C1638.9688,53.9531 1639.2031,54 1639.5938,54 L1647.5938,54 L1647.5938,51.4219 C1647.5938,50.9844 1647.5625,50.8438 1647.4844,50.6875 C1647.3125,50.4375 1647.0313,50.2813 1646.75,50.2813 C1646.4844,50.2813 1646.2188,50.3906 1646.0469,50.6406 C1645.9375,50.7969 1645.9063,50.9375 1645.9063,51.4219 L1645.9063,52.2969 L1641.5469,52.2969 L1641.5469,49.875 Z " fill="#000000"/><text fill="#000000" font-family="sans-serif" font-size="12" lengthAdjust="spacing" textLength="39" x="1663.25" y="53.1543">Patient</text><line style="stroke:#A80036;stroke-width:1.5;" x1="1566" x2="1767" y1="65" y2="65"/><ellipse cx="1576" cy="76" fill="#000000" rx="3" ry="3" style="stroke:#000000;stroke-width:1.0;"/><text fill="#000000" font-family="sans-serif" font-size="11" lengthAdjust="spacing" textLength="31" x="1585" y="79.2104">id: Int</text><ellipse cx="1576" cy="88.8047" fill="#000000" rx="3" ry="3" style="stroke:#000000;stroke-width:1.0;"/><text fill="#000000" font-family="sans-serif" font-size="11" lengthAdjust="spacing" textLength="73" x="1585" y="92.0151">name: String</text><ellipse cx="1576" cy="101.6094" fill="#000000" rx="3" ry="3" style="stroke:#000000;stroke-width:1.0;"/><text fill="#000000" font-family="sans-serif" font-size="11" lengthAdjust="spacing" textLength="94" x="1585" y="104.8198">lastName: String</text><text fill="#000000" font-family="sans-serif" font-size="11" lengthAdjust="spacing" textLength="136" x="1585" y="117.6245">addressNumber: String?</text><text fill="#000000" font-family="sans-serif" font-size="11" lengthAdjust="spacing" textLength="67" x="1585" y="130.4292">cep: String?</text><ellipse cx="1576" cy="140.0234" fill="#000000" rx="3" ry="3" style="stroke:#000000;stroke-width:1.0;"/><text fill="#000000" font-family="sans-serif" font-size="11" lengthAdjust="spacing" textLength="110" x="1585" y="143.2339">birthday: DateTime</text><text fill="#000000" font-family="sans-serif" font-size="11" lengthAdjust="spacing" textLength="82" x="1585" y="156.0386">phone: String?</text><text fill="#000000" font-family="sans-serif" font-size="11" lengthAdjust="spacing" textLength="137" x="1585" y="168.8433">healthInsurance: String?</text><ellipse cx="1576" cy="178.4375" fill="#000000" rx="3" ry="3" style="stroke:#000000;stroke-width:1.0;"/><text fill="#000000" font-family="sans-serif" font-size="11" lengthAdjust="spacing" textLength="57" x="1585" y="181.6479">cpf: String</text><ellipse cx="1576" cy="191.2422" fill="#000000" rx="3" ry="3" style="stroke:#000000;stroke-width:1.0;"/><text fill="#000000" font-family="sans-serif" font-size="11" lengthAdjust="spacing" textLength="51" x="1585" y="194.4526">rg: String</text><ellipse cx="1576" cy="204.0469" fill="#000000" rx="3" ry="3" style="stroke:#000000;stroke-width:1.0;"/><text fill="#000000" font-family="sans-serif" font-size="11" lengthAdjust="spacing" textLength="81" x="1585" y="207.2573">gender: String</text><text fill="#000000" font-family="sans-serif" font-size="11" lengthAdjust="spacing" textLength="118" x="1585" y="220.062">complement: String?</text><text fill="#000000" font-family="sans-serif" font-size="11" lengthAdjust="spacing" textLength="177" x="1585" y="232.8667">MedicalRecord: MedicalRecord?</text><line style="stroke:#A80036;stroke-width:1.5;" x1="1566" x2="1767" y1="239.4609" y2="239.4609"/><!--MD5=[5a42d898e2a5d299cc26761d1eaa7d84]
class Doctor--><rect codeLine="57" fill="#FEFECE" filter="url(#fl2g9fxtmjgal)" height="112.0234" id="Doctor" style="stroke:#A80036;stroke-width:1.5;" width="248" x="375.5" y="346"/><ellipse cx="474.75" cy="362" fill="#ADD1B2" rx="11" ry="11" style="stroke:#A80036;stroke-width:1.0;"/><path d="M473.5469,362.875 L475,362.875 L475,362.9844 C475,363.3906 475.0313,363.5469 475.1094,363.7031 C475.2656,363.9531 475.5469,364.1094 475.8438,364.1094 C476.0938,364.1094 476.3594,363.9688 476.5156,363.75 C476.6406,363.5938 476.6719,363.4375 476.6719,362.9844 L476.6719,361.0625 C476.6719,360.9063 476.6719,360.8594 476.6563,360.7031 C476.5938,360.2344 476.2813,359.9219 475.8281,359.9219 C475.5781,359.9219 475.3125,360.0625 475.1406,360.2813 C475.0313,360.4531 475,360.6094 475,361.0625 L475,361.1875 L473.5469,361.1875 L473.5469,358.7813 L477.5313,358.7813 L477.5313,359.6406 C477.5313,360.0469 477.5625,360.2188 477.6406,360.375 C477.8125,360.625 478.0938,360.7813 478.375,360.7813 C478.6406,360.7813 478.9063,360.6406 479.0781,360.4219 C479.1875,360.25 479.2188,360.1094 479.2188,359.6406 L479.2188,357.0938 L471.5938,357.0938 C471.1563,357.0938 471.0313,357.1094 470.875,357.2031 C470.625,357.3594 470.4688,357.6563 470.4688,357.9375 C470.4688,358.2188 470.6094,358.4688 470.8281,358.6406 C470.9844,358.75 471.1719,358.7813 471.5938,358.7813 L471.8438,358.7813 L471.8438,365.2969 L471.5938,365.2969 C471.1875,365.2969 471.0313,365.3125 470.875,365.4219 C470.625,365.5938 470.4688,365.8594 470.4688,366.1563 C470.4688,366.4219 470.6094,366.6719 470.8281,366.8281 C470.9688,366.9531 471.2031,367 471.5938,367 L479.5938,367 L479.5938,364.4219 C479.5938,363.9844 479.5625,363.8438 479.4844,363.6875 C479.3125,363.4375 479.0313,363.2813 478.75,363.2813 C478.4844,363.2813 478.2188,363.3906 478.0469,363.6406 C477.9375,363.7969 477.9063,363.9375 477.9063,364.4219 L477.9063,365.2969 L473.5469,365.2969 L473.5469,362.875 Z " fill="#000000"/><text fill="#000000" font-family="sans-serif" font-size="12" lengthAdjust="spacing" textLength="41" x="495.25" y="366.1543">Doctor</text><line style="stroke:#A80036;stroke-width:1.5;" x1="376.5" x2="622.5" y1="378" y2="378"/><ellipse cx="386.5" cy="389" fill="#000000" rx="3" ry="3" style="stroke:#000000;stroke-width:1.0;"/><text fill="#000000" font-family="sans-serif" font-size="11" lengthAdjust="spacing" textLength="61" x="395.5" y="392.2104">crm: String</text><ellipse cx="386.5" cy="401.8047" fill="#000000" rx="3" ry="3" style="stroke:#000000;stroke-width:1.0;"/><text fill="#000000" font-family="sans-serif" font-size="11" lengthAdjust="spacing" textLength="66" x="395.5" y="405.0151">area: String</text><ellipse cx="386.5" cy="414.6094" fill="#000000" rx="3" ry="3" style="stroke:#000000;stroke-width:1.0;"/><text fill="#000000" font-family="sans-serif" font-size="11" lengthAdjust="spacing" textLength="56" x="395.5" y="417.8198">userId: Int</text><ellipse cx="386.5" cy="427.4141" fill="#000000" rx="3" ry="3" style="stroke:#000000;stroke-width:1.0;"/><text fill="#000000" font-family="sans-serif" font-size="11" lengthAdjust="spacing" textLength="58" x="395.5" y="430.6245">user: User</text><ellipse cx="386.5" cy="440.2188" fill="#000000" rx="3" ry="3" style="stroke:#000000;stroke-width:1.0;"/><text fill="#000000" font-family="sans-serif" font-size="11" lengthAdjust="spacing" textLength="222" x="395.5" y="443.4292">MedicalPrescriber: MedicalPrescription[]</text><line style="stroke:#A80036;stroke-width:1.5;" x1="376.5" x2="622.5" y1="450.0234" y2="450.0234"/><!--MD5=[31de7d9ab45089250e68e111f91ce83b]
class Adm--><rect codeLine="65" fill="#FEFECE" filter="url(#fl2g9fxtmjgal)" height="73.6094" id="Adm" style="stroke:#A80036;stroke-width:1.5;" width="84" x="658.5" y="365"/><ellipse cx="684.75" cy="381" fill="#ADD1B2" rx="11" ry="11" style="stroke:#A80036;stroke-width:1.0;"/><path d="M683.5469,381.875 L685,381.875 L685,381.9844 C685,382.3906 685.0313,382.5469 685.1094,382.7031 C685.2656,382.9531 685.5469,383.1094 685.8438,383.1094 C686.0938,383.1094 686.3594,382.9688 686.5156,382.75 C686.6406,382.5938 686.6719,382.4375 686.6719,381.9844 L686.6719,380.0625 C686.6719,379.9063 686.6719,379.8594 686.6563,379.7031 C686.5938,379.2344 686.2813,378.9219 685.8281,378.9219 C685.5781,378.9219 685.3125,379.0625 685.1406,379.2813 C685.0313,379.4531 685,379.6094 685,380.0625 L685,380.1875 L683.5469,380.1875 L683.5469,377.7813 L687.5313,377.7813 L687.5313,378.6406 C687.5313,379.0469 687.5625,379.2188 687.6406,379.375 C687.8125,379.625 688.0938,379.7813 688.375,379.7813 C688.6406,379.7813 688.9063,379.6406 689.0781,379.4219 C689.1875,379.25 689.2188,379.1094 689.2188,378.6406 L689.2188,376.0938 L681.5938,376.0938 C681.1563,376.0938 681.0313,376.1094 680.875,376.2031 C680.625,376.3594 680.4688,376.6563 680.4688,376.9375 C680.4688,377.2188 680.6094,377.4688 680.8281,377.6406 C680.9844,377.75 681.1719,377.7813 681.5938,377.7813 L681.8438,377.7813 L681.8438,384.2969 L681.5938,384.2969 C681.1875,384.2969 681.0313,384.3125 680.875,384.4219 C680.625,384.5938 680.4688,384.8594 680.4688,385.1563 C680.4688,385.4219 680.6094,385.6719 680.8281,385.8281 C680.9688,385.9531 681.2031,386 681.5938,386 L689.5938,386 L689.5938,383.4219 C689.5938,382.9844 689.5625,382.8438 689.4844,382.6875 C689.3125,382.4375 689.0313,382.2813 688.75,382.2813 C688.4844,382.2813 688.2188,382.3906 688.0469,382.6406 C687.9375,382.7969 687.9063,382.9375 687.9063,383.4219 L687.9063,384.2969 L683.5469,384.2969 L683.5469,381.875 Z " fill="#000000"/><text fill="#000000" font-family="sans-serif" font-size="12" lengthAdjust="spacing" textLength="27" x="701.25" y="385.1543">Adm</text><line style="stroke:#A80036;stroke-width:1.5;" x1="659.5" x2="741.5" y1="397" y2="397"/><ellipse cx="669.5" cy="408" fill="#000000" rx="3" ry="3" style="stroke:#000000;stroke-width:1.0;"/><text fill="#000000" font-family="sans-serif" font-size="11" lengthAdjust="spacing" textLength="56" x="678.5" y="411.2104">userId: Int</text><ellipse cx="669.5" cy="420.8047" fill="#000000" rx="3" ry="3" style="stroke:#000000;stroke-width:1.0;"/><text fill="#000000" font-family="sans-serif" font-size="11" lengthAdjust="spacing" textLength="58" x="678.5" y="424.0151">user: User</text><line style="stroke:#A80036;stroke-width:1.5;" x1="659.5" x2="741.5" y1="430.6094" y2="430.6094"/><!--MD5=[b987e1d1a4ae943a3ffe62b99fe85c43]
class MedicalPrescription--><rect codeLine="70" fill="#FEFECE" filter="url(#fl2g9fxtmjgal)" height="227.2656" id="MedicalPrescription" style="stroke:#A80036;stroke-width:1.5;" width="261" x="369" y="531"/><ellipse cx="436.75" cy="547" fill="#ADD1B2" rx="11" ry="11" style="stroke:#A80036;stroke-width:1.0;"/><path d="M435.5469,547.875 L437,547.875 L437,547.9844 C437,548.3906 437.0313,548.5469 437.1094,548.7031 C437.2656,548.9531 437.5469,549.1094 437.8438,549.1094 C438.0938,549.1094 438.3594,548.9688 438.5156,548.75 C438.6406,548.5938 438.6719,548.4375 438.6719,547.9844 L438.6719,546.0625 C438.6719,545.9063 438.6719,545.8594 438.6563,545.7031 C438.5938,545.2344 438.2813,544.9219 437.8281,544.9219 C437.5781,544.9219 437.3125,545.0625 437.1406,545.2813 C437.0313,545.4531 437,545.6094 437,546.0625 L437,546.1875 L435.5469,546.1875 L435.5469,543.7813 L439.5313,543.7813 L439.5313,544.6406 C439.5313,545.0469 439.5625,545.2188 439.6406,545.375 C439.8125,545.625 440.0938,545.7813 440.375,545.7813 C440.6406,545.7813 440.9063,545.6406 441.0781,545.4219 C441.1875,545.25 441.2188,545.1094 441.2188,544.6406 L441.2188,542.0938 L433.5938,542.0938 C433.1563,542.0938 433.0313,542.1094 432.875,542.2031 C432.625,542.3594 432.4688,542.6563 432.4688,542.9375 C432.4688,543.2188 432.6094,543.4688 432.8281,543.6406 C432.9844,543.75 433.1719,543.7813 433.5938,543.7813 L433.8438,543.7813 L433.8438,550.2969 L433.5938,550.2969 C433.1875,550.2969 433.0313,550.3125 432.875,550.4219 C432.625,550.5938 432.4688,550.8594 432.4688,551.1563 C432.4688,551.4219 432.6094,551.6719 432.8281,551.8281 C432.9688,551.9531 433.2031,552 433.5938,552 L441.5938,552 L441.5938,549.4219 C441.5938,548.9844 441.5625,548.8438 441.4844,548.6875 C441.3125,548.4375 441.0313,548.2813 440.75,548.2813 C440.4844,548.2813 440.2188,548.3906 440.0469,548.6406 C439.9375,548.7969 439.9063,548.9375 439.9063,549.4219 L439.9063,550.2969 L435.5469,550.2969 L435.5469,547.875 Z " fill="#000000"/><text fill="#000000" font-family="sans-serif" font-size="12" lengthAdjust="spacing" textLength="117" x="457.25" y="551.1543">MedicalPrescription</text><line style="stroke:#A80036;stroke-width:1.5;" x1="370" x2="629" y1="563" y2="563"/><ellipse cx="380" cy="574" fill="#000000" rx="3" ry="3" style="stroke:#000000;stroke-width:1.0;"/><text fill="#000000" font-family="sans-serif" font-size="11" lengthAdjust="spacing" textLength="31" x="389" y="577.2104">id: Int</text><ellipse cx="380" cy="586.8047" fill="#000000" rx="3" ry="3" style="stroke:#000000;stroke-width:1.0;"/><text fill="#000000" font-family="sans-serif" font-size="11" lengthAdjust="spacing" textLength="65" x="389" y="590.0151">drug: String</text><ellipse cx="380" cy="599.6094" fill="#000000" rx="3" ry="3" style="stroke:#000000;stroke-width:1.0;"/><text fill="#000000" font-family="sans-serif" font-size="11" lengthAdjust="spacing" textLength="109" x="389" y="602.8198">drugDosage: String</text><ellipse cx="380" cy="612.4141" fill="#000000" rx="3" ry="3" style="stroke:#000000;stroke-width:1.0;"/><text fill="#000000" font-family="sans-serif" font-size="11" lengthAdjust="spacing" textLength="90" x="389" y="615.6245">drugWay: String</text><ellipse cx="380" cy="625.2188" fill="#000000" rx="3" ry="3" style="stroke:#000000;stroke-width:1.0;"/><text fill="#000000" font-family="sans-serif" font-size="11" lengthAdjust="spacing" textLength="163" x="389" y="628.4292">administrationInterval: String</text><ellipse cx="380" cy="638.0234" fill="#000000" rx="3" ry="3" style="stroke:#000000;stroke-width:1.0;"/><text fill="#000000" font-family="sans-serif" font-size="11" lengthAdjust="spacing" textLength="158" x="389" y="641.2339">prescriptionDate: DateTime</text><ellipse cx="380" cy="650.8281" fill="#000000" rx="3" ry="3" style="stroke:#000000;stroke-width:1.0;"/><text fill="#000000" font-family="sans-serif" font-size="11" lengthAdjust="spacing" textLength="101" x="389" y="654.0386">realized: Boolean</text><text fill="#000000" font-family="sans-serif" font-size="11" lengthAdjust="spacing" textLength="66" x="389" y="666.8433">obs: String?</text><ellipse cx="380" cy="676.4375" fill="#000000" rx="3" ry="3" style="stroke:#000000;stroke-width:1.0;"/><text fill="#000000" font-family="sans-serif" font-size="11" lengthAdjust="spacing" textLength="115" x="389" y="679.6479">medicalRecordId: Int</text><ellipse cx="380" cy="689.2422" fill="#000000" rx="3" ry="3" style="stroke:#000000;stroke-width:1.0;"/><text fill="#000000" font-family="sans-serif" font-size="11" lengthAdjust="spacing" textLength="88" x="389" y="692.4526">prescriberId: Int</text><ellipse cx="380" cy="702.0469" fill="#000000" rx="3" ry="3" style="stroke:#000000;stroke-width:1.0;"/><text fill="#000000" font-family="sans-serif" font-size="11" lengthAdjust="spacing" textLength="134" x="389" y="705.2573">administrationCount: Int</text><ellipse cx="380" cy="714.8516" fill="#000000" rx="3" ry="3" style="stroke:#000000;stroke-width:1.0;"/><text fill="#000000" font-family="sans-serif" font-size="11" lengthAdjust="spacing" textLength="171" x="389" y="718.062">MedicalRecord: MedicalRecord</text><ellipse cx="380" cy="727.6563" fill="#000000" rx="3" ry="3" style="stroke:#000000;stroke-width:1.0;"/><text fill="#000000" font-family="sans-serif" font-size="11" lengthAdjust="spacing" textLength="100" x="389" y="730.8667">Prescriber: Doctor</text><ellipse cx="380" cy="740.4609" fill="#000000" rx="3" ry="3" style="stroke:#000000;stroke-width:1.0;"/><text fill="#000000" font-family="sans-serif" font-size="11" lengthAdjust="spacing" textLength="235" x="389" y="743.6714">Executors: ExecutorsMedicalPrescription[]</text><line style="stroke:#A80036;stroke-width:1.5;" x1="370" x2="629" y1="750.2656" y2="750.2656"/><!--MD5=[f18746c352202dfe215a446b29fe4847]
class MedicalRecord--><rect codeLine="87" fill="#FEFECE" filter="url(#fl2g9fxtmjgal)" height="137.6328" id="MedicalRecord" style="stroke:#A80036;stroke-width:1.5;" width="257" x="1538" y="333"/><ellipse cx="1617.75" cy="349" fill="#ADD1B2" rx="11" ry="11" style="stroke:#A80036;stroke-width:1.0;"/><path d="M1616.5469,349.875 L1618,349.875 L1618,349.9844 C1618,350.3906 1618.0313,350.5469 1618.1094,350.7031 C1618.2656,350.9531 1618.5469,351.1094 1618.8438,351.1094 C1619.0938,351.1094 1619.3594,350.9688 1619.5156,350.75 C1619.6406,350.5938 1619.6719,350.4375 1619.6719,349.9844 L1619.6719,348.0625 C1619.6719,347.9063 1619.6719,347.8594 1619.6563,347.7031 C1619.5938,347.2344 1619.2813,346.9219 1618.8281,346.9219 C1618.5781,346.9219 1618.3125,347.0625 1618.1406,347.2813 C1618.0313,347.4531 1618,347.6094 1618,348.0625 L1618,348.1875 L1616.5469,348.1875 L1616.5469,345.7813 L1620.5313,345.7813 L1620.5313,346.6406 C1620.5313,347.0469 1620.5625,347.2188 1620.6406,347.375 C1620.8125,347.625 1621.0938,347.7813 1621.375,347.7813 C1621.6406,347.7813 1621.9063,347.6406 1622.0781,347.4219 C1622.1875,347.25 1622.2188,347.1094 1622.2188,346.6406 L1622.2188,344.0938 L1614.5938,344.0938 C1614.1563,344.0938 1614.0313,344.1094 1613.875,344.2031 C1613.625,344.3594 1613.4688,344.6563 1613.4688,344.9375 C1613.4688,345.2188 1613.6094,345.4688 1613.8281,345.6406 C1613.9844,345.75 1614.1719,345.7813 1614.5938,345.7813 L1614.8438,345.7813 L1614.8438,352.2969 L1614.5938,352.2969 C1614.1875,352.2969 1614.0313,352.3125 1613.875,352.4219 C1613.625,352.5938 1613.4688,352.8594 1613.4688,353.1563 C1613.4688,353.4219 1613.6094,353.6719 1613.8281,353.8281 C1613.9688,353.9531 1614.2031,354 1614.5938,354 L1622.5938,354 L1622.5938,351.4219 C1622.5938,350.9844 1622.5625,350.8438 1622.4844,350.6875 C1622.3125,350.4375 1622.0313,350.2813 1621.75,350.2813 C1621.4844,350.2813 1621.2188,350.3906 1621.0469,350.6406 C1620.9375,350.7969 1620.9063,350.9375 1620.9063,351.4219 L1620.9063,352.2969 L1616.5469,352.2969 L1616.5469,349.875 Z " fill="#000000"/><text fill="#000000" font-family="sans-serif" font-size="12" lengthAdjust="spacing" textLength="89" x="1638.25" y="353.1543">MedicalRecord</text><line style="stroke:#A80036;stroke-width:1.5;" x1="1539" x2="1794" y1="365" y2="365"/><ellipse cx="1549" cy="376" fill="#000000" rx="3" ry="3" style="stroke:#000000;stroke-width:1.0;"/><text fill="#000000" font-family="sans-serif" font-size="11" lengthAdjust="spacing" textLength="31" x="1558" y="379.2104">id: Int</text><ellipse cx="1549" cy="388.8047" fill="#000000" rx="3" ry="3" style="stroke:#000000;stroke-width:1.0;"/><text fill="#000000" font-family="sans-serif" font-size="11" lengthAdjust="spacing" textLength="71" x="1558" y="392.0151">patientId: Int</text><ellipse cx="1549" cy="401.6094" fill="#000000" rx="3" ry="3" style="stroke:#000000;stroke-width:1.0;"/><text fill="#000000" font-family="sans-serif" font-size="11" lengthAdjust="spacing" textLength="86" x="1558" y="404.8198">patient: Patient</text><ellipse cx="1549" cy="414.4141" fill="#000000" rx="3" ry="3" style="stroke:#000000;stroke-width:1.0;"/><text fill="#000000" font-family="sans-serif" font-size="11" lengthAdjust="spacing" textLength="231" x="1558" y="417.6245">MedicalPrescription: MedicalPrescription[]</text><ellipse cx="1549" cy="427.2188" fill="#000000" rx="3" ry="3" style="stroke:#000000;stroke-width:1.0;"/><text fill="#000000" font-family="sans-serif" font-size="11" lengthAdjust="spacing" textLength="211" x="1558" y="430.4292">NursePrescription: NursePrescription[]</text><ellipse cx="1549" cy="440.0234" fill="#000000" rx="3" ry="3" style="stroke:#000000;stroke-width:1.0;"/><text fill="#000000" font-family="sans-serif" font-size="11" lengthAdjust="spacing" textLength="155" x="1558" y="443.2339">NurseReport: NurseReport[]</text><ellipse cx="1549" cy="452.8281" fill="#000000" rx="3" ry="3" style="stroke:#000000;stroke-width:1.0;"/><text fill="#000000" font-family="sans-serif" font-size="11" lengthAdjust="spacing" textLength="155" x="1558" y="456.0386">TeamReport: TeamReport[]</text><line style="stroke:#A80036;stroke-width:1.5;" x1="1539" x2="1794" y1="462.6328" y2="462.6328"/><!--MD5=[4cecd69333ffe5e300c271dde8a957f3]
class TeamReport--><rect codeLine="97" fill="#FEFECE" filter="url(#fl2g9fxtmjgal)" height="137.6328" id="TeamReport" style="stroke:#A80036;stroke-width:1.5;" width="197" x="778" y="333"/><ellipse cx="835.75" cy="349" fill="#ADD1B2" rx="11" ry="11" style="stroke:#A80036;stroke-width:1.0;"/><path d="M834.5469,349.875 L836,349.875 L836,349.9844 C836,350.3906 836.0313,350.5469 836.1094,350.7031 C836.2656,350.9531 836.5469,351.1094 836.8438,351.1094 C837.0938,351.1094 837.3594,350.9688 837.5156,350.75 C837.6406,350.5938 837.6719,350.4375 837.6719,349.9844 L837.6719,348.0625 C837.6719,347.9063 837.6719,347.8594 837.6563,347.7031 C837.5938,347.2344 837.2813,346.9219 836.8281,346.9219 C836.5781,346.9219 836.3125,347.0625 836.1406,347.2813 C836.0313,347.4531 836,347.6094 836,348.0625 L836,348.1875 L834.5469,348.1875 L834.5469,345.7813 L838.5313,345.7813 L838.5313,346.6406 C838.5313,347.0469 838.5625,347.2188 838.6406,347.375 C838.8125,347.625 839.0938,347.7813 839.375,347.7813 C839.6406,347.7813 839.9063,347.6406 840.0781,347.4219 C840.1875,347.25 840.2188,347.1094 840.2188,346.6406 L840.2188,344.0938 L832.5938,344.0938 C832.1563,344.0938 832.0313,344.1094 831.875,344.2031 C831.625,344.3594 831.4688,344.6563 831.4688,344.9375 C831.4688,345.2188 831.6094,345.4688 831.8281,345.6406 C831.9844,345.75 832.1719,345.7813 832.5938,345.7813 L832.8438,345.7813 L832.8438,352.2969 L832.5938,352.2969 C832.1875,352.2969 832.0313,352.3125 831.875,352.4219 C831.625,352.5938 831.4688,352.8594 831.4688,353.1563 C831.4688,353.4219 831.6094,353.6719 831.8281,353.8281 C831.9688,353.9531 832.2031,354 832.5938,354 L840.5938,354 L840.5938,351.4219 C840.5938,350.9844 840.5625,350.8438 840.4844,350.6875 C840.3125,350.4375 840.0313,350.2813 839.75,350.2813 C839.4844,350.2813 839.2188,350.3906 839.0469,350.6406 C838.9375,350.7969 838.9063,350.9375 838.9063,351.4219 L838.9063,352.2969 L834.5469,352.2969 L834.5469,349.875 Z " fill="#000000"/><text fill="#000000" font-family="sans-serif" font-size="12" lengthAdjust="spacing" textLength="73" x="856.25" y="353.1543">TeamReport</text><line style="stroke:#A80036;stroke-width:1.5;" x1="779" x2="974" y1="365" y2="365"/><ellipse cx="789" cy="376" fill="#000000" rx="3" ry="3" style="stroke:#000000;stroke-width:1.0;"/><text fill="#000000" font-family="sans-serif" font-size="11" lengthAdjust="spacing" textLength="31" x="798" y="379.2104">id: Int</text><ellipse cx="789" cy="388.8047" fill="#000000" rx="3" ry="3" style="stroke:#000000;stroke-width:1.0;"/><text fill="#000000" font-family="sans-serif" font-size="11" lengthAdjust="spacing" textLength="126" x="798" y="392.0151">reportDate: DateTime</text><ellipse cx="789" cy="401.6094" fill="#000000" rx="3" ry="3" style="stroke:#000000;stroke-width:1.0;"/><text fill="#000000" font-family="sans-serif" font-size="11" lengthAdjust="spacing" textLength="74" x="798" y="404.8198">report: String</text><ellipse cx="789" cy="414.4141" fill="#000000" rx="3" ry="3" style="stroke:#000000;stroke-width:1.0;"/><text fill="#000000" font-family="sans-serif" font-size="11" lengthAdjust="spacing" textLength="56" x="798" y="417.6245">userId: Int</text><ellipse cx="789" cy="427.2188" fill="#000000" rx="3" ry="3" style="stroke:#000000;stroke-width:1.0;"/><text fill="#000000" font-family="sans-serif" font-size="11" lengthAdjust="spacing" textLength="115" x="798" y="430.4292">medicalRecordId: Int</text><ellipse cx="789" cy="440.0234" fill="#000000" rx="3" ry="3" style="stroke:#000000;stroke-width:1.0;"/><text fill="#000000" font-family="sans-serif" font-size="11" lengthAdjust="spacing" textLength="171" x="798" y="443.2339">MedicalRecord: MedicalRecord</text><ellipse cx="789" cy="452.8281" fill="#000000" rx="3" ry="3" style="stroke:#000000;stroke-width:1.0;"/><text fill="#000000" font-family="sans-serif" font-size="11" lengthAdjust="spacing" textLength="85" x="798" y="456.0386">signatory: User</text><line style="stroke:#A80036;stroke-width:1.5;" x1="779" x2="974" y1="462.6328" y2="462.6328"/><!--MD5=[a059576e163b46f56762f12600c49258]
class Nurse--><rect codeLine="107" fill="#FEFECE" filter="url(#fl2g9fxtmjgal)" height="137.6328" id="Nurse" style="stroke:#A80036;stroke-width:1.5;" width="331" x="1010" y="333"/><ellipse cx="1153.75" cy="349" fill="#ADD1B2" rx="11" ry="11" style="stroke:#A80036;stroke-width:1.0;"/><path d="M1152.5469,349.875 L1154,349.875 L1154,349.9844 C1154,350.3906 1154.0313,350.5469 1154.1094,350.7031 C1154.2656,350.9531 1154.5469,351.1094 1154.8438,351.1094 C1155.0938,351.1094 1155.3594,350.9688 1155.5156,350.75 C1155.6406,350.5938 1155.6719,350.4375 1155.6719,349.9844 L1155.6719,348.0625 C1155.6719,347.9063 1155.6719,347.8594 1155.6563,347.7031 C1155.5938,347.2344 1155.2813,346.9219 1154.8281,346.9219 C1154.5781,346.9219 1154.3125,347.0625 1154.1406,347.2813 C1154.0313,347.4531 1154,347.6094 1154,348.0625 L1154,348.1875 L1152.5469,348.1875 L1152.5469,345.7813 L1156.5313,345.7813 L1156.5313,346.6406 C1156.5313,347.0469 1156.5625,347.2188 1156.6406,347.375 C1156.8125,347.625 1157.0938,347.7813 1157.375,347.7813 C1157.6406,347.7813 1157.9063,347.6406 1158.0781,347.4219 C1158.1875,347.25 1158.2188,347.1094 1158.2188,346.6406 L1158.2188,344.0938 L1150.5938,344.0938 C1150.1563,344.0938 1150.0313,344.1094 1149.875,344.2031 C1149.625,344.3594 1149.4688,344.6563 1149.4688,344.9375 C1149.4688,345.2188 1149.6094,345.4688 1149.8281,345.6406 C1149.9844,345.75 1150.1719,345.7813 1150.5938,345.7813 L1150.8438,345.7813 L1150.8438,352.2969 L1150.5938,352.2969 C1150.1875,352.2969 1150.0313,352.3125 1149.875,352.4219 C1149.625,352.5938 1149.4688,352.8594 1149.4688,353.1563 C1149.4688,353.4219 1149.6094,353.6719 1149.8281,353.8281 C1149.9688,353.9531 1150.2031,354 1150.5938,354 L1158.5938,354 L1158.5938,351.4219 C1158.5938,350.9844 1158.5625,350.8438 1158.4844,350.6875 C1158.3125,350.4375 1158.0313,350.2813 1157.75,350.2813 C1157.4844,350.2813 1157.2188,350.3906 1157.0469,350.6406 C1156.9375,350.7969 1156.9063,350.9375 1156.9063,351.4219 L1156.9063,352.2969 L1152.5469,352.2969 L1152.5469,349.875 Z " fill="#000000"/><text fill="#000000" font-family="sans-serif" font-size="12" lengthAdjust="spacing" textLength="35" x="1174.25" y="353.1543">Nurse</text><line style="stroke:#A80036;stroke-width:1.5;" x1="1011" x2="1340" y1="365" y2="365"/><ellipse cx="1021" cy="376" fill="#000000" rx="3" ry="3" style="stroke:#000000;stroke-width:1.0;"/><text fill="#000000" font-family="sans-serif" font-size="11" lengthAdjust="spacing" textLength="72" x="1030" y="379.2104">coren: String</text><ellipse cx="1021" cy="388.8047" fill="#000000" rx="3" ry="3" style="stroke:#000000;stroke-width:1.0;"/><text fill="#000000" font-family="sans-serif" font-size="11" lengthAdjust="spacing" textLength="56" x="1030" y="392.0151">userId: Int</text><ellipse cx="1021" cy="401.6094" fill="#000000" rx="3" ry="3" style="stroke:#000000;stroke-width:1.0;"/><text fill="#000000" font-family="sans-serif" font-size="11" lengthAdjust="spacing" textLength="58" x="1030" y="404.8198">user: User</text><ellipse cx="1021" cy="414.4141" fill="#000000" rx="3" ry="3" style="stroke:#000000;stroke-width:1.0;"/><text fill="#000000" font-family="sans-serif" font-size="11" lengthAdjust="spacing" textLength="305" x="1030" y="417.6245">NurseExecutorMedical: ExecutorsMedicalPrescription[]</text><ellipse cx="1021" cy="427.2188" fill="#000000" rx="3" ry="3" style="stroke:#000000;stroke-width:1.0;"/><text fill="#000000" font-family="sans-serif" font-size="11" lengthAdjust="spacing" textLength="196" x="1030" y="430.4292">NurseExecutor: NursePrescription[]</text><ellipse cx="1021" cy="440.0234" fill="#000000" rx="3" ry="3" style="stroke:#000000;stroke-width:1.0;"/><text fill="#000000" font-family="sans-serif" font-size="11" lengthAdjust="spacing" textLength="202" x="1030" y="443.2339">NursePrescriber: NursePrescription[]</text><ellipse cx="1021" cy="452.8281" fill="#000000" rx="3" ry="3" style="stroke:#000000;stroke-width:1.0;"/><text fill="#000000" font-family="sans-serif" font-size="11" lengthAdjust="spacing" textLength="155" x="1030" y="456.0386">NurseReport: NurseReport[]</text><line style="stroke:#A80036;stroke-width:1.5;" x1="1011" x2="1340" y1="462.6328" y2="462.6328"/><!--MD5=[64d1cc86830029754a80a19dcbe7ac94]
class NursePrescription--><rect codeLine="117" fill="#FEFECE" filter="url(#fl2g9fxtmjgal)" height="201.6563" id="NursePrescription" style="stroke:#A80036;stroke-width:1.5;" width="197" x="1452" y="543.5"/><ellipse cx="1493.55" cy="559.5" fill="#ADD1B2" rx="11" ry="11" style="stroke:#A80036;stroke-width:1.0;"/><path d="M1492.3469,560.375 L1493.8,560.375 L1493.8,560.4844 C1493.8,560.8906 1493.8313,561.0469 1493.9094,561.2031 C1494.0656,561.4531 1494.3469,561.6094 1494.6438,561.6094 C1494.8938,561.6094 1495.1594,561.4688 1495.3156,561.25 C1495.4406,561.0938 1495.4719,560.9375 1495.4719,560.4844 L1495.4719,558.5625 C1495.4719,558.4063 1495.4719,558.3594 1495.4563,558.2031 C1495.3938,557.7344 1495.0813,557.4219 1494.6281,557.4219 C1494.3781,557.4219 1494.1125,557.5625 1493.9406,557.7813 C1493.8313,557.9531 1493.8,558.1094 1493.8,558.5625 L1493.8,558.6875 L1492.3469,558.6875 L1492.3469,556.2813 L1496.3313,556.2813 L1496.3313,557.1406 C1496.3313,557.5469 1496.3625,557.7188 1496.4406,557.875 C1496.6125,558.125 1496.8938,558.2813 1497.175,558.2813 C1497.4406,558.2813 1497.7063,558.1406 1497.8781,557.9219 C1497.9875,557.75 1498.0188,557.6094 1498.0188,557.1406 L1498.0188,554.5938 L1490.3938,554.5938 C1489.9563,554.5938 1489.8313,554.6094 1489.675,554.7031 C1489.425,554.8594 1489.2688,555.1563 1489.2688,555.4375 C1489.2688,555.7188 1489.4094,555.9688 1489.6281,556.1406 C1489.7844,556.25 1489.9719,556.2813 1490.3938,556.2813 L1490.6438,556.2813 L1490.6438,562.7969 L1490.3938,562.7969 C1489.9875,562.7969 1489.8313,562.8125 1489.675,562.9219 C1489.425,563.0938 1489.2688,563.3594 1489.2688,563.6563 C1489.2688,563.9219 1489.4094,564.1719 1489.6281,564.3281 C1489.7688,564.4531 1490.0031,564.5 1490.3938,564.5 L1498.3938,564.5 L1498.3938,561.9219 C1498.3938,561.4844 1498.3625,561.3438 1498.2844,561.1875 C1498.1125,560.9375 1497.8313,560.7813 1497.55,560.7813 C1497.2844,560.7813 1497.0188,560.8906 1496.8469,561.1406 C1496.7375,561.2969 1496.7063,561.4375 1496.7063,561.9219 L1496.7063,562.7969 L1492.3469,562.7969 L1492.3469,560.375 Z " fill="#000000"/><text fill="#000000" font-family="sans-serif" font-size="12" lengthAdjust="spacing" textLength="106" x="1513.45" y="563.6543">NursePrescription</text><line style="stroke:#A80036;stroke-width:1.5;" x1="1453" x2="1648" y1="575.5" y2="575.5"/><ellipse cx="1463" cy="586.5" fill="#000000" rx="3" ry="3" style="stroke:#000000;stroke-width:1.0;"/><text fill="#000000" font-family="sans-serif" font-size="11" lengthAdjust="spacing" textLength="31" x="1472" y="589.7104">id: Int</text><ellipse cx="1463" cy="599.3047" fill="#000000" rx="3" ry="3" style="stroke:#000000;stroke-width:1.0;"/><text fill="#000000" font-family="sans-serif" font-size="11" lengthAdjust="spacing" textLength="106" x="1472" y="602.5151">prescription: String</text><ellipse cx="1463" cy="612.1094" fill="#000000" rx="3" ry="3" style="stroke:#000000;stroke-width:1.0;"/><text fill="#000000" font-family="sans-serif" font-size="11" lengthAdjust="spacing" textLength="158" x="1472" y="615.3198">prescriptionDate: DateTime</text><ellipse cx="1463" cy="624.9141" fill="#000000" rx="3" ry="3" style="stroke:#000000;stroke-width:1.0;"/><text fill="#000000" font-family="sans-serif" font-size="11" lengthAdjust="spacing" textLength="101" x="1472" y="628.1245">realized: Boolean</text><text fill="#000000" font-family="sans-serif" font-size="11" lengthAdjust="spacing" textLength="66" x="1472" y="640.9292">obs: String?</text><text fill="#000000" font-family="sans-serif" font-size="11" lengthAdjust="spacing" textLength="155" x="1472" y="653.7339">executionDate: DateTime?</text><ellipse cx="1463" cy="663.3281" fill="#000000" rx="3" ry="3" style="stroke:#000000;stroke-width:1.0;"/><text fill="#000000" font-family="sans-serif" font-size="11" lengthAdjust="spacing" textLength="115" x="1472" y="666.5386">medicalRecordId: Int</text><ellipse cx="1463" cy="676.1328" fill="#000000" rx="3" ry="3" style="stroke:#000000;stroke-width:1.0;"/><text fill="#000000" font-family="sans-serif" font-size="11" lengthAdjust="spacing" textLength="88" x="1472" y="679.3433">prescriberId: Int</text><text fill="#000000" font-family="sans-serif" font-size="11" lengthAdjust="spacing" textLength="88" x="1472" y="692.1479">executorId: Int?</text><text fill="#000000" font-family="sans-serif" font-size="11" lengthAdjust="spacing" textLength="96" x="1472" y="704.9526">Executor: Nurse?</text><ellipse cx="1463" cy="714.5469" fill="#000000" rx="3" ry="3" style="stroke:#000000;stroke-width:1.0;"/><text fill="#000000" font-family="sans-serif" font-size="11" lengthAdjust="spacing" textLength="171" x="1472" y="717.7573">MedicalRecord: MedicalRecord</text><ellipse cx="1463" cy="727.3516" fill="#000000" rx="3" ry="3" style="stroke:#000000;stroke-width:1.0;"/><text fill="#000000" font-family="sans-serif" font-size="11" lengthAdjust="spacing" textLength="96" x="1472" y="730.562">Prescriber: Nurse</text><line style="stroke:#A80036;stroke-width:1.5;" x1="1453" x2="1648" y1="737.1563" y2="737.1563"/><!--MD5=[4ef6a16edff0380b0f2779ea2fe63ece]
class NurseReport--><rect codeLine="132" fill="#FEFECE" filter="url(#fl2g9fxtmjgal)" height="137.6328" id="NurseReport" style="stroke:#A80036;stroke-width:1.5;" width="197" x="1684" y="575.5"/><ellipse cx="1740.75" cy="591.5" fill="#ADD1B2" rx="11" ry="11" style="stroke:#A80036;stroke-width:1.0;"/><path d="M1739.5469,592.375 L1741,592.375 L1741,592.4844 C1741,592.8906 1741.0313,593.0469 1741.1094,593.2031 C1741.2656,593.4531 1741.5469,593.6094 1741.8438,593.6094 C1742.0938,593.6094 1742.3594,593.4688 1742.5156,593.25 C1742.6406,593.0938 1742.6719,592.9375 1742.6719,592.4844 L1742.6719,590.5625 C1742.6719,590.4063 1742.6719,590.3594 1742.6563,590.2031 C1742.5938,589.7344 1742.2813,589.4219 1741.8281,589.4219 C1741.5781,589.4219 1741.3125,589.5625 1741.1406,589.7813 C1741.0313,589.9531 1741,590.1094 1741,590.5625 L1741,590.6875 L1739.5469,590.6875 L1739.5469,588.2813 L1743.5313,588.2813 L1743.5313,589.1406 C1743.5313,589.5469 1743.5625,589.7188 1743.6406,589.875 C1743.8125,590.125 1744.0938,590.2813 1744.375,590.2813 C1744.6406,590.2813 1744.9063,590.1406 1745.0781,589.9219 C1745.1875,589.75 1745.2188,589.6094 1745.2188,589.1406 L1745.2188,586.5938 L1737.5938,586.5938 C1737.1563,586.5938 1737.0313,586.6094 1736.875,586.7031 C1736.625,586.8594 1736.4688,587.1563 1736.4688,587.4375 C1736.4688,587.7188 1736.6094,587.9688 1736.8281,588.1406 C1736.9844,588.25 1737.1719,588.2813 1737.5938,588.2813 L1737.8438,588.2813 L1737.8438,594.7969 L1737.5938,594.7969 C1737.1875,594.7969 1737.0313,594.8125 1736.875,594.9219 C1736.625,595.0938 1736.4688,595.3594 1736.4688,595.6563 C1736.4688,595.9219 1736.6094,596.1719 1736.8281,596.3281 C1736.9688,596.4531 1737.2031,596.5 1737.5938,596.5 L1745.5938,596.5 L1745.5938,593.9219 C1745.5938,593.4844 1745.5625,593.3438 1745.4844,593.1875 C1745.3125,592.9375 1745.0313,592.7813 1744.75,592.7813 C1744.4844,592.7813 1744.2188,592.8906 1744.0469,593.1406 C1743.9375,593.2969 1743.9063,593.4375 1743.9063,593.9219 L1743.9063,594.7969 L1739.5469,594.7969 L1739.5469,592.375 Z " fill="#000000"/><text fill="#000000" font-family="sans-serif" font-size="12" lengthAdjust="spacing" textLength="75" x="1761.25" y="595.6543">NurseReport</text><line style="stroke:#A80036;stroke-width:1.5;" x1="1685" x2="1880" y1="607.5" y2="607.5"/><ellipse cx="1695" cy="618.5" fill="#000000" rx="3" ry="3" style="stroke:#000000;stroke-width:1.0;"/><text fill="#000000" font-family="sans-serif" font-size="11" lengthAdjust="spacing" textLength="31" x="1704" y="621.7104">id: Int</text><ellipse cx="1695" cy="631.3047" fill="#000000" rx="3" ry="3" style="stroke:#000000;stroke-width:1.0;"/><text fill="#000000" font-family="sans-serif" font-size="11" lengthAdjust="spacing" textLength="126" x="1704" y="634.5151">reportDate: DateTime</text><ellipse cx="1695" cy="644.1094" fill="#000000" rx="3" ry="3" style="stroke:#000000;stroke-width:1.0;"/><text fill="#000000" font-family="sans-serif" font-size="11" lengthAdjust="spacing" textLength="74" x="1704" y="647.3198">report: String</text><ellipse cx="1695" cy="656.9141" fill="#000000" rx="3" ry="3" style="stroke:#000000;stroke-width:1.0;"/><text fill="#000000" font-family="sans-serif" font-size="11" lengthAdjust="spacing" textLength="115" x="1704" y="660.1245">medicalRecordId: Int</text><ellipse cx="1695" cy="669.7188" fill="#000000" rx="3" ry="3" style="stroke:#000000;stroke-width:1.0;"/><text fill="#000000" font-family="sans-serif" font-size="11" lengthAdjust="spacing" textLength="83" x="1704" y="672.9292">signatoryId: Int</text><ellipse cx="1695" cy="682.5234" fill="#000000" rx="3" ry="3" style="stroke:#000000;stroke-width:1.0;"/><text fill="#000000" font-family="sans-serif" font-size="11" lengthAdjust="spacing" textLength="171" x="1704" y="685.7339">MedicalRecord: MedicalRecord</text><ellipse cx="1695" cy="695.3281" fill="#000000" rx="3" ry="3" style="stroke:#000000;stroke-width:1.0;"/><text fill="#000000" font-family="sans-serif" font-size="11" lengthAdjust="spacing" textLength="92" x="1704" y="698.5386">signatory: Nurse</text><line style="stroke:#A80036;stroke-width:1.5;" x1="1685" x2="1880" y1="705.1328" y2="705.1328"/><!--MD5=[bf963651faa913c734e6109ff257fb0b]
class ExecutorsMedicalPrescription--><rect codeLine="142" fill="#FEFECE" filter="url(#fl2g9fxtmjgal)" height="124.8281" id="ExecutorsMedicalPrescription" style="stroke:#A80036;stroke-width:1.5;" width="249" x="375" y="818"/><ellipse cx="408" cy="834" fill="#ADD1B2" rx="11" ry="11" style="stroke:#A80036;stroke-width:1.0;"/><path d="M406.7969,834.875 L408.25,834.875 L408.25,834.9844 C408.25,835.3906 408.2813,835.5469 408.3594,835.7031 C408.5156,835.9531 408.7969,836.1094 409.0938,836.1094 C409.3438,836.1094 409.6094,835.9688 409.7656,835.75 C409.8906,835.5938 409.9219,835.4375 409.9219,834.9844 L409.9219,833.0625 C409.9219,832.9063 409.9219,832.8594 409.9063,832.7031 C409.8438,832.2344 409.5313,831.9219 409.0781,831.9219 C408.8281,831.9219 408.5625,832.0625 408.3906,832.2813 C408.2813,832.4531 408.25,832.6094 408.25,833.0625 L408.25,833.1875 L406.7969,833.1875 L406.7969,830.7813 L410.7813,830.7813 L410.7813,831.6406 C410.7813,832.0469 410.8125,832.2188 410.8906,832.375 C411.0625,832.625 411.3438,832.7813 411.625,832.7813 C411.8906,832.7813 412.1563,832.6406 412.3281,832.4219 C412.4375,832.25 412.4688,832.1094 412.4688,831.6406 L412.4688,829.0938 L404.8438,829.0938 C404.4063,829.0938 404.2813,829.1094 404.125,829.2031 C403.875,829.3594 403.7188,829.6563 403.7188,829.9375 C403.7188,830.2188 403.8594,830.4688 404.0781,830.6406 C404.2344,830.75 404.4219,830.7813 404.8438,830.7813 L405.0938,830.7813 L405.0938,837.2969 L404.8438,837.2969 C404.4375,837.2969 404.2813,837.3125 404.125,837.4219 C403.875,837.5938 403.7188,837.8594 403.7188,838.1563 C403.7188,838.4219 403.8594,838.6719 404.0781,838.8281 C404.2188,838.9531 404.4531,839 404.8438,839 L412.8438,839 L412.8438,836.4219 C412.8438,835.9844 412.8125,835.8438 412.7344,835.6875 C412.5625,835.4375 412.2813,835.2813 412,835.2813 C411.7344,835.2813 411.4688,835.3906 411.2969,835.6406 C411.1875,835.7969 411.1563,835.9375 411.1563,836.4219 L411.1563,837.2969 L406.7969,837.2969 L406.7969,834.875 Z " fill="#000000"/><text fill="#000000" font-family="sans-serif" font-size="12" lengthAdjust="spacing" textLength="177" x="426" y="838.1543">ExecutorsMedicalPrescription</text><line style="stroke:#A80036;stroke-width:1.5;" x1="376" x2="623" y1="850" y2="850"/><ellipse cx="386" cy="861" fill="#000000" rx="3" ry="3" style="stroke:#000000;stroke-width:1.0;"/><text fill="#000000" font-family="sans-serif" font-size="11" lengthAdjust="spacing" textLength="31" x="395" y="864.2104">id: Int</text><ellipse cx="386" cy="873.8047" fill="#000000" rx="3" ry="3" style="stroke:#000000;stroke-width:1.0;"/><text fill="#000000" font-family="sans-serif" font-size="11" lengthAdjust="spacing" textLength="141" x="395" y="877.0151">medicalPrescriptionId: Int</text><ellipse cx="386" cy="886.6094" fill="#000000" rx="3" ry="3" style="stroke:#000000;stroke-width:1.0;"/><text fill="#000000" font-family="sans-serif" font-size="11" lengthAdjust="spacing" textLength="82" x="395" y="889.8198">executorId: Int</text><ellipse cx="386" cy="899.4141" fill="#000000" rx="3" ry="3" style="stroke:#000000;stroke-width:1.0;"/><text fill="#000000" font-family="sans-serif" font-size="11" lengthAdjust="spacing" textLength="149" x="395" y="902.6245">executionDate: DateTime</text><ellipse cx="386" cy="912.2188" fill="#000000" rx="3" ry="3" style="stroke:#000000;stroke-width:1.0;"/><text fill="#000000" font-family="sans-serif" font-size="11" lengthAdjust="spacing" textLength="90" x="395" y="915.4292">Executor: Nurse</text><ellipse cx="386" cy="925.0234" fill="#000000" rx="3" ry="3" style="stroke:#000000;stroke-width:1.0;"/><text fill="#000000" font-family="sans-serif" font-size="11" lengthAdjust="spacing" textLength="223" x="395" y="928.2339">MedicalPrescription: MedicalPrescription</text><line style="stroke:#A80036;stroke-width:1.5;" x1="376" x2="623" y1="934.8281" y2="934.8281"/><!--MD5=[2c5a3c95ff381545d9ca50069ff1bab6]
class LinkResetEmail--><rect codeLine="151" fill="#FEFECE" filter="url(#fl2g9fxtmjgal)" height="124.8281" id="LinkResetEmail" style="stroke:#A80036;stroke-width:1.5;" width="127" x="1376" y="339.5"/><ellipse cx="1394.15" cy="355.5" fill="#ADD1B2" rx="11" ry="11" style="stroke:#A80036;stroke-width:1.0;"/><path d="M1392.9469,356.375 L1394.4,356.375 L1394.4,356.4844 C1394.4,356.8906 1394.4313,357.0469 1394.5094,357.2031 C1394.6656,357.4531 1394.9469,357.6094 1395.2438,357.6094 C1395.4938,357.6094 1395.7594,357.4688 1395.9156,357.25 C1396.0406,357.0938 1396.0719,356.9375 1396.0719,356.4844 L1396.0719,354.5625 C1396.0719,354.4063 1396.0719,354.3594 1396.0563,354.2031 C1395.9938,353.7344 1395.6813,353.4219 1395.2281,353.4219 C1394.9781,353.4219 1394.7125,353.5625 1394.5406,353.7813 C1394.4313,353.9531 1394.4,354.1094 1394.4,354.5625 L1394.4,354.6875 L1392.9469,354.6875 L1392.9469,352.2813 L1396.9313,352.2813 L1396.9313,353.1406 C1396.9313,353.5469 1396.9625,353.7188 1397.0406,353.875 C1397.2125,354.125 1397.4938,354.2813 1397.775,354.2813 C1398.0406,354.2813 1398.3063,354.1406 1398.4781,353.9219 C1398.5875,353.75 1398.6188,353.6094 1398.6188,353.1406 L1398.6188,350.5938 L1390.9938,350.5938 C1390.5563,350.5938 1390.4313,350.6094 1390.275,350.7031 C1390.025,350.8594 1389.8688,351.1563 1389.8688,351.4375 C1389.8688,351.7188 1390.0094,351.9688 1390.2281,352.1406 C1390.3844,352.25 1390.5719,352.2813 1390.9938,352.2813 L1391.2438,352.2813 L1391.2438,358.7969 L1390.9938,358.7969 C1390.5875,358.7969 1390.4313,358.8125 1390.275,358.9219 C1390.025,359.0938 1389.8688,359.3594 1389.8688,359.6563 C1389.8688,359.9219 1390.0094,360.1719 1390.2281,360.3281 C1390.3688,360.4531 1390.6031,360.5 1390.9938,360.5 L1398.9938,360.5 L1398.9938,357.9219 C1398.9938,357.4844 1398.9625,357.3438 1398.8844,357.1875 C1398.7125,356.9375 1398.4313,356.7813 1398.15,356.7813 C1397.8844,356.7813 1397.6188,356.8906 1397.4469,357.1406 C1397.3375,357.2969 1397.3063,357.4375 1397.3063,357.9219 L1397.3063,358.7969 L1392.9469,358.7969 L1392.9469,356.375 Z " fill="#000000"/><text fill="#000000" font-family="sans-serif" font-size="12" lengthAdjust="spacing" textLength="88" x="1408.85" y="359.6543">LinkResetEmail</text><line style="stroke:#A80036;stroke-width:1.5;" x1="1377" x2="1502" y1="371.5" y2="371.5"/><ellipse cx="1387" cy="382.5" fill="#000000" rx="3" ry="3" style="stroke:#000000;stroke-width:1.0;"/><text fill="#000000" font-family="sans-serif" font-size="11" lengthAdjust="spacing" textLength="31" x="1396" y="385.7104">id: Int</text><ellipse cx="1387" cy="395.3047" fill="#000000" rx="3" ry="3" style="stroke:#000000;stroke-width:1.0;"/><text fill="#000000" font-family="sans-serif" font-size="11" lengthAdjust="spacing" textLength="54" x="1396" y="398.5151">url: String</text><ellipse cx="1387" cy="408.1094" fill="#000000" rx="3" ry="3" style="stroke:#000000;stroke-width:1.0;"/><text fill="#000000" font-family="sans-serif" font-size="11" lengthAdjust="spacing" textLength="101" x="1396" y="411.3198">expire: DateTime</text><ellipse cx="1387" cy="420.9141" fill="#000000" rx="3" ry="3" style="stroke:#000000;stroke-width:1.0;"/><text fill="#000000" font-family="sans-serif" font-size="11" lengthAdjust="spacing" textLength="95" x="1396" y="424.1245">newEmail: String</text><ellipse cx="1387" cy="433.7188" fill="#000000" rx="3" ry="3" style="stroke:#000000;stroke-width:1.0;"/><text fill="#000000" font-family="sans-serif" font-size="11" lengthAdjust="spacing" textLength="59" x="1396" y="436.9292">User: User</text><ellipse cx="1387" cy="446.5234" fill="#000000" rx="3" ry="3" style="stroke:#000000;stroke-width:1.0;"/><text fill="#000000" font-family="sans-serif" font-size="11" lengthAdjust="spacing" textLength="56" x="1396" y="449.7339">userId: Int</text><line style="stroke:#A80036;stroke-width:1.5;" x1="1377" x2="1502" y1="456.3281" y2="456.3281"/><!--MD5=[67141e6eb3ba199f7c4756941637724e]
link User to Group--><path codeLine="160" d="M485.779,96 C485.779,96 240.667,96 240.667,96 C240.667,96 240.667,337.875 240.667,337.875 " fill="none" id="User-Group" style="stroke:#A80036;stroke-width:1.0;stroke-dasharray:7.0,7.0;"/><line style="stroke:#A80036;stroke-width:1.0;" x1="240.667" x2="240.667" y1="334.875" y2="345.875"/><ellipse cx="240.667" cy="334.875" rx="4" ry="4" style="stroke:#A80036;stroke-width:1.0;fill:none;"/><line style="stroke:#A80036;stroke-width:1.0;fill:none;" x1="244.667" x2="236.667" y1="341.875" y2="341.875"/><line style="stroke:#A80036;stroke-width:1.0;fill:none;" x1="485.779" x2="493.779" y1="96" y2="90"/><line style="stroke:#A80036;stroke-width:1.0;fill:none;" x1="485.779" x2="493.779" y1="96" y2="102"/><line style="stroke:#A80036;stroke-width:1.0;fill:none;" x1="485.779" x2="493.779" y1="96" y2="96"/><line style="stroke:#A80036;stroke-width:1.0;fill:none;" x1="483.779" x2="483.779" y1="92" y2="100"/><!--MD5=[67141e6eb3ba199f7c4756941637724e]
link User to Group--><path codeLine="162" d="M485.967,185 C485.967,185 290.333,185 290.333,185 C290.333,185 290.333,337.835 290.333,337.835 " fill="none" id="User-Group-1" style="stroke:#A80036;stroke-width:1.0;stroke-dasharray:7.0,7.0;"/><line style="stroke:#A80036;stroke-width:1.0;" x1="290.333" x2="290.333" y1="334.835" y2="345.835"/><ellipse cx="290.333" cy="334.835" rx="4" ry="4" style="stroke:#A80036;stroke-width:1.0;fill:none;"/><line style="stroke:#A80036;stroke-width:1.0;fill:none;" x1="294.333" x2="286.333" y1="341.835" y2="341.835"/><line style="stroke:#A80036;stroke-width:1.0;fill:none;" x1="485.967" x2="493.967" y1="185" y2="179"/><line style="stroke:#A80036;stroke-width:1.0;fill:none;" x1="485.967" x2="493.967" y1="185" y2="191"/><line style="stroke:#A80036;stroke-width:1.0;fill:none;" x1="485.967" x2="493.967" y1="185" y2="185"/><line style="stroke:#A80036;stroke-width:1.0;fill:none;" x1="483.967" x2="483.967" y1="181" y2="189"/><!--MD5=[b6d3dd3a27d395b097e9e19547bf02f2]
link User to Jwt--><path codeLine="161" d="M537.167,281.167 C537.167,281.167 537.167,338 537.167,338 C537.167,338 164.234,338 164.234,338 " fill="none" id="User-Jwt" style="stroke:#A80036;stroke-width:1.0;stroke-dasharray:7.0,7.0;"/><line style="stroke:#A80036;stroke-width:1.0;" x1="167.234" x2="156.234" y1="338" y2="338"/><ellipse cx="167.234" cy="338" rx="4" ry="4" style="stroke:#A80036;stroke-width:1.0;fill:none;"/><line style="stroke:#A80036;stroke-width:1.0;fill:none;" x1="160.234" x2="160.234" y1="342" y2="334"/><line style="stroke:#A80036;stroke-width:1.0;fill:none;" x1="533.167" x2="541.167" y1="277.167" y2="277.167"/><line style="stroke:#A80036;stroke-width:1.0;fill:none;" x1="533.167" x2="541.167" y1="280.167" y2="280.167"/><line style="stroke:#A80036;stroke-width:1.0;fill:none;" x1="537.167" x2="537.167" y1="281.167" y2="273.167"/><!--MD5=[5499e531898646cba9793dbd8f48ef3a]
link Patient to MedicalRecord--><path codeLine="163" d="M1632.67,255.321 C1632.67,255.321 1632.67,324.718 1632.67,324.718 " fill="none" id="Patient-MedicalRecord" style="stroke:#A80036;stroke-width:1.0;stroke-dasharray:7.0,7.0;"/><line style="stroke:#A80036;stroke-width:1.0;" x1="1632.67" x2="1632.67" y1="321.718" y2="332.718"/><ellipse cx="1632.67" cy="321.718" rx="4" ry="4" style="stroke:#A80036;stroke-width:1.0;fill:none;"/><line style="stroke:#A80036;stroke-width:1.0;fill:none;" x1="1636.67" x2="1628.67" y1="328.718" y2="328.718"/><line style="stroke:#A80036;stroke-width:1.0;fill:none;" x1="1628.67" x2="1636.67" y1="251.321" y2="251.321"/><line style="stroke:#A80036;stroke-width:1.0;fill:none;" x1="1628.67" x2="1636.67" y1="254.321" y2="254.321"/><line style="stroke:#A80036;stroke-width:1.0;fill:none;" x1="1632.67" x2="1632.67" y1="255.321" y2="247.321"/><!--MD5=[5499e531898646cba9793dbd8f48ef3a]
link Patient to MedicalRecord--><path codeLine="167" d="M1700.33,255.321 C1700.33,255.321 1700.33,324.718 1700.33,324.718 " fill="none" id="Patient-MedicalRecord-1" style="stroke:#A80036;stroke-width:1.0;stroke-dasharray:7.0,7.0;"/><line style="stroke:#A80036;stroke-width:1.0;" x1="1700.33" x2="1700.33" y1="321.718" y2="332.718"/><ellipse cx="1700.33" cy="321.718" rx="4" ry="4" style="stroke:#A80036;stroke-width:1.0;fill:none;"/><line style="stroke:#A80036;stroke-width:1.0;fill:none;" x1="1704.33" x2="1696.33" y1="328.718" y2="328.718"/><line style="stroke:#A80036;stroke-width:1.0;fill:none;" x1="1696.33" x2="1704.33" y1="251.321" y2="251.321"/><line style="stroke:#A80036;stroke-width:1.0;fill:none;" x1="1696.33" x2="1704.33" y1="254.321" y2="254.321"/><line style="stroke:#A80036;stroke-width:1.0;fill:none;" x1="1700.33" x2="1700.33" y1="255.321" y2="247.321"/><!--MD5=[368f8f536ed01aad29fd9302b9bb6d68]
link User to Doctor--><path codeLine="164" d="M580.333,281.303 C580.333,281.303 580.333,337.994 580.333,337.994 " fill="none" id="User-Doctor" style="stroke:#A80036;stroke-width:1.0;stroke-dasharray:7.0,7.0;"/><line style="stroke:#A80036;stroke-width:1.0;" x1="580.333" x2="580.333" y1="334.994" y2="345.994"/><ellipse cx="580.333" cy="334.994" rx="4" ry="4" style="stroke:#A80036;stroke-width:1.0;fill:none;"/><line style="stroke:#A80036;stroke-width:1.0;fill:none;" x1="584.333" x2="576.333" y1="341.994" y2="341.994"/><line style="stroke:#A80036;stroke-width:1.0;fill:none;" x1="576.333" x2="584.333" y1="277.303" y2="277.303"/><line style="stroke:#A80036;stroke-width:1.0;fill:none;" x1="576.333" x2="584.333" y1="280.303" y2="280.303"/><line style="stroke:#A80036;stroke-width:1.0;fill:none;" x1="580.333" x2="580.333" y1="281.303" y2="273.303"/><!--MD5=[1e108d242f2159a04bb04a1d1378df89]
link User to Adm--><path codeLine="165" d="M674,281.303 C674,281.303 674,356.982 674,356.982 " fill="none" id="User-Adm" style="stroke:#A80036;stroke-width:1.0;stroke-dasharray:7.0,7.0;"/><line style="stroke:#A80036;stroke-width:1.0;" x1="674" x2="674" y1="353.982" y2="364.982"/><ellipse cx="674" cy="353.982" rx="4" ry="4" style="stroke:#A80036;stroke-width:1.0;fill:none;"/><line style="stroke:#A80036;stroke-width:1.0;fill:none;" x1="678" x2="670" y1="360.982" y2="360.982"/><line style="stroke:#A80036;stroke-width:1.0;fill:none;" x1="670" x2="678" y1="277.303" y2="277.303"/><line style="stroke:#A80036;stroke-width:1.0;fill:none;" x1="670" x2="678" y1="280.303" y2="280.303"/><line style="stroke:#A80036;stroke-width:1.0;fill:none;" x1="674" x2="674" y1="281.303" y2="273.303"/><!--MD5=[9128ef9680314361adbc1f4cf193280d]
link Doctor to MedicalPrescription--><path codeLine="166" d="M499.5,466.244 C499.5,466.244 499.5,522.75 499.5,522.75 " fill="none" id="Doctor-MedicalPrescription" style="stroke:#A80036;stroke-width:1.0;stroke-dasharray:7.0,7.0;"/><line style="stroke:#A80036;stroke-width:1.0;" x1="499.5" x2="505.5" y1="522.75" y2="530.75"/><line style="stroke:#A80036;stroke-width:1.0;" x1="499.5" x2="493.5" y1="522.75" y2="530.75"/><line style="stroke:#A80036;stroke-width:1.0;" x1="499.5" x2="499.5" y1="522.75" y2="530.75"/><line style="stroke:#A80036;stroke-width:1.0;" x1="503.5" x2="495.5" y1="520.75" y2="520.75"/><line style="stroke:#A80036;stroke-width:1.0;" x1="495.5" x2="503.5" y1="462.244" y2="462.244"/><line style="stroke:#A80036;stroke-width:1.0;" x1="495.5" x2="503.5" y1="465.244" y2="465.244"/><line style="stroke:#A80036;stroke-width:1.0;" x1="499.5" x2="499.5" y1="466.244" y2="458.244"/><!--MD5=[e15fb0f5fa1df4ddc09bb30ea4f267f0]
link User to TeamReport--><path codeLine="168" d="M689.5,281.048 C689.5,281.048 689.5,342 689.5,342 C689.5,342 769.798,342 769.798,342 " fill="none" id="User-TeamReport" style="stroke:#A80036;stroke-width:1.0;stroke-dasharray:7.0,7.0;"/><line style="stroke:#A80036;stroke-width:1.0;" x1="769.798" x2="777.798" y1="342" y2="336"/><line style="stroke:#A80036;stroke-width:1.0;" x1="769.798" x2="777.798" y1="342" y2="348"/><line style="stroke:#A80036;stroke-width:1.0;" x1="769.798" x2="777.798" y1="342" y2="342"/><line style="stroke:#A80036;stroke-width:1.0;" x1="767.798" x2="767.798" y1="338" y2="346"/><line style="stroke:#A80036;stroke-width:1.0;" x1="685.5" x2="693.5" y1="277.048" y2="277.048"/><line style="stroke:#A80036;stroke-width:1.0;" x1="685.5" x2="693.5" y1="280.048" y2="280.048"/><line style="stroke:#A80036;stroke-width:1.0;" x1="689.5" x2="689.5" y1="281.048" y2="273.048"/><!--MD5=[e2f390ff4d92bb292ca9911c4fa65422]
link User to Nurse--><path codeLine="169" d="M713.147,265 C713.147,265 1175.5,265 1175.5,265 C1175.5,265 1175.5,324.697 1175.5,324.697 " fill="none" id="User-Nurse" style="stroke:#A80036;stroke-width:1.0;stroke-dasharray:7.0,7.0;"/><line style="stroke:#A80036;stroke-width:1.0;" x1="1175.5" x2="1175.5" y1="321.697" y2="332.697"/><ellipse cx="1175.5" cy="321.697" rx="4" ry="4" style="stroke:#A80036;stroke-width:1.0;fill:none;"/><line style="stroke:#A80036;stroke-width:1.0;fill:none;" x1="1179.5" x2="1171.5" y1="328.697" y2="328.697"/><line style="stroke:#A80036;stroke-width:1.0;fill:none;" x1="709.147" x2="709.147" y1="269" y2="261"/><line style="stroke:#A80036;stroke-width:1.0;fill:none;" x1="712.147" x2="712.147" y1="269" y2="261"/><line style="stroke:#A80036;stroke-width:1.0;fill:none;" x1="713.147" x2="705.147" y1="265" y2="265"/><!--MD5=[7406c410648326ab31d5abb90736e2a3]
link MedicalRecord to NursePrescription--><path codeLine="170" d="M1593.5,479.166 C1593.5,479.166 1593.5,535.129 1593.5,535.129 " fill="none" id="MedicalRecord-NursePrescription" style="stroke:#A80036;stroke-width:1.0;stroke-dasharray:7.0,7.0;"/><line style="stroke:#A80036;stroke-width:1.0;" x1="1593.5" x2="1599.5" y1="535.129" y2="543.129"/><line style="stroke:#A80036;stroke-width:1.0;" x1="1593.5" x2="1587.5" y1="535.129" y2="543.129"/><line style="stroke:#A80036;stroke-width:1.0;" x1="1593.5" x2="1593.5" y1="535.129" y2="543.129"/><line style="stroke:#A80036;stroke-width:1.0;" x1="1597.5" x2="1589.5" y1="533.129" y2="533.129"/><line style="stroke:#A80036;stroke-width:1.0;" x1="1589.5" x2="1597.5" y1="475.166" y2="475.166"/><line style="stroke:#A80036;stroke-width:1.0;" x1="1589.5" x2="1597.5" y1="478.166" y2="478.166"/><line style="stroke:#A80036;stroke-width:1.0;" x1="1593.5" x2="1593.5" y1="479.166" y2="471.166"/><!--MD5=[cd3fcb776391f88b4419779acf245183]
link MedicalRecord to NurseReport--><path codeLine="171" d="M1739.5,479.166 C1739.5,479.166 1739.5,567.242 1739.5,567.242 " fill="none" id="MedicalRecord-NurseReport" style="stroke:#A80036;stroke-width:1.0;stroke-dasharray:7.0,7.0;"/><line style="stroke:#A80036;stroke-width:1.0;" x1="1739.5" x2="1745.5" y1="567.242" y2="575.242"/><line style="stroke:#A80036;stroke-width:1.0;" x1="1739.5" x2="1733.5" y1="567.242" y2="575.242"/><line style="stroke:#A80036;stroke-width:1.0;" x1="1739.5" x2="1739.5" y1="567.242" y2="575.242"/><line style="stroke:#A80036;stroke-width:1.0;" x1="1743.5" x2="1735.5" y1="565.242" y2="565.242"/><line style="stroke:#A80036;stroke-width:1.0;" x1="1735.5" x2="1743.5" y1="475.166" y2="475.166"/><line style="stroke:#A80036;stroke-width:1.0;" x1="1735.5" x2="1743.5" y1="478.166" y2="478.166"/><line style="stroke:#A80036;stroke-width:1.0;" x1="1739.5" x2="1739.5" y1="479.166" y2="471.166"/><!--MD5=[f3d6c2e42e51a5dfe566d3dd43151177]
link MedicalPrescription to ExecutorsMedicalPrescription--><path codeLine="172" d="M499.5,766.007 C499.5,766.007 499.5,809.696 499.5,809.696 " fill="none" id="MedicalPrescription-ExecutorsMedicalPrescription" style="stroke:#A80036;stroke-width:1.0;stroke-dasharray:7.0,7.0;"/><line style="stroke:#A80036;stroke-width:1.0;" x1="499.5" x2="505.5" y1="809.696" y2="817.696"/><line style="stroke:#A80036;stroke-width:1.0;" x1="499.5" x2="493.5" y1="809.696" y2="817.696"/><line style="stroke:#A80036;stroke-width:1.0;" x1="499.5" x2="499.5" y1="809.696" y2="817.696"/><line style="stroke:#A80036;stroke-width:1.0;" x1="503.5" x2="495.5" y1="807.696" y2="807.696"/><line style="stroke:#A80036;stroke-width:1.0;" x1="495.5" x2="503.5" y1="762.007" y2="762.007"/><line style="stroke:#A80036;stroke-width:1.0;" x1="495.5" x2="503.5" y1="765.007" y2="765.007"/><line style="stroke:#A80036;stroke-width:1.0;" x1="499.5" x2="499.5" y1="766.007" y2="758.007"/><!--MD5=[ea0e985d22d9bd3ab93e4bc4a749f055]
link User to LinkResetEmail--><path codeLine="173" d="M713.036,256 C713.036,256 1439.5,256 1439.5,256 C1439.5,256 1439.5,331.236 1439.5,331.236 " fill="none" id="User-LinkResetEmail" style="stroke:#A80036;stroke-width:1.0;stroke-dasharray:7.0,7.0;"/><line style="stroke:#A80036;stroke-width:1.0;" x1="1439.5" x2="1439.5" y1="328.236" y2="339.236"/><ellipse cx="1439.5" cy="328.236" rx="4" ry="4" style="stroke:#A80036;stroke-width:1.0;fill:none;"/><line style="stroke:#A80036;stroke-width:1.0;fill:none;" x1="1443.5" x2="1435.5" y1="335.236" y2="335.236"/><line style="stroke:#A80036;stroke-width:1.0;fill:none;" x1="709.036" x2="709.036" y1="260" y2="252"/><line style="stroke:#A80036;stroke-width:1.0;fill:none;" x1="712.036" x2="712.036" y1="260" y2="252"/><line style="stroke:#A80036;stroke-width:1.0;fill:none;" x1="713.036" x2="705.036" y1="256" y2="256"/><!--MD5=[a6591f72eb4b36585bf63c473d7dea61]
@startuml
skinparam linetype ortho

entity User {
  * id: Int
  * email: String
  * password: String
  * createdAt: DateTime
  * updatedAt: DateTime
  * active: Boolean
  groupId: Int?
  phone: String?
  * gender: String
  * name: String
  Groups: Group?
  Adm: Adm?
  Doctor: Doctor?
  Jwts: Jwt?
  Nurse: Nurse?
  * TeamReport: TeamReport[]
  LinkResetEmail: LinkResetEmail?
}

entity Jwt {
  * id: Int
  * token: String
  * expire: DateTime
  * idUser: Int
  * createdAt: DateTime
  * updatedAt: DateTime
  * User: User
}

entity Group {
  * id: Int
  * createdAt: DateTime
  * updatedAt: DateTime
  * name: String
  * User: User[]
}

entity Patient {
  * id: Int
  * name: String
  * lastName: String
  addressNumber: String?
  cep: String?
  * birthday: DateTime
  phone: String?
  healthInsurance: String?
  * cpf: String
  * rg: String
  * gender: String
  complement: String?
  MedicalRecord: MedicalRecord?
}

entity Doctor {
  * crm: String
  * area: String
  * userId: Int
  * user: User
  * MedicalPrescriber: MedicalPrescription[]
}

entity Adm {
  * userId: Int
  * user: User
}

entity MedicalPrescription {
  * id: Int
  * drug: String
  * drugDosage: String
  * drugWay: String
  * administrationInterval: String
  * prescriptionDate: DateTime
  * realized: Boolean
  obs: String?
  * medicalRecordId: Int
  * prescriberId: Int
  * administrationCount: Int
  * MedicalRecord: MedicalRecord
  * Prescriber: Doctor
  * Executors: ExecutorsMedicalPrescription[]
}

entity MedicalRecord {
  * id: Int
  * patientId: Int
  * patient: Patient
  * MedicalPrescription: MedicalPrescription[]
  * NursePrescription: NursePrescription[]
  * NurseReport: NurseReport[]
  * TeamReport: TeamReport[]
}

entity TeamReport {
  * id: Int
  * reportDate: DateTime
  * report: String
  * userId: Int
  * medicalRecordId: Int
  * MedicalRecord: MedicalRecord
  * signatory: User
}

entity Nurse {
  * coren: String
  * userId: Int
  * user: User
  * NurseExecutorMedical: ExecutorsMedicalPrescription[]
  * NurseExecutor: NursePrescription[]
  * NursePrescriber: NursePrescription[]
  * NurseReport: NurseReport[]
}

entity NursePrescription {
  * id: Int
  * prescription: String
  * prescriptionDate: DateTime
  * realized: Boolean
  obs: String?
  executionDate: DateTime?
  * medicalRecordId: Int
  * prescriberId: Int
  executorId: Int?
  Executor: Nurse?
  * MedicalRecord: MedicalRecord
  * Prescriber: Nurse
}

entity NurseReport {
  * id: Int
  * reportDate: DateTime
  * report: String
  * medicalRecordId: Int
  * signatoryId: Int
  * MedicalRecord: MedicalRecord
  * signatory: Nurse
}

entity ExecutorsMedicalPrescription {
  * id: Int
  * medicalPrescriptionId: Int
  * executorId: Int
  * executionDate: DateTime
  * Executor: Nurse
  * MedicalPrescription: MedicalPrescription
}

entity LinkResetEmail {
  * id: Int
  * url: String
  * expire: DateTime
  * newEmail: String
  * User: User
  * userId: Int
}

User }|..o| Group
User ||..o| Jwt
User }|..o| Group
Patient ||..o| MedicalRecord
User ||..o| Doctor
User ||..o| Adm
Doctor ||..|{ MedicalPrescription
Patient ||..o| MedicalRecord
User ||..|{ TeamReport
User ||..o| Nurse
MedicalRecord ||..|{ NursePrescription
MedicalRecord ||..|{ NurseReport
MedicalPrescription ||..|{ ExecutorsMedicalPrescription
User ||..o| LinkResetEmail
@enduml

PlantUML version 1.2021.14beta6(Unknown compile time)
(GPL source distribution)
Java Runtime: Java(TM) SE Runtime Environment
JVM: Java HotSpot(TM) 64-Bit Server VM
Default Encoding: UTF-8
Language: en
Country: US
--></g></svg>