<?xml version="1.0" encoding="UTF-8" standalone="no"?><svg xmlns="http://www.w3.org/2000/svg" xmlns:xlink="http://www.w3.org/1999/xlink" contentScriptType="application/ecmascript" contentStyleType="text/css" height="955px" preserveAspectRatio="none" style="width:2297px;height:955px;background:#FFFFFF;" version="1.1" viewBox="0 0 2297 955" width="2297px" zoomAndPan="magnify"><defs><filter height="300%" id="f1fa8mkxispdly" width="300%" x="-1" y="-1"><feGaussianBlur result="blurOut" stdDeviation="2.0"/><feColorMatrix in="blurOut" result="blurOut2" type="matrix" values="0 0 0 0 0 0 0 0 0 0 0 0 0 0 0 0 0 0 .4 0"/><feOffset dx="4.0" dy="4.0" in="blurOut2" result="blurOut3"/><feBlend in="SourceGraphic" in2="blurOut3" mode="normal"/></filter></defs><g><!--MD5=[3fd616f346a44cd59a91eb10b19e157c]
class User--><rect codeLine="3" fill="#FEFECE" filter="url(#f1fa8mkxispdly)" height="252.875" id="User" style="stroke:#A80036;stroke-width:1.5;" width="181" x="607" y="7"/><ellipse cx="678.75" cy="23" fill="#ADD1B2" rx="11" ry="11" style="stroke:#A80036;stroke-width:1.0;"/><path d="M677.5469,23.875 L679,23.875 L679,23.9844 C679,24.3906 679.0313,24.5469 679.1094,24.7031 C679.2656,24.9531 679.5469,25.1094 679.8438,25.1094 C680.0938,25.1094 680.3594,24.9688 680.5156,24.75 C680.6406,24.5938 680.6719,24.4375 680.6719,23.9844 L680.6719,22.0625 C680.6719,21.9063 680.6719,21.8594 680.6563,21.7031 C680.5938,21.2344 680.2813,20.9219 679.8281,20.9219 C679.5781,20.9219 679.3125,21.0625 679.1406,21.2813 C679.0313,21.4531 679,21.6094 679,22.0625 L679,22.1875 L677.5469,22.1875 L677.5469,19.7813 L681.5313,19.7813 L681.5313,20.6406 C681.5313,21.0469 681.5625,21.2188 681.6406,21.375 C681.8125,21.625 682.0938,21.7813 682.375,21.7813 C682.6406,21.7813 682.9063,21.6406 683.0781,21.4219 C683.1875,21.25 683.2188,21.1094 683.2188,20.6406 L683.2188,18.0938 L675.5938,18.0938 C675.1563,18.0938 675.0313,18.1094 674.875,18.2031 C674.625,18.3594 674.4688,18.6563 674.4688,18.9375 C674.4688,19.2188 674.6094,19.4688 674.8281,19.6406 C674.9844,19.75 675.1719,19.7813 675.5938,19.7813 L675.8438,19.7813 L675.8438,26.2969 L675.5938,26.2969 C675.1875,26.2969 675.0313,26.3125 674.875,26.4219 C674.625,26.5938 674.4688,26.8594 674.4688,27.1563 C674.4688,27.4219 674.6094,27.6719 674.8281,27.8281 C674.9688,27.9531 675.2031,28 675.5938,28 L683.5938,28 L683.5938,25.4219 C683.5938,24.9844 683.5625,24.8438 683.4844,24.6875 C683.3125,24.4375 683.0313,24.2813 682.75,24.2813 C682.4844,24.2813 682.2188,24.3906 682.0469,24.6406 C681.9375,24.7969 681.9063,24.9375 681.9063,25.4219 L681.9063,26.2969 L677.5469,26.2969 L677.5469,23.875 Z " fill="#000000"/><text fill="#000000" font-family="sans-serif" font-size="12" lengthAdjust="spacing" textLength="29" x="699.25" y="27.1543">User</text><line style="stroke:#A80036;stroke-width:1.5;" x1="608" x2="787" y1="39" y2="39"/><ellipse cx="618" cy="50" fill="#000000" rx="3" ry="3" style="stroke:#000000;stroke-width:1.0;"/><text fill="#000000" font-family="sans-serif" font-size="11" lengthAdjust="spacing" textLength="31" x="627" y="53.2104">id: Int</text><ellipse cx="618" cy="62.8047" fill="#000000" rx="3" ry="3" style="stroke:#000000;stroke-width:1.0;"/><text fill="#000000" font-family="sans-serif" font-size="11" lengthAdjust="spacing" textLength="72" x="627" y="66.0151">email: String</text><ellipse cx="618" cy="75.6094" fill="#000000" rx="3" ry="3" style="stroke:#000000;stroke-width:1.0;"/><text fill="#000000" font-family="sans-serif" font-size="11" lengthAdjust="spacing" textLength="93" x="627" y="78.8198">password: String</text><ellipse cx="618" cy="88.4141" fill="#000000" rx="3" ry="3" style="stroke:#000000;stroke-width:1.0;"/><text fill="#000000" font-family="sans-serif" font-size="11" lengthAdjust="spacing" textLength="120" x="627" y="91.6245">createdAt: DateTime</text><ellipse cx="618" cy="101.2188" fill="#000000" rx="3" ry="3" style="stroke:#000000;stroke-width:1.0;"/><text fill="#000000" font-family="sans-serif" font-size="11" lengthAdjust="spacing" textLength="123" x="627" y="104.4292">updatedAt: DateTime</text><text fill="#000000" font-family="sans-serif" font-size="11" lengthAdjust="spacing" textLength="69" x="627" y="117.2339">groupId: Int?</text><text fill="#000000" font-family="sans-serif" font-size="11" lengthAdjust="spacing" textLength="82" x="627" y="130.0386">phone: String?</text><ellipse cx="618" cy="139.6328" fill="#000000" rx="3" ry="3" style="stroke:#000000;stroke-width:1.0;"/><text fill="#000000" font-family="sans-serif" font-size="11" lengthAdjust="spacing" textLength="81" x="627" y="142.8433">gender: String</text><ellipse cx="618" cy="152.4375" fill="#000000" rx="3" ry="3" style="stroke:#000000;stroke-width:1.0;"/><text fill="#000000" font-family="sans-serif" font-size="11" lengthAdjust="spacing" textLength="73" x="627" y="155.6479">name: String</text><text fill="#000000" font-family="sans-serif" font-size="11" lengthAdjust="spacing" textLength="87" x="627" y="168.4526">Groups: Group?</text><text fill="#000000" font-family="sans-serif" font-size="11" lengthAdjust="spacing" textLength="65" x="627" y="181.2573">Adm: Adm?</text><text fill="#000000" font-family="sans-serif" font-size="11" lengthAdjust="spacing" textLength="87" x="627" y="194.062">Doctor: Doctor?</text><text fill="#000000" font-family="sans-serif" font-size="11" lengthAdjust="spacing" textLength="51" x="627" y="206.8667">Jwts: Jwt?</text><ellipse cx="618" cy="216.4609" fill="#000000" rx="3" ry="3" style="stroke:#000000;stroke-width:1.0;"/><text fill="#000000" font-family="sans-serif" font-size="11" lengthAdjust="spacing" textLength="125" x="627" y="219.6714">LinkReset: LinkReset[]</text><text fill="#000000" font-family="sans-serif" font-size="11" lengthAdjust="spacing" textLength="79" x="627" y="232.4761">Nurse: Nurse?</text><ellipse cx="618" cy="242.0703" fill="#000000" rx="3" ry="3" style="stroke:#000000;stroke-width:1.0;"/><text fill="#000000" font-family="sans-serif" font-size="11" lengthAdjust="spacing" textLength="155" x="627" y="245.2808">TeamReport: TeamReport[]</text><line style="stroke:#A80036;stroke-width:1.5;" x1="608" x2="787" y1="251.875" y2="251.875"/><!--MD5=[8d0aa4c87893388269c540d0d03eb533]
class Jwt--><rect codeLine="22" fill="#FEFECE" filter="url(#f1fa8mkxispdly)" height="137.6328" id="Jwt" style="stroke:#A80036;stroke-width:1.5;" width="149" x="1492" y="326"/><ellipse cx="1553.25" cy="342" fill="#ADD1B2" rx="11" ry="11" style="stroke:#A80036;stroke-width:1.0;"/><path d="M1552.0469,342.875 L1553.5,342.875 L1553.5,342.9844 C1553.5,343.3906 1553.5313,343.5469 1553.6094,343.7031 C1553.7656,343.9531 1554.0469,344.1094 1554.3438,344.1094 C1554.5938,344.1094 1554.8594,343.9688 1555.0156,343.75 C1555.1406,343.5938 1555.1719,343.4375 1555.1719,342.9844 L1555.1719,341.0625 C1555.1719,340.9063 1555.1719,340.8594 1555.1563,340.7031 C1555.0938,340.2344 1554.7813,339.9219 1554.3281,339.9219 C1554.0781,339.9219 1553.8125,340.0625 1553.6406,340.2813 C1553.5313,340.4531 1553.5,340.6094 1553.5,341.0625 L1553.5,341.1875 L1552.0469,341.1875 L1552.0469,338.7813 L1556.0313,338.7813 L1556.0313,339.6406 C1556.0313,340.0469 1556.0625,340.2188 1556.1406,340.375 C1556.3125,340.625 1556.5938,340.7813 1556.875,340.7813 C1557.1406,340.7813 1557.4063,340.6406 1557.5781,340.4219 C1557.6875,340.25 1557.7188,340.1094 1557.7188,339.6406 L1557.7188,337.0938 L1550.0938,337.0938 C1549.6563,337.0938 1549.5313,337.1094 1549.375,337.2031 C1549.125,337.3594 1548.9688,337.6563 1548.9688,337.9375 C1548.9688,338.2188 1549.1094,338.4688 1549.3281,338.6406 C1549.4844,338.75 1549.6719,338.7813 1550.0938,338.7813 L1550.3438,338.7813 L1550.3438,345.2969 L1550.0938,345.2969 C1549.6875,345.2969 1549.5313,345.3125 1549.375,345.4219 C1549.125,345.5938 1548.9688,345.8594 1548.9688,346.1563 C1548.9688,346.4219 1549.1094,346.6719 1549.3281,346.8281 C1549.4688,346.9531 1549.7031,347 1550.0938,347 L1558.0938,347 L1558.0938,344.4219 C1558.0938,343.9844 1558.0625,343.8438 1557.9844,343.6875 C1557.8125,343.4375 1557.5313,343.2813 1557.25,343.2813 C1556.9844,343.2813 1556.7188,343.3906 1556.5469,343.6406 C1556.4375,343.7969 1556.4063,343.9375 1556.4063,344.4219 L1556.4063,345.2969 L1552.0469,345.2969 L1552.0469,342.875 Z " fill="#000000"/><text fill="#000000" font-family="sans-serif" font-size="12" lengthAdjust="spacing" textLength="18" x="1573.75" y="346.1543">Jwt</text><line style="stroke:#A80036;stroke-width:1.5;" x1="1493" x2="1640" y1="358" y2="358"/><ellipse cx="1503" cy="369" fill="#000000" rx="3" ry="3" style="stroke:#000000;stroke-width:1.0;"/><text fill="#000000" font-family="sans-serif" font-size="11" lengthAdjust="spacing" textLength="31" x="1512" y="372.2104">id: Int</text><ellipse cx="1503" cy="381.8047" fill="#000000" rx="3" ry="3" style="stroke:#000000;stroke-width:1.0;"/><text fill="#000000" font-family="sans-serif" font-size="11" lengthAdjust="spacing" textLength="72" x="1512" y="385.0151">token: String</text><ellipse cx="1503" cy="394.6094" fill="#000000" rx="3" ry="3" style="stroke:#000000;stroke-width:1.0;"/><text fill="#000000" font-family="sans-serif" font-size="11" lengthAdjust="spacing" textLength="101" x="1512" y="397.8198">expire: DateTime</text><ellipse cx="1503" cy="407.4141" fill="#000000" rx="3" ry="3" style="stroke:#000000;stroke-width:1.0;"/><text fill="#000000" font-family="sans-serif" font-size="11" lengthAdjust="spacing" textLength="57" x="1512" y="410.6245">idUser: Int</text><ellipse cx="1503" cy="420.2188" fill="#000000" rx="3" ry="3" style="stroke:#000000;stroke-width:1.0;"/><text fill="#000000" font-family="sans-serif" font-size="11" lengthAdjust="spacing" textLength="120" x="1512" y="423.4292">createdAt: DateTime</text><ellipse cx="1503" cy="433.0234" fill="#000000" rx="3" ry="3" style="stroke:#000000;stroke-width:1.0;"/><text fill="#000000" font-family="sans-serif" font-size="11" lengthAdjust="spacing" textLength="123" x="1512" y="436.2339">updatedAt: DateTime</text><ellipse cx="1503" cy="445.8281" fill="#000000" rx="3" ry="3" style="stroke:#000000;stroke-width:1.0;"/><text fill="#000000" font-family="sans-serif" font-size="11" lengthAdjust="spacing" textLength="59" x="1512" y="449.0386">User: User</text><line style="stroke:#A80036;stroke-width:1.5;" x1="1493" x2="1640" y1="455.6328" y2="455.6328"/><!--MD5=[41314a0efc36828092cff9ebad2fcafd]
class Group--><rect codeLine="32" fill="#FEFECE" filter="url(#f1fa8mkxispdly)" height="124.8281" id="Group" style="stroke:#A80036;stroke-width:1.5;" width="229" x="480" y="332.5"/><ellipse cx="571.75" cy="348.5" fill="#ADD1B2" rx="11" ry="11" style="stroke:#A80036;stroke-width:1.0;"/><path d="M570.5469,349.375 L572,349.375 L572,349.4844 C572,349.8906 572.0313,350.0469 572.1094,350.2031 C572.2656,350.4531 572.5469,350.6094 572.8438,350.6094 C573.0938,350.6094 573.3594,350.4688 573.5156,350.25 C573.6406,350.0938 573.6719,349.9375 573.6719,349.4844 L573.6719,347.5625 C573.6719,347.4063 573.6719,347.3594 573.6563,347.2031 C573.5938,346.7344 573.2813,346.4219 572.8281,346.4219 C572.5781,346.4219 572.3125,346.5625 572.1406,346.7813 C572.0313,346.9531 572,347.1094 572,347.5625 L572,347.6875 L570.5469,347.6875 L570.5469,345.2813 L574.5313,345.2813 L574.5313,346.1406 C574.5313,346.5469 574.5625,346.7188 574.6406,346.875 C574.8125,347.125 575.0938,347.2813 575.375,347.2813 C575.6406,347.2813 575.9063,347.1406 576.0781,346.9219 C576.1875,346.75 576.2188,346.6094 576.2188,346.1406 L576.2188,343.5938 L568.5938,343.5938 C568.1563,343.5938 568.0313,343.6094 567.875,343.7031 C567.625,343.8594 567.4688,344.1563 567.4688,344.4375 C567.4688,344.7188 567.6094,344.9688 567.8281,345.1406 C567.9844,345.25 568.1719,345.2813 568.5938,345.2813 L568.8438,345.2813 L568.8438,351.7969 L568.5938,351.7969 C568.1875,351.7969 568.0313,351.8125 567.875,351.9219 C567.625,352.0938 567.4688,352.3594 567.4688,352.6563 C567.4688,352.9219 567.6094,353.1719 567.8281,353.3281 C567.9688,353.4531 568.2031,353.5 568.5938,353.5 L576.5938,353.5 L576.5938,350.9219 C576.5938,350.4844 576.5625,350.3438 576.4844,350.1875 C576.3125,349.9375 576.0313,349.7813 575.75,349.7813 C575.4844,349.7813 575.2188,349.8906 575.0469,350.1406 C574.9375,350.2969 574.9063,350.4375 574.9063,350.9219 L574.9063,351.7969 L570.5469,351.7969 L570.5469,349.375 Z " fill="#000000"/><text fill="#000000" font-family="sans-serif" font-size="12" lengthAdjust="spacing" textLength="37" x="592.25" y="352.6543">Group</text><line style="stroke:#A80036;stroke-width:1.5;" x1="481" x2="708" y1="364.5" y2="364.5"/><ellipse cx="491" cy="375.5" fill="#000000" rx="3" ry="3" style="stroke:#000000;stroke-width:1.0;"/><text fill="#000000" font-family="sans-serif" font-size="11" lengthAdjust="spacing" textLength="31" x="500" y="378.7104">id: Int</text><ellipse cx="491" cy="388.3047" fill="#000000" rx="3" ry="3" style="stroke:#000000;stroke-width:1.0;"/><text fill="#000000" font-family="sans-serif" font-size="11" lengthAdjust="spacing" textLength="120" x="500" y="391.5151">createdAt: DateTime</text><ellipse cx="491" cy="401.1094" fill="#000000" rx="3" ry="3" style="stroke:#000000;stroke-width:1.0;"/><text fill="#000000" font-family="sans-serif" font-size="11" lengthAdjust="spacing" textLength="123" x="500" y="404.3198">updatedAt: DateTime</text><ellipse cx="491" cy="413.9141" fill="#000000" rx="3" ry="3" style="stroke:#000000;stroke-width:1.0;"/><text fill="#000000" font-family="sans-serif" font-size="11" lengthAdjust="spacing" textLength="73" x="500" y="417.1245">name: String</text><ellipse cx="491" cy="426.7188" fill="#000000" rx="3" ry="3" style="stroke:#000000;stroke-width:1.0;"/><text fill="#000000" font-family="sans-serif" font-size="11" lengthAdjust="spacing" textLength="203" x="500" y="429.9292">groupPermission: GroupPermission[]</text><ellipse cx="491" cy="439.5234" fill="#000000" rx="3" ry="3" style="stroke:#000000;stroke-width:1.0;"/><text fill="#000000" font-family="sans-serif" font-size="11" lengthAdjust="spacing" textLength="67" x="500" y="442.7339">User: User[]</text><line style="stroke:#A80036;stroke-width:1.5;" x1="481" x2="708" y1="449.3281" y2="449.3281"/><!--MD5=[03da7ad6344b0b2c818a169ad3cc63fd]
class Permission--><rect codeLine="41" fill="#FEFECE" filter="url(#f1fa8mkxispdly)" height="112.0234" id="Permission" style="stroke:#A80036;stroke-width:1.5;" width="229" x="1676" y="339"/><ellipse cx="1753.75" cy="355" fill="#ADD1B2" rx="11" ry="11" style="stroke:#A80036;stroke-width:1.0;"/><path d="M1752.5469,355.875 L1754,355.875 L1754,355.9844 C1754,356.3906 1754.0313,356.5469 1754.1094,356.7031 C1754.2656,356.9531 1754.5469,357.1094 1754.8438,357.1094 C1755.0938,357.1094 1755.3594,356.9688 1755.5156,356.75 C1755.6406,356.5938 1755.6719,356.4375 1755.6719,355.9844 L1755.6719,354.0625 C1755.6719,353.9063 1755.6719,353.8594 1755.6563,353.7031 C1755.5938,353.2344 1755.2813,352.9219 1754.8281,352.9219 C1754.5781,352.9219 1754.3125,353.0625 1754.1406,353.2813 C1754.0313,353.4531 1754,353.6094 1754,354.0625 L1754,354.1875 L1752.5469,354.1875 L1752.5469,351.7813 L1756.5313,351.7813 L1756.5313,352.6406 C1756.5313,353.0469 1756.5625,353.2188 1756.6406,353.375 C1756.8125,353.625 1757.0938,353.7813 1757.375,353.7813 C1757.6406,353.7813 1757.9063,353.6406 1758.0781,353.4219 C1758.1875,353.25 1758.2188,353.1094 1758.2188,352.6406 L1758.2188,350.0938 L1750.5938,350.0938 C1750.1563,350.0938 1750.0313,350.1094 1749.875,350.2031 C1749.625,350.3594 1749.4688,350.6563 1749.4688,350.9375 C1749.4688,351.2188 1749.6094,351.4688 1749.8281,351.6406 C1749.9844,351.75 1750.1719,351.7813 1750.5938,351.7813 L1750.8438,351.7813 L1750.8438,358.2969 L1750.5938,358.2969 C1750.1875,358.2969 1750.0313,358.3125 1749.875,358.4219 C1749.625,358.5938 1749.4688,358.8594 1749.4688,359.1563 C1749.4688,359.4219 1749.6094,359.6719 1749.8281,359.8281 C1749.9688,359.9531 1750.2031,360 1750.5938,360 L1758.5938,360 L1758.5938,357.4219 C1758.5938,356.9844 1758.5625,356.8438 1758.4844,356.6875 C1758.3125,356.4375 1758.0313,356.2813 1757.75,356.2813 C1757.4844,356.2813 1757.2188,356.3906 1757.0469,356.6406 C1756.9375,356.7969 1756.9063,356.9375 1756.9063,357.4219 L1756.9063,358.2969 L1752.5469,358.2969 L1752.5469,355.875 Z " fill="#000000"/><text fill="#000000" font-family="sans-serif" font-size="12" lengthAdjust="spacing" textLength="65" x="1774.25" y="359.1543">Permission</text><line style="stroke:#A80036;stroke-width:1.5;" x1="1677" x2="1904" y1="371" y2="371"/><ellipse cx="1687" cy="382" fill="#000000" rx="3" ry="3" style="stroke:#000000;stroke-width:1.0;"/><text fill="#000000" font-family="sans-serif" font-size="11" lengthAdjust="spacing" textLength="31" x="1696" y="385.2104">id: Int</text><ellipse cx="1687" cy="394.8047" fill="#000000" rx="3" ry="3" style="stroke:#000000;stroke-width:1.0;"/><text fill="#000000" font-family="sans-serif" font-size="11" lengthAdjust="spacing" textLength="73" x="1696" y="398.0151">name: String</text><ellipse cx="1687" cy="407.6094" fill="#000000" rx="3" ry="3" style="stroke:#000000;stroke-width:1.0;"/><text fill="#000000" font-family="sans-serif" font-size="11" lengthAdjust="spacing" textLength="120" x="1696" y="410.8198">createdAt: DateTime</text><ellipse cx="1687" cy="420.4141" fill="#000000" rx="3" ry="3" style="stroke:#000000;stroke-width:1.0;"/><text fill="#000000" font-family="sans-serif" font-size="11" lengthAdjust="spacing" textLength="123" x="1696" y="423.6245">updatedAt: DateTime</text><ellipse cx="1687" cy="433.2188" fill="#000000" rx="3" ry="3" style="stroke:#000000;stroke-width:1.0;"/><text fill="#000000" font-family="sans-serif" font-size="11" lengthAdjust="spacing" textLength="203" x="1696" y="436.4292">groupPermission: GroupPermission[]</text><line style="stroke:#A80036;stroke-width:1.5;" x1="1677" x2="1904" y1="443.0234" y2="443.0234"/><!--MD5=[6f8c4a6e049dbc03bb92a3dcd67b211e]
class GroupPermission--><rect codeLine="49" fill="#FEFECE" filter="url(#f1fa8mkxispdly)" height="124.8281" id="GroupPermission" style="stroke:#A80036;stroke-width:1.5;" width="156" x="1089.5" y="581"/><ellipse cx="1114.4" cy="597" fill="#ADD1B2" rx="11" ry="11" style="stroke:#A80036;stroke-width:1.0;"/><path d="M1113.1969,597.875 L1114.65,597.875 L1114.65,597.9844 C1114.65,598.3906 1114.6813,598.5469 1114.7594,598.7031 C1114.9156,598.9531 1115.1969,599.1094 1115.4938,599.1094 C1115.7438,599.1094 1116.0094,598.9688 1116.1656,598.75 C1116.2906,598.5938 1116.3219,598.4375 1116.3219,597.9844 L1116.3219,596.0625 C1116.3219,595.9063 1116.3219,595.8594 1116.3063,595.7031 C1116.2438,595.2344 1115.9313,594.9219 1115.4781,594.9219 C1115.2281,594.9219 1114.9625,595.0625 1114.7906,595.2813 C1114.6813,595.4531 1114.65,595.6094 1114.65,596.0625 L1114.65,596.1875 L1113.1969,596.1875 L1113.1969,593.7813 L1117.1813,593.7813 L1117.1813,594.6406 C1117.1813,595.0469 1117.2125,595.2188 1117.2906,595.375 C1117.4625,595.625 1117.7438,595.7813 1118.025,595.7813 C1118.2906,595.7813 1118.5563,595.6406 1118.7281,595.4219 C1118.8375,595.25 1118.8688,595.1094 1118.8688,594.6406 L1118.8688,592.0938 L1111.2438,592.0938 C1110.8063,592.0938 1110.6813,592.1094 1110.525,592.2031 C1110.275,592.3594 1110.1188,592.6563 1110.1188,592.9375 C1110.1188,593.2188 1110.2594,593.4688 1110.4781,593.6406 C1110.6344,593.75 1110.8219,593.7813 1111.2438,593.7813 L1111.4938,593.7813 L1111.4938,600.2969 L1111.2438,600.2969 C1110.8375,600.2969 1110.6813,600.3125 1110.525,600.4219 C1110.275,600.5938 1110.1188,600.8594 1110.1188,601.1563 C1110.1188,601.4219 1110.2594,601.6719 1110.4781,601.8281 C1110.6188,601.9531 1110.8531,602 1111.2438,602 L1119.2438,602 L1119.2438,599.4219 C1119.2438,598.9844 1119.2125,598.8438 1119.1344,598.6875 C1118.9625,598.4375 1118.6813,598.2813 1118.4,598.2813 C1118.1344,598.2813 1117.8688,598.3906 1117.6969,598.6406 C1117.5875,598.7969 1117.5563,598.9375 1117.5563,599.4219 L1117.5563,600.2969 L1113.1969,600.2969 L1113.1969,597.875 Z " fill="#000000"/><text fill="#000000" font-family="sans-serif" font-size="12" lengthAdjust="spacing" textLength="102" x="1130.6" y="601.1543">GroupPermission</text><line style="stroke:#A80036;stroke-width:1.5;" x1="1090.5" x2="1244.5" y1="613" y2="613"/><ellipse cx="1100.5" cy="624" fill="#000000" rx="3" ry="3" style="stroke:#000000;stroke-width:1.0;"/><text fill="#000000" font-family="sans-serif" font-size="11" lengthAdjust="spacing" textLength="63" x="1109.5" y="627.2104">groupId: Int</text><ellipse cx="1100.5" cy="636.8047" fill="#000000" rx="3" ry="3" style="stroke:#000000;stroke-width:1.0;"/><text fill="#000000" font-family="sans-serif" font-size="11" lengthAdjust="spacing" textLength="93" x="1109.5" y="640.0151">permissionId: Int</text><ellipse cx="1100.5" cy="649.6094" fill="#000000" rx="3" ry="3" style="stroke:#000000;stroke-width:1.0;"/><text fill="#000000" font-family="sans-serif" font-size="11" lengthAdjust="spacing" textLength="120" x="1109.5" y="652.8198">createdAt: DateTime</text><ellipse cx="1100.5" cy="662.4141" fill="#000000" rx="3" ry="3" style="stroke:#000000;stroke-width:1.0;"/><text fill="#000000" font-family="sans-serif" font-size="11" lengthAdjust="spacing" textLength="123" x="1109.5" y="665.6245">updatedAt: DateTime</text><ellipse cx="1100.5" cy="675.2188" fill="#000000" rx="3" ry="3" style="stroke:#000000;stroke-width:1.0;"/><text fill="#000000" font-family="sans-serif" font-size="11" lengthAdjust="spacing" textLength="130" x="1109.5" y="678.4292">permission: Permission</text><ellipse cx="1100.5" cy="688.0234" fill="#000000" rx="3" ry="3" style="stroke:#000000;stroke-width:1.0;"/><text fill="#000000" font-family="sans-serif" font-size="11" lengthAdjust="spacing" textLength="73" x="1109.5" y="691.2339">group: Group</text><line style="stroke:#A80036;stroke-width:1.5;" x1="1090.5" x2="1244.5" y1="697.8281" y2="697.8281"/><!--MD5=[84c52c07fdba86d50b3cf28d55a0f2aa]
class LinkReset--><rect codeLine="58" fill="#FEFECE" filter="url(#f1fa8mkxispdly)" height="137.6328" id="LinkReset" style="stroke:#A80036;stroke-width:1.5;" width="149" x="296" y="326"/><ellipse cx="338" cy="342" fill="#ADD1B2" rx="11" ry="11" style="stroke:#A80036;stroke-width:1.0;"/><path d="M336.7969,342.875 L338.25,342.875 L338.25,342.9844 C338.25,343.3906 338.2813,343.5469 338.3594,343.7031 C338.5156,343.9531 338.7969,344.1094 339.0938,344.1094 C339.3438,344.1094 339.6094,343.9688 339.7656,343.75 C339.8906,343.5938 339.9219,343.4375 339.9219,342.9844 L339.9219,341.0625 C339.9219,340.9063 339.9219,340.8594 339.9063,340.7031 C339.8438,340.2344 339.5313,339.9219 339.0781,339.9219 C338.8281,339.9219 338.5625,340.0625 338.3906,340.2813 C338.2813,340.4531 338.25,340.6094 338.25,341.0625 L338.25,341.1875 L336.7969,341.1875 L336.7969,338.7813 L340.7813,338.7813 L340.7813,339.6406 C340.7813,340.0469 340.8125,340.2188 340.8906,340.375 C341.0625,340.625 341.3438,340.7813 341.625,340.7813 C341.8906,340.7813 342.1563,340.6406 342.3281,340.4219 C342.4375,340.25 342.4688,340.1094 342.4688,339.6406 L342.4688,337.0938 L334.8438,337.0938 C334.4063,337.0938 334.2813,337.1094 334.125,337.2031 C333.875,337.3594 333.7188,337.6563 333.7188,337.9375 C333.7188,338.2188 333.8594,338.4688 334.0781,338.6406 C334.2344,338.75 334.4219,338.7813 334.8438,338.7813 L335.0938,338.7813 L335.0938,345.2969 L334.8438,345.2969 C334.4375,345.2969 334.2813,345.3125 334.125,345.4219 C333.875,345.5938 333.7188,345.8594 333.7188,346.1563 C333.7188,346.4219 333.8594,346.6719 334.0781,346.8281 C334.2188,346.9531 334.4531,347 334.8438,347 L342.8438,347 L342.8438,344.4219 C342.8438,343.9844 342.8125,343.8438 342.7344,343.6875 C342.5625,343.4375 342.2813,343.2813 342,343.2813 C341.7344,343.2813 341.4688,343.3906 341.2969,343.6406 C341.1875,343.7969 341.1563,343.9375 341.1563,344.4219 L341.1563,345.2969 L336.7969,345.2969 L336.7969,342.875 Z " fill="#000000"/><text fill="#000000" font-family="sans-serif" font-size="12" lengthAdjust="spacing" textLength="57" x="358" y="346.1543">LinkReset</text><line style="stroke:#A80036;stroke-width:1.5;" x1="297" x2="444" y1="358" y2="358"/><ellipse cx="307" cy="369" fill="#000000" rx="3" ry="3" style="stroke:#000000;stroke-width:1.0;"/><text fill="#000000" font-family="sans-serif" font-size="11" lengthAdjust="spacing" textLength="31" x="316" y="372.2104">id: Int</text><ellipse cx="307" cy="381.8047" fill="#000000" rx="3" ry="3" style="stroke:#000000;stroke-width:1.0;"/><text fill="#000000" font-family="sans-serif" font-size="11" lengthAdjust="spacing" textLength="59" x="316" y="385.0151">link: String</text><ellipse cx="307" cy="394.6094" fill="#000000" rx="3" ry="3" style="stroke:#000000;stroke-width:1.0;"/><text fill="#000000" font-family="sans-serif" font-size="11" lengthAdjust="spacing" textLength="101" x="316" y="397.8198">expire: DateTime</text><ellipse cx="307" cy="407.4141" fill="#000000" rx="3" ry="3" style="stroke:#000000;stroke-width:1.0;"/><text fill="#000000" font-family="sans-serif" font-size="11" lengthAdjust="spacing" textLength="57" x="316" y="410.6245">idUser: Int</text><ellipse cx="307" cy="420.2188" fill="#000000" rx="3" ry="3" style="stroke:#000000;stroke-width:1.0;"/><text fill="#000000" font-family="sans-serif" font-size="11" lengthAdjust="spacing" textLength="120" x="316" y="423.4292">createdAt: DateTime</text><ellipse cx="307" cy="433.0234" fill="#000000" rx="3" ry="3" style="stroke:#000000;stroke-width:1.0;"/><text fill="#000000" font-family="sans-serif" font-size="11" lengthAdjust="spacing" textLength="123" x="316" y="436.2339">updatedAt: DateTime</text><ellipse cx="307" cy="445.8281" fill="#000000" rx="3" ry="3" style="stroke:#000000;stroke-width:1.0;"/><text fill="#000000" font-family="sans-serif" font-size="11" lengthAdjust="spacing" textLength="59" x="316" y="449.0386">User: User</text><line style="stroke:#A80036;stroke-width:1.5;" x1="297" x2="444" y1="455.6328" y2="455.6328"/><!--MD5=[9dd4eaa2771a2ff8dbee15cc1e732cab]
class Patient--><rect codeLine="68" fill="#FEFECE" filter="url(#f1fa8mkxispdly)" height="214.4609" id="Patient" style="stroke:#A80036;stroke-width:1.5;" width="203" x="1967" y="26.5"/><ellipse cx="2044.75" cy="42.5" fill="#ADD1B2" rx="11" ry="11" style="stroke:#A80036;stroke-width:1.0;"/><path d="M2043.5469,43.375 L2045,43.375 L2045,43.4844 C2045,43.8906 2045.0313,44.0469 2045.1094,44.2031 C2045.2656,44.4531 2045.5469,44.6094 2045.8438,44.6094 C2046.0938,44.6094 2046.3594,44.4688 2046.5156,44.25 C2046.6406,44.0938 2046.6719,43.9375 2046.6719,43.4844 L2046.6719,41.5625 C2046.6719,41.4063 2046.6719,41.3594 2046.6563,41.2031 C2046.5938,40.7344 2046.2813,40.4219 2045.8281,40.4219 C2045.5781,40.4219 2045.3125,40.5625 2045.1406,40.7813 C2045.0313,40.9531 2045,41.1094 2045,41.5625 L2045,41.6875 L2043.5469,41.6875 L2043.5469,39.2813 L2047.5313,39.2813 L2047.5313,40.1406 C2047.5313,40.5469 2047.5625,40.7188 2047.6406,40.875 C2047.8125,41.125 2048.0938,41.2813 2048.375,41.2813 C2048.6406,41.2813 2048.9063,41.1406 2049.0781,40.9219 C2049.1875,40.75 2049.2188,40.6094 2049.2188,40.1406 L2049.2188,37.5938 L2041.5938,37.5938 C2041.1563,37.5938 2041.0313,37.6094 2040.875,37.7031 C2040.625,37.8594 2040.4688,38.1563 2040.4688,38.4375 C2040.4688,38.7188 2040.6094,38.9688 2040.8281,39.1406 C2040.9844,39.25 2041.1719,39.2813 2041.5938,39.2813 L2041.8438,39.2813 L2041.8438,45.7969 L2041.5938,45.7969 C2041.1875,45.7969 2041.0313,45.8125 2040.875,45.9219 C2040.625,46.0938 2040.4688,46.3594 2040.4688,46.6563 C2040.4688,46.9219 2040.6094,47.1719 2040.8281,47.3281 C2040.9688,47.4531 2041.2031,47.5 2041.5938,47.5 L2049.5938,47.5 L2049.5938,44.9219 C2049.5938,44.4844 2049.5625,44.3438 2049.4844,44.1875 C2049.3125,43.9375 2049.0313,43.7813 2048.75,43.7813 C2048.4844,43.7813 2048.2188,43.8906 2048.0469,44.1406 C2047.9375,44.2969 2047.9063,44.4375 2047.9063,44.9219 L2047.9063,45.7969 L2043.5469,45.7969 L2043.5469,43.375 Z " fill="#000000"/><text fill="#000000" font-family="sans-serif" font-size="12" lengthAdjust="spacing" textLength="39" x="2065.25" y="46.6543">Patient</text><line style="stroke:#A80036;stroke-width:1.5;" x1="1968" x2="2169" y1="58.5" y2="58.5"/><ellipse cx="1978" cy="69.5" fill="#000000" rx="3" ry="3" style="stroke:#000000;stroke-width:1.0;"/><text fill="#000000" font-family="sans-serif" font-size="11" lengthAdjust="spacing" textLength="31" x="1987" y="72.7104">id: Int</text><ellipse cx="1978" cy="82.3047" fill="#000000" rx="3" ry="3" style="stroke:#000000;stroke-width:1.0;"/><text fill="#000000" font-family="sans-serif" font-size="11" lengthAdjust="spacing" textLength="73" x="1987" y="85.5151">name: String</text><ellipse cx="1978" cy="95.1094" fill="#000000" rx="3" ry="3" style="stroke:#000000;stroke-width:1.0;"/><text fill="#000000" font-family="sans-serif" font-size="11" lengthAdjust="spacing" textLength="94" x="1987" y="98.3198">lastName: String</text><text fill="#000000" font-family="sans-serif" font-size="11" lengthAdjust="spacing" textLength="136" x="1987" y="111.1245">addressNumber: String?</text><text fill="#000000" font-family="sans-serif" font-size="11" lengthAdjust="spacing" textLength="67" x="1987" y="123.9292">cep: String?</text><ellipse cx="1978" cy="133.5234" fill="#000000" rx="3" ry="3" style="stroke:#000000;stroke-width:1.0;"/><text fill="#000000" font-family="sans-serif" font-size="11" lengthAdjust="spacing" textLength="110" x="1987" y="136.7339">birthday: DateTime</text><text fill="#000000" font-family="sans-serif" font-size="11" lengthAdjust="spacing" textLength="82" x="1987" y="149.5386">phone: String?</text><text fill="#000000" font-family="sans-serif" font-size="11" lengthAdjust="spacing" textLength="137" x="1987" y="162.3433">healthInsurance: String?</text><ellipse cx="1978" cy="171.9375" fill="#000000" rx="3" ry="3" style="stroke:#000000;stroke-width:1.0;"/><text fill="#000000" font-family="sans-serif" font-size="11" lengthAdjust="spacing" textLength="57" x="1987" y="175.1479">cpf: String</text><ellipse cx="1978" cy="184.7422" fill="#000000" rx="3" ry="3" style="stroke:#000000;stroke-width:1.0;"/><text fill="#000000" font-family="sans-serif" font-size="11" lengthAdjust="spacing" textLength="51" x="1987" y="187.9526">rg: String</text><ellipse cx="1978" cy="197.5469" fill="#000000" rx="3" ry="3" style="stroke:#000000;stroke-width:1.0;"/><text fill="#000000" font-family="sans-serif" font-size="11" lengthAdjust="spacing" textLength="81" x="1987" y="200.7573">gender: String</text><text fill="#000000" font-family="sans-serif" font-size="11" lengthAdjust="spacing" textLength="118" x="1987" y="213.562">complement: String?</text><text fill="#000000" font-family="sans-serif" font-size="11" lengthAdjust="spacing" textLength="177" x="1987" y="226.3667">MedicalRecord: MedicalRecord?</text><line style="stroke:#A80036;stroke-width:1.5;" x1="1968" x2="2169" y1="232.9609" y2="232.9609"/><!--MD5=[5a42d898e2a5d299cc26761d1eaa7d84]
class Doctor--><rect codeLine="84" fill="#FEFECE" filter="url(#f1fa8mkxispdly)" height="124.8281" id="Doctor" style="stroke:#A80036;stroke-width:1.5;" width="248" x="12.5" y="332.5"/><ellipse cx="111.75" cy="348.5" fill="#ADD1B2" rx="11" ry="11" style="stroke:#A80036;stroke-width:1.0;"/><path d="M110.5469,349.375 L112,349.375 L112,349.4844 C112,349.8906 112.0313,350.0469 112.1094,350.2031 C112.2656,350.4531 112.5469,350.6094 112.8438,350.6094 C113.0938,350.6094 113.3594,350.4688 113.5156,350.25 C113.6406,350.0938 113.6719,349.9375 113.6719,349.4844 L113.6719,347.5625 C113.6719,347.4063 113.6719,347.3594 113.6563,347.2031 C113.5938,346.7344 113.2813,346.4219 112.8281,346.4219 C112.5781,346.4219 112.3125,346.5625 112.1406,346.7813 C112.0313,346.9531 112,347.1094 112,347.5625 L112,347.6875 L110.5469,347.6875 L110.5469,345.2813 L114.5313,345.2813 L114.5313,346.1406 C114.5313,346.5469 114.5625,346.7188 114.6406,346.875 C114.8125,347.125 115.0938,347.2813 115.375,347.2813 C115.6406,347.2813 115.9063,347.1406 116.0781,346.9219 C116.1875,346.75 116.2188,346.6094 116.2188,346.1406 L116.2188,343.5938 L108.5938,343.5938 C108.1563,343.5938 108.0313,343.6094 107.875,343.7031 C107.625,343.8594 107.4688,344.1563 107.4688,344.4375 C107.4688,344.7188 107.6094,344.9688 107.8281,345.1406 C107.9844,345.25 108.1719,345.2813 108.5938,345.2813 L108.8438,345.2813 L108.8438,351.7969 L108.5938,351.7969 C108.1875,351.7969 108.0313,351.8125 107.875,351.9219 C107.625,352.0938 107.4688,352.3594 107.4688,352.6563 C107.4688,352.9219 107.6094,353.1719 107.8281,353.3281 C107.9688,353.4531 108.2031,353.5 108.5938,353.5 L116.5938,353.5 L116.5938,350.9219 C116.5938,350.4844 116.5625,350.3438 116.4844,350.1875 C116.3125,349.9375 116.0313,349.7813 115.75,349.7813 C115.4844,349.7813 115.2188,349.8906 115.0469,350.1406 C114.9375,350.2969 114.9063,350.4375 114.9063,350.9219 L114.9063,351.7969 L110.5469,351.7969 L110.5469,349.375 Z " fill="#000000"/><text fill="#000000" font-family="sans-serif" font-size="12" lengthAdjust="spacing" textLength="41" x="132.25" y="352.6543">Doctor</text><line style="stroke:#A80036;stroke-width:1.5;" x1="13.5" x2="259.5" y1="364.5" y2="364.5"/><ellipse cx="23.5" cy="375.5" fill="#000000" rx="3" ry="3" style="stroke:#000000;stroke-width:1.0;"/><text fill="#000000" font-family="sans-serif" font-size="11" lengthAdjust="spacing" textLength="61" x="32.5" y="378.7104">crm: String</text><ellipse cx="23.5" cy="388.3047" fill="#000000" rx="3" ry="3" style="stroke:#000000;stroke-width:1.0;"/><text fill="#000000" font-family="sans-serif" font-size="11" lengthAdjust="spacing" textLength="66" x="32.5" y="391.5151">area: String</text><ellipse cx="23.5" cy="401.1094" fill="#000000" rx="3" ry="3" style="stroke:#000000;stroke-width:1.0;"/><text fill="#000000" font-family="sans-serif" font-size="11" lengthAdjust="spacing" textLength="56" x="32.5" y="404.3198">userId: Int</text><ellipse cx="23.5" cy="413.9141" fill="#000000" rx="3" ry="3" style="stroke:#000000;stroke-width:1.0;"/><text fill="#000000" font-family="sans-serif" font-size="11" lengthAdjust="spacing" textLength="89" x="32.5" y="417.1245">active: Boolean</text><ellipse cx="23.5" cy="426.7188" fill="#000000" rx="3" ry="3" style="stroke:#000000;stroke-width:1.0;"/><text fill="#000000" font-family="sans-serif" font-size="11" lengthAdjust="spacing" textLength="58" x="32.5" y="429.9292">user: User</text><ellipse cx="23.5" cy="439.5234" fill="#000000" rx="3" ry="3" style="stroke:#000000;stroke-width:1.0;"/><text fill="#000000" font-family="sans-serif" font-size="11" lengthAdjust="spacing" textLength="222" x="32.5" y="442.7339">MedicalPrescriber: MedicalPrescription[]</text><line style="stroke:#A80036;stroke-width:1.5;" x1="13.5" x2="259.5" y1="449.3281" y2="449.3281"/><!--MD5=[31de7d9ab45089250e68e111f91ce83b]
class Adm--><rect codeLine="93" fill="#FEFECE" filter="url(#f1fa8mkxispdly)" height="86.4141" id="Adm" style="stroke:#A80036;stroke-width:1.5;" width="115" x="744" y="352"/><ellipse cx="784.2" cy="368" fill="#ADD1B2" rx="11" ry="11" style="stroke:#A80036;stroke-width:1.0;"/><path d="M782.9969,368.875 L784.45,368.875 L784.45,368.9844 C784.45,369.3906 784.4813,369.5469 784.5594,369.7031 C784.7156,369.9531 784.9969,370.1094 785.2938,370.1094 C785.5438,370.1094 785.8094,369.9688 785.9656,369.75 C786.0906,369.5938 786.1219,369.4375 786.1219,368.9844 L786.1219,367.0625 C786.1219,366.9063 786.1219,366.8594 786.1063,366.7031 C786.0438,366.2344 785.7313,365.9219 785.2781,365.9219 C785.0281,365.9219 784.7625,366.0625 784.5906,366.2813 C784.4813,366.4531 784.45,366.6094 784.45,367.0625 L784.45,367.1875 L782.9969,367.1875 L782.9969,364.7813 L786.9813,364.7813 L786.9813,365.6406 C786.9813,366.0469 787.0125,366.2188 787.0906,366.375 C787.2625,366.625 787.5438,366.7813 787.825,366.7813 C788.0906,366.7813 788.3563,366.6406 788.5281,366.4219 C788.6375,366.25 788.6688,366.1094 788.6688,365.6406 L788.6688,363.0938 L781.0438,363.0938 C780.6063,363.0938 780.4813,363.1094 780.325,363.2031 C780.075,363.3594 779.9188,363.6563 779.9188,363.9375 C779.9188,364.2188 780.0594,364.4688 780.2781,364.6406 C780.4344,364.75 780.6219,364.7813 781.0438,364.7813 L781.2938,364.7813 L781.2938,371.2969 L781.0438,371.2969 C780.6375,371.2969 780.4813,371.3125 780.325,371.4219 C780.075,371.5938 779.9188,371.8594 779.9188,372.1563 C779.9188,372.4219 780.0594,372.6719 780.2781,372.8281 C780.4188,372.9531 780.6531,373 781.0438,373 L789.0438,373 L789.0438,370.4219 C789.0438,369.9844 789.0125,369.8438 788.9344,369.6875 C788.7625,369.4375 788.4813,369.2813 788.2,369.2813 C787.9344,369.2813 787.6688,369.3906 787.4969,369.6406 C787.3875,369.7969 787.3563,369.9375 787.3563,370.4219 L787.3563,371.2969 L782.9969,371.2969 L782.9969,368.875 Z " fill="#000000"/><text fill="#000000" font-family="sans-serif" font-size="12" lengthAdjust="spacing" textLength="27" x="803.8" y="372.1543">Adm</text><line style="stroke:#A80036;stroke-width:1.5;" x1="745" x2="858" y1="384" y2="384"/><ellipse cx="755" cy="395" fill="#000000" rx="3" ry="3" style="stroke:#000000;stroke-width:1.0;"/><text fill="#000000" font-family="sans-serif" font-size="11" lengthAdjust="spacing" textLength="56" x="764" y="398.2104">userId: Int</text><ellipse cx="755" cy="407.8047" fill="#000000" rx="3" ry="3" style="stroke:#000000;stroke-width:1.0;"/><text fill="#000000" font-family="sans-serif" font-size="11" lengthAdjust="spacing" textLength="89" x="764" y="411.0151">active: Boolean</text><ellipse cx="755" cy="420.6094" fill="#000000" rx="3" ry="3" style="stroke:#000000;stroke-width:1.0;"/><text fill="#000000" font-family="sans-serif" font-size="11" lengthAdjust="spacing" textLength="58" x="764" y="423.8198">user: User</text><line style="stroke:#A80036;stroke-width:1.5;" x1="745" x2="858" y1="430.4141" y2="430.4141"/><!--MD5=[b987e1d1a4ae943a3ffe62b99fe85c43]
class MedicalPrescription--><rect codeLine="99" fill="#FEFECE" filter="url(#f1fa8mkxispdly)" height="227.2656" id="MedicalPrescription" style="stroke:#A80036;stroke-width:1.5;" width="259" x="7" y="530"/><ellipse cx="73.75" cy="546" fill="#ADD1B2" rx="11" ry="11" style="stroke:#A80036;stroke-width:1.0;"/><path d="M72.5469,546.875 L74,546.875 L74,546.9844 C74,547.3906 74.0313,547.5469 74.1094,547.7031 C74.2656,547.9531 74.5469,548.1094 74.8438,548.1094 C75.0938,548.1094 75.3594,547.9688 75.5156,547.75 C75.6406,547.5938 75.6719,547.4375 75.6719,546.9844 L75.6719,545.0625 C75.6719,544.9063 75.6719,544.8594 75.6563,544.7031 C75.5938,544.2344 75.2813,543.9219 74.8281,543.9219 C74.5781,543.9219 74.3125,544.0625 74.1406,544.2813 C74.0313,544.4531 74,544.6094 74,545.0625 L74,545.1875 L72.5469,545.1875 L72.5469,542.7813 L76.5313,542.7813 L76.5313,543.6406 C76.5313,544.0469 76.5625,544.2188 76.6406,544.375 C76.8125,544.625 77.0938,544.7813 77.375,544.7813 C77.6406,544.7813 77.9063,544.6406 78.0781,544.4219 C78.1875,544.25 78.2188,544.1094 78.2188,543.6406 L78.2188,541.0938 L70.5938,541.0938 C70.1563,541.0938 70.0313,541.1094 69.875,541.2031 C69.625,541.3594 69.4688,541.6563 69.4688,541.9375 C69.4688,542.2188 69.6094,542.4688 69.8281,542.6406 C69.9844,542.75 70.1719,542.7813 70.5938,542.7813 L70.8438,542.7813 L70.8438,549.2969 L70.5938,549.2969 C70.1875,549.2969 70.0313,549.3125 69.875,549.4219 C69.625,549.5938 69.4688,549.8594 69.4688,550.1563 C69.4688,550.4219 69.6094,550.6719 69.8281,550.8281 C69.9688,550.9531 70.2031,551 70.5938,551 L78.5938,551 L78.5938,548.4219 C78.5938,547.9844 78.5625,547.8438 78.4844,547.6875 C78.3125,547.4375 78.0313,547.2813 77.75,547.2813 C77.4844,547.2813 77.2188,547.3906 77.0469,547.6406 C76.9375,547.7969 76.9063,547.9375 76.9063,548.4219 L76.9063,549.2969 L72.5469,549.2969 L72.5469,546.875 Z " fill="#000000"/><text fill="#000000" font-family="sans-serif" font-size="12" lengthAdjust="spacing" textLength="117" x="94.25" y="550.1543">MedicalPrescription</text><line style="stroke:#A80036;stroke-width:1.5;" x1="8" x2="265" y1="562" y2="562"/><ellipse cx="18" cy="573" fill="#000000" rx="3" ry="3" style="stroke:#000000;stroke-width:1.0;"/><text fill="#000000" font-family="sans-serif" font-size="11" lengthAdjust="spacing" textLength="31" x="27" y="576.2104">id: Int</text><ellipse cx="18" cy="585.8047" fill="#000000" rx="3" ry="3" style="stroke:#000000;stroke-width:1.0;"/><text fill="#000000" font-family="sans-serif" font-size="11" lengthAdjust="spacing" textLength="65" x="27" y="589.0151">drug: String</text><ellipse cx="18" cy="598.6094" fill="#000000" rx="3" ry="3" style="stroke:#000000;stroke-width:1.0;"/><text fill="#000000" font-family="sans-serif" font-size="11" lengthAdjust="spacing" textLength="109" x="27" y="601.8198">drugDosage: String</text><ellipse cx="18" cy="611.4141" fill="#000000" rx="3" ry="3" style="stroke:#000000;stroke-width:1.0;"/><text fill="#000000" font-family="sans-serif" font-size="11" lengthAdjust="spacing" textLength="90" x="27" y="614.6245">drugWay: String</text><ellipse cx="18" cy="624.2188" fill="#000000" rx="3" ry="3" style="stroke:#000000;stroke-width:1.0;"/><text fill="#000000" font-family="sans-serif" font-size="11" lengthAdjust="spacing" textLength="163" x="27" y="627.4292">administrationInterval: String</text><ellipse cx="18" cy="637.0234" fill="#000000" rx="3" ry="3" style="stroke:#000000;stroke-width:1.0;"/><text fill="#000000" font-family="sans-serif" font-size="11" lengthAdjust="spacing" textLength="158" x="27" y="640.2339">prescriptionDate: DateTime</text><ellipse cx="18" cy="649.8281" fill="#000000" rx="3" ry="3" style="stroke:#000000;stroke-width:1.0;"/><text fill="#000000" font-family="sans-serif" font-size="11" lengthAdjust="spacing" textLength="101" x="27" y="653.0386">realized: Boolean</text><text fill="#000000" font-family="sans-serif" font-size="11" lengthAdjust="spacing" textLength="66" x="27" y="665.8433">obs: String?</text><ellipse cx="18" cy="675.4375" fill="#000000" rx="3" ry="3" style="stroke:#000000;stroke-width:1.0;"/><text fill="#000000" font-family="sans-serif" font-size="11" lengthAdjust="spacing" textLength="115" x="27" y="678.6479">medicalRecordId: Int</text><ellipse cx="18" cy="688.2422" fill="#000000" rx="3" ry="3" style="stroke:#000000;stroke-width:1.0;"/><text fill="#000000" font-family="sans-serif" font-size="11" lengthAdjust="spacing" textLength="88" x="27" y="691.4526">prescriberId: Int</text><ellipse cx="18" cy="701.0469" fill="#000000" rx="3" ry="3" style="stroke:#000000;stroke-width:1.0;"/><text fill="#000000" font-family="sans-serif" font-size="11" lengthAdjust="spacing" textLength="134" x="27" y="704.2573">administrationCount: Int</text><ellipse cx="18" cy="713.8516" fill="#000000" rx="3" ry="3" style="stroke:#000000;stroke-width:1.0;"/><text fill="#000000" font-family="sans-serif" font-size="11" lengthAdjust="spacing" textLength="171" x="27" y="717.062">MedicalRecord: MedicalRecord</text><ellipse cx="18" cy="726.6563" fill="#000000" rx="3" ry="3" style="stroke:#000000;stroke-width:1.0;"/><text fill="#000000" font-family="sans-serif" font-size="11" lengthAdjust="spacing" textLength="100" x="27" y="729.8667">Prescriber: Doctor</text><text fill="#000000" font-family="sans-serif" font-size="11" lengthAdjust="spacing" textLength="233" x="27" y="742.6714">Executors: ExecutorsMedicalPrescription?</text><line style="stroke:#A80036;stroke-width:1.5;" x1="8" x2="265" y1="749.2656" y2="749.2656"/><!--MD5=[f18746c352202dfe215a446b29fe4847]
class MedicalRecord--><rect codeLine="116" fill="#FEFECE" filter="url(#f1fa8mkxispdly)" height="137.6328" id="MedicalRecord" style="stroke:#A80036;stroke-width:1.5;" width="257" x="1940" y="326"/><ellipse cx="2019.75" cy="342" fill="#ADD1B2" rx="11" ry="11" style="stroke:#A80036;stroke-width:1.0;"/><path d="M2018.5469,342.875 L2020,342.875 L2020,342.9844 C2020,343.3906 2020.0313,343.5469 2020.1094,343.7031 C2020.2656,343.9531 2020.5469,344.1094 2020.8438,344.1094 C2021.0938,344.1094 2021.3594,343.9688 2021.5156,343.75 C2021.6406,343.5938 2021.6719,343.4375 2021.6719,342.9844 L2021.6719,341.0625 C2021.6719,340.9063 2021.6719,340.8594 2021.6563,340.7031 C2021.5938,340.2344 2021.2813,339.9219 2020.8281,339.9219 C2020.5781,339.9219 2020.3125,340.0625 2020.1406,340.2813 C2020.0313,340.4531 2020,340.6094 2020,341.0625 L2020,341.1875 L2018.5469,341.1875 L2018.5469,338.7813 L2022.5313,338.7813 L2022.5313,339.6406 C2022.5313,340.0469 2022.5625,340.2188 2022.6406,340.375 C2022.8125,340.625 2023.0938,340.7813 2023.375,340.7813 C2023.6406,340.7813 2023.9063,340.6406 2024.0781,340.4219 C2024.1875,340.25 2024.2188,340.1094 2024.2188,339.6406 L2024.2188,337.0938 L2016.5938,337.0938 C2016.1563,337.0938 2016.0313,337.1094 2015.875,337.2031 C2015.625,337.3594 2015.4688,337.6563 2015.4688,337.9375 C2015.4688,338.2188 2015.6094,338.4688 2015.8281,338.6406 C2015.9844,338.75 2016.1719,338.7813 2016.5938,338.7813 L2016.8438,338.7813 L2016.8438,345.2969 L2016.5938,345.2969 C2016.1875,345.2969 2016.0313,345.3125 2015.875,345.4219 C2015.625,345.5938 2015.4688,345.8594 2015.4688,346.1563 C2015.4688,346.4219 2015.6094,346.6719 2015.8281,346.8281 C2015.9688,346.9531 2016.2031,347 2016.5938,347 L2024.5938,347 L2024.5938,344.4219 C2024.5938,343.9844 2024.5625,343.8438 2024.4844,343.6875 C2024.3125,343.4375 2024.0313,343.2813 2023.75,343.2813 C2023.4844,343.2813 2023.2188,343.3906 2023.0469,343.6406 C2022.9375,343.7969 2022.9063,343.9375 2022.9063,344.4219 L2022.9063,345.2969 L2018.5469,345.2969 L2018.5469,342.875 Z " fill="#000000"/><text fill="#000000" font-family="sans-serif" font-size="12" lengthAdjust="spacing" textLength="89" x="2040.25" y="346.1543">MedicalRecord</text><line style="stroke:#A80036;stroke-width:1.5;" x1="1941" x2="2196" y1="358" y2="358"/><ellipse cx="1951" cy="369" fill="#000000" rx="3" ry="3" style="stroke:#000000;stroke-width:1.0;"/><text fill="#000000" font-family="sans-serif" font-size="11" lengthAdjust="spacing" textLength="31" x="1960" y="372.2104">id: Int</text><ellipse cx="1951" cy="381.8047" fill="#000000" rx="3" ry="3" style="stroke:#000000;stroke-width:1.0;"/><text fill="#000000" font-family="sans-serif" font-size="11" lengthAdjust="spacing" textLength="71" x="1960" y="385.0151">patientId: Int</text><ellipse cx="1951" cy="394.6094" fill="#000000" rx="3" ry="3" style="stroke:#000000;stroke-width:1.0;"/><text fill="#000000" font-family="sans-serif" font-size="11" lengthAdjust="spacing" textLength="86" x="1960" y="397.8198">patient: Patient</text><ellipse cx="1951" cy="407.4141" fill="#000000" rx="3" ry="3" style="stroke:#000000;stroke-width:1.0;"/><text fill="#000000" font-family="sans-serif" font-size="11" lengthAdjust="spacing" textLength="231" x="1960" y="410.6245">MedicalPrescription: MedicalPrescription[]</text><ellipse cx="1951" cy="420.2188" fill="#000000" rx="3" ry="3" style="stroke:#000000;stroke-width:1.0;"/><text fill="#000000" font-family="sans-serif" font-size="11" lengthAdjust="spacing" textLength="211" x="1960" y="423.4292">NursePrescription: NursePrescription[]</text><ellipse cx="1951" cy="433.0234" fill="#000000" rx="3" ry="3" style="stroke:#000000;stroke-width:1.0;"/><text fill="#000000" font-family="sans-serif" font-size="11" lengthAdjust="spacing" textLength="155" x="1960" y="436.2339">NurseReport: NurseReport[]</text><ellipse cx="1951" cy="445.8281" fill="#000000" rx="3" ry="3" style="stroke:#000000;stroke-width:1.0;"/><text fill="#000000" font-family="sans-serif" font-size="11" lengthAdjust="spacing" textLength="155" x="1960" y="449.0386">TeamReport: TeamReport[]</text><line style="stroke:#A80036;stroke-width:1.5;" x1="1941" x2="2196" y1="455.6328" y2="455.6328"/><!--MD5=[4cecd69333ffe5e300c271dde8a957f3]
class TeamReport--><rect codeLine="126" fill="#FEFECE" filter="url(#f1fa8mkxispdly)" height="137.6328" id="TeamReport" style="stroke:#A80036;stroke-width:1.5;" width="197" x="894" y="326"/><ellipse cx="951.75" cy="342" fill="#ADD1B2" rx="11" ry="11" style="stroke:#A80036;stroke-width:1.0;"/><path d="M950.5469,342.875 L952,342.875 L952,342.9844 C952,343.3906 952.0313,343.5469 952.1094,343.7031 C952.2656,343.9531 952.5469,344.1094 952.8438,344.1094 C953.0938,344.1094 953.3594,343.9688 953.5156,343.75 C953.6406,343.5938 953.6719,343.4375 953.6719,342.9844 L953.6719,341.0625 C953.6719,340.9063 953.6719,340.8594 953.6563,340.7031 C953.5938,340.2344 953.2813,339.9219 952.8281,339.9219 C952.5781,339.9219 952.3125,340.0625 952.1406,340.2813 C952.0313,340.4531 952,340.6094 952,341.0625 L952,341.1875 L950.5469,341.1875 L950.5469,338.7813 L954.5313,338.7813 L954.5313,339.6406 C954.5313,340.0469 954.5625,340.2188 954.6406,340.375 C954.8125,340.625 955.0938,340.7813 955.375,340.7813 C955.6406,340.7813 955.9063,340.6406 956.0781,340.4219 C956.1875,340.25 956.2188,340.1094 956.2188,339.6406 L956.2188,337.0938 L948.5938,337.0938 C948.1563,337.0938 948.0313,337.1094 947.875,337.2031 C947.625,337.3594 947.4688,337.6563 947.4688,337.9375 C947.4688,338.2188 947.6094,338.4688 947.8281,338.6406 C947.9844,338.75 948.1719,338.7813 948.5938,338.7813 L948.8438,338.7813 L948.8438,345.2969 L948.5938,345.2969 C948.1875,345.2969 948.0313,345.3125 947.875,345.4219 C947.625,345.5938 947.4688,345.8594 947.4688,346.1563 C947.4688,346.4219 947.6094,346.6719 947.8281,346.8281 C947.9688,346.9531 948.2031,347 948.5938,347 L956.5938,347 L956.5938,344.4219 C956.5938,343.9844 956.5625,343.8438 956.4844,343.6875 C956.3125,343.4375 956.0313,343.2813 955.75,343.2813 C955.4844,343.2813 955.2188,343.3906 955.0469,343.6406 C954.9375,343.7969 954.9063,343.9375 954.9063,344.4219 L954.9063,345.2969 L950.5469,345.2969 L950.5469,342.875 Z " fill="#000000"/><text fill="#000000" font-family="sans-serif" font-size="12" lengthAdjust="spacing" textLength="73" x="972.25" y="346.1543">TeamReport</text><line style="stroke:#A80036;stroke-width:1.5;" x1="895" x2="1090" y1="358" y2="358"/><ellipse cx="905" cy="369" fill="#000000" rx="3" ry="3" style="stroke:#000000;stroke-width:1.0;"/><text fill="#000000" font-family="sans-serif" font-size="11" lengthAdjust="spacing" textLength="31" x="914" y="372.2104">id: Int</text><ellipse cx="905" cy="381.8047" fill="#000000" rx="3" ry="3" style="stroke:#000000;stroke-width:1.0;"/><text fill="#000000" font-family="sans-serif" font-size="11" lengthAdjust="spacing" textLength="126" x="914" y="385.0151">reportDate: DateTime</text><ellipse cx="905" cy="394.6094" fill="#000000" rx="3" ry="3" style="stroke:#000000;stroke-width:1.0;"/><text fill="#000000" font-family="sans-serif" font-size="11" lengthAdjust="spacing" textLength="74" x="914" y="397.8198">report: String</text><ellipse cx="905" cy="407.4141" fill="#000000" rx="3" ry="3" style="stroke:#000000;stroke-width:1.0;"/><text fill="#000000" font-family="sans-serif" font-size="11" lengthAdjust="spacing" textLength="56" x="914" y="410.6245">userId: Int</text><ellipse cx="905" cy="420.2188" fill="#000000" rx="3" ry="3" style="stroke:#000000;stroke-width:1.0;"/><text fill="#000000" font-family="sans-serif" font-size="11" lengthAdjust="spacing" textLength="115" x="914" y="423.4292">medicalRecordId: Int</text><ellipse cx="905" cy="433.0234" fill="#000000" rx="3" ry="3" style="stroke:#000000;stroke-width:1.0;"/><text fill="#000000" font-family="sans-serif" font-size="11" lengthAdjust="spacing" textLength="171" x="914" y="436.2339">MedicalRecord: MedicalRecord</text><ellipse cx="905" cy="445.8281" fill="#000000" rx="3" ry="3" style="stroke:#000000;stroke-width:1.0;"/><text fill="#000000" font-family="sans-serif" font-size="11" lengthAdjust="spacing" textLength="85" x="914" y="449.0386">signatory: User</text><line style="stroke:#A80036;stroke-width:1.5;" x1="895" x2="1090" y1="455.6328" y2="455.6328"/><!--MD5=[a059576e163b46f56762f12600c49258]
class Nurse--><rect codeLine="136" fill="#FEFECE" filter="url(#f1fa8mkxispdly)" height="150.4375" id="Nurse" style="stroke:#A80036;stroke-width:1.5;" width="331" x="1126" y="320"/><ellipse cx="1269.75" cy="336" fill="#ADD1B2" rx="11" ry="11" style="stroke:#A80036;stroke-width:1.0;"/><path d="M1268.5469,336.875 L1270,336.875 L1270,336.9844 C1270,337.3906 1270.0313,337.5469 1270.1094,337.7031 C1270.2656,337.9531 1270.5469,338.1094 1270.8438,338.1094 C1271.0938,338.1094 1271.3594,337.9688 1271.5156,337.75 C1271.6406,337.5938 1271.6719,337.4375 1271.6719,336.9844 L1271.6719,335.0625 C1271.6719,334.9063 1271.6719,334.8594 1271.6563,334.7031 C1271.5938,334.2344 1271.2813,333.9219 1270.8281,333.9219 C1270.5781,333.9219 1270.3125,334.0625 1270.1406,334.2813 C1270.0313,334.4531 1270,334.6094 1270,335.0625 L1270,335.1875 L1268.5469,335.1875 L1268.5469,332.7813 L1272.5313,332.7813 L1272.5313,333.6406 C1272.5313,334.0469 1272.5625,334.2188 1272.6406,334.375 C1272.8125,334.625 1273.0938,334.7813 1273.375,334.7813 C1273.6406,334.7813 1273.9063,334.6406 1274.0781,334.4219 C1274.1875,334.25 1274.2188,334.1094 1274.2188,333.6406 L1274.2188,331.0938 L1266.5938,331.0938 C1266.1563,331.0938 1266.0313,331.1094 1265.875,331.2031 C1265.625,331.3594 1265.4688,331.6563 1265.4688,331.9375 C1265.4688,332.2188 1265.6094,332.4688 1265.8281,332.6406 C1265.9844,332.75 1266.1719,332.7813 1266.5938,332.7813 L1266.8438,332.7813 L1266.8438,339.2969 L1266.5938,339.2969 C1266.1875,339.2969 1266.0313,339.3125 1265.875,339.4219 C1265.625,339.5938 1265.4688,339.8594 1265.4688,340.1563 C1265.4688,340.4219 1265.6094,340.6719 1265.8281,340.8281 C1265.9688,340.9531 1266.2031,341 1266.5938,341 L1274.5938,341 L1274.5938,338.4219 C1274.5938,337.9844 1274.5625,337.8438 1274.4844,337.6875 C1274.3125,337.4375 1274.0313,337.2813 1273.75,337.2813 C1273.4844,337.2813 1273.2188,337.3906 1273.0469,337.6406 C1272.9375,337.7969 1272.9063,337.9375 1272.9063,338.4219 L1272.9063,339.2969 L1268.5469,339.2969 L1268.5469,336.875 Z " fill="#000000"/><text fill="#000000" font-family="sans-serif" font-size="12" lengthAdjust="spacing" textLength="35" x="1290.25" y="340.1543">Nurse</text><line style="stroke:#A80036;stroke-width:1.5;" x1="1127" x2="1456" y1="352" y2="352"/><ellipse cx="1137" cy="363" fill="#000000" rx="3" ry="3" style="stroke:#000000;stroke-width:1.0;"/><text fill="#000000" font-family="sans-serif" font-size="11" lengthAdjust="spacing" textLength="72" x="1146" y="366.2104">coren: String</text><ellipse cx="1137" cy="375.8047" fill="#000000" rx="3" ry="3" style="stroke:#000000;stroke-width:1.0;"/><text fill="#000000" font-family="sans-serif" font-size="11" lengthAdjust="spacing" textLength="89" x="1146" y="379.0151">active: Boolean</text><ellipse cx="1137" cy="388.6094" fill="#000000" rx="3" ry="3" style="stroke:#000000;stroke-width:1.0;"/><text fill="#000000" font-family="sans-serif" font-size="11" lengthAdjust="spacing" textLength="56" x="1146" y="391.8198">userId: Int</text><ellipse cx="1137" cy="401.4141" fill="#000000" rx="3" ry="3" style="stroke:#000000;stroke-width:1.0;"/><text fill="#000000" font-family="sans-serif" font-size="11" lengthAdjust="spacing" textLength="58" x="1146" y="404.6245">user: User</text><ellipse cx="1137" cy="414.2188" fill="#000000" rx="3" ry="3" style="stroke:#000000;stroke-width:1.0;"/><text fill="#000000" font-family="sans-serif" font-size="11" lengthAdjust="spacing" textLength="305" x="1146" y="417.4292">NurseExecutorMedical: ExecutorsMedicalPrescription[]</text><ellipse cx="1137" cy="427.0234" fill="#000000" rx="3" ry="3" style="stroke:#000000;stroke-width:1.0;"/><text fill="#000000" font-family="sans-serif" font-size="11" lengthAdjust="spacing" textLength="196" x="1146" y="430.2339">NurseExecutor: NursePrescription[]</text><ellipse cx="1137" cy="439.8281" fill="#000000" rx="3" ry="3" style="stroke:#000000;stroke-width:1.0;"/><text fill="#000000" font-family="sans-serif" font-size="11" lengthAdjust="spacing" textLength="202" x="1146" y="443.0386">NursePrescriber: NursePrescription[]</text><ellipse cx="1137" cy="452.6328" fill="#000000" rx="3" ry="3" style="stroke:#000000;stroke-width:1.0;"/><text fill="#000000" font-family="sans-serif" font-size="11" lengthAdjust="spacing" textLength="155" x="1146" y="455.8433">NurseReport: NurseReport[]</text><line style="stroke:#A80036;stroke-width:1.5;" x1="1127" x2="1456" y1="462.4375" y2="462.4375"/><!--MD5=[64d1cc86830029754a80a19dcbe7ac94]
class NursePrescription--><rect codeLine="147" fill="#FEFECE" filter="url(#f1fa8mkxispdly)" height="201.6563" id="NursePrescription" style="stroke:#A80036;stroke-width:1.5;" width="197" x="1854" y="542.5"/><ellipse cx="1895.55" cy="558.5" fill="#ADD1B2" rx="11" ry="11" style="stroke:#A80036;stroke-width:1.0;"/><path d="M1894.3469,559.375 L1895.8,559.375 L1895.8,559.4844 C1895.8,559.8906 1895.8313,560.0469 1895.9094,560.2031 C1896.0656,560.4531 1896.3469,560.6094 1896.6438,560.6094 C1896.8938,560.6094 1897.1594,560.4688 1897.3156,560.25 C1897.4406,560.0938 1897.4719,559.9375 1897.4719,559.4844 L1897.4719,557.5625 C1897.4719,557.4063 1897.4719,557.3594 1897.4563,557.2031 C1897.3938,556.7344 1897.0813,556.4219 1896.6281,556.4219 C1896.3781,556.4219 1896.1125,556.5625 1895.9406,556.7813 C1895.8313,556.9531 1895.8,557.1094 1895.8,557.5625 L1895.8,557.6875 L1894.3469,557.6875 L1894.3469,555.2813 L1898.3313,555.2813 L1898.3313,556.1406 C1898.3313,556.5469 1898.3625,556.7188 1898.4406,556.875 C1898.6125,557.125 1898.8938,557.2813 1899.175,557.2813 C1899.4406,557.2813 1899.7063,557.1406 1899.8781,556.9219 C1899.9875,556.75 1900.0188,556.6094 1900.0188,556.1406 L1900.0188,553.5938 L1892.3938,553.5938 C1891.9563,553.5938 1891.8313,553.6094 1891.675,553.7031 C1891.425,553.8594 1891.2688,554.1563 1891.2688,554.4375 C1891.2688,554.7188 1891.4094,554.9688 1891.6281,555.1406 C1891.7844,555.25 1891.9719,555.2813 1892.3938,555.2813 L1892.6438,555.2813 L1892.6438,561.7969 L1892.3938,561.7969 C1891.9875,561.7969 1891.8313,561.8125 1891.675,561.9219 C1891.425,562.0938 1891.2688,562.3594 1891.2688,562.6563 C1891.2688,562.9219 1891.4094,563.1719 1891.6281,563.3281 C1891.7688,563.4531 1892.0031,563.5 1892.3938,563.5 L1900.3938,563.5 L1900.3938,560.9219 C1900.3938,560.4844 1900.3625,560.3438 1900.2844,560.1875 C1900.1125,559.9375 1899.8313,559.7813 1899.55,559.7813 C1899.2844,559.7813 1899.0188,559.8906 1898.8469,560.1406 C1898.7375,560.2969 1898.7063,560.4375 1898.7063,560.9219 L1898.7063,561.7969 L1894.3469,561.7969 L1894.3469,559.375 Z " fill="#000000"/><text fill="#000000" font-family="sans-serif" font-size="12" lengthAdjust="spacing" textLength="106" x="1915.45" y="562.6543">NursePrescription</text><line style="stroke:#A80036;stroke-width:1.5;" x1="1855" x2="2050" y1="574.5" y2="574.5"/><ellipse cx="1865" cy="585.5" fill="#000000" rx="3" ry="3" style="stroke:#000000;stroke-width:1.0;"/><text fill="#000000" font-family="sans-serif" font-size="11" lengthAdjust="spacing" textLength="31" x="1874" y="588.7104">id: Int</text><ellipse cx="1865" cy="598.3047" fill="#000000" rx="3" ry="3" style="stroke:#000000;stroke-width:1.0;"/><text fill="#000000" font-family="sans-serif" font-size="11" lengthAdjust="spacing" textLength="106" x="1874" y="601.5151">prescription: String</text><ellipse cx="1865" cy="611.1094" fill="#000000" rx="3" ry="3" style="stroke:#000000;stroke-width:1.0;"/><text fill="#000000" font-family="sans-serif" font-size="11" lengthAdjust="spacing" textLength="158" x="1874" y="614.3198">prescriptionDate: DateTime</text><ellipse cx="1865" cy="623.9141" fill="#000000" rx="3" ry="3" style="stroke:#000000;stroke-width:1.0;"/><text fill="#000000" font-family="sans-serif" font-size="11" lengthAdjust="spacing" textLength="101" x="1874" y="627.1245">realized: Boolean</text><text fill="#000000" font-family="sans-serif" font-size="11" lengthAdjust="spacing" textLength="66" x="1874" y="639.9292">obs: String?</text><text fill="#000000" font-family="sans-serif" font-size="11" lengthAdjust="spacing" textLength="155" x="1874" y="652.7339">executionDate: DateTime?</text><ellipse cx="1865" cy="662.3281" fill="#000000" rx="3" ry="3" style="stroke:#000000;stroke-width:1.0;"/><text fill="#000000" font-family="sans-serif" font-size="11" lengthAdjust="spacing" textLength="115" x="1874" y="665.5386">medicalRecordId: Int</text><ellipse cx="1865" cy="675.1328" fill="#000000" rx="3" ry="3" style="stroke:#000000;stroke-width:1.0;"/><text fill="#000000" font-family="sans-serif" font-size="11" lengthAdjust="spacing" textLength="88" x="1874" y="678.3433">prescriberId: Int</text><text fill="#000000" font-family="sans-serif" font-size="11" lengthAdjust="spacing" textLength="88" x="1874" y="691.1479">executorId: Int?</text><text fill="#000000" font-family="sans-serif" font-size="11" lengthAdjust="spacing" textLength="96" x="1874" y="703.9526">Executor: Nurse?</text><ellipse cx="1865" cy="713.5469" fill="#000000" rx="3" ry="3" style="stroke:#000000;stroke-width:1.0;"/><text fill="#000000" font-family="sans-serif" font-size="11" lengthAdjust="spacing" textLength="171" x="1874" y="716.7573">MedicalRecord: MedicalRecord</text><ellipse cx="1865" cy="726.3516" fill="#000000" rx="3" ry="3" style="stroke:#000000;stroke-width:1.0;"/><text fill="#000000" font-family="sans-serif" font-size="11" lengthAdjust="spacing" textLength="96" x="1874" y="729.562">Prescriber: Nurse</text><line style="stroke:#A80036;stroke-width:1.5;" x1="1855" x2="2050" y1="736.1563" y2="736.1563"/><!--MD5=[4ef6a16edff0380b0f2779ea2fe63ece]
class NurseReport--><rect codeLine="162" fill="#FEFECE" filter="url(#f1fa8mkxispdly)" height="137.6328" id="NurseReport" style="stroke:#A80036;stroke-width:1.5;" width="197" x="2086" y="574.5"/><ellipse cx="2142.75" cy="590.5" fill="#ADD1B2" rx="11" ry="11" style="stroke:#A80036;stroke-width:1.0;"/><path d="M2141.5469,591.375 L2143,591.375 L2143,591.4844 C2143,591.8906 2143.0313,592.0469 2143.1094,592.2031 C2143.2656,592.4531 2143.5469,592.6094 2143.8438,592.6094 C2144.0938,592.6094 2144.3594,592.4688 2144.5156,592.25 C2144.6406,592.0938 2144.6719,591.9375 2144.6719,591.4844 L2144.6719,589.5625 C2144.6719,589.4063 2144.6719,589.3594 2144.6563,589.2031 C2144.5938,588.7344 2144.2813,588.4219 2143.8281,588.4219 C2143.5781,588.4219 2143.3125,588.5625 2143.1406,588.7813 C2143.0313,588.9531 2143,589.1094 2143,589.5625 L2143,589.6875 L2141.5469,589.6875 L2141.5469,587.2813 L2145.5313,587.2813 L2145.5313,588.1406 C2145.5313,588.5469 2145.5625,588.7188 2145.6406,588.875 C2145.8125,589.125 2146.0938,589.2813 2146.375,589.2813 C2146.6406,589.2813 2146.9063,589.1406 2147.0781,588.9219 C2147.1875,588.75 2147.2188,588.6094 2147.2188,588.1406 L2147.2188,585.5938 L2139.5938,585.5938 C2139.1563,585.5938 2139.0313,585.6094 2138.875,585.7031 C2138.625,585.8594 2138.4688,586.1563 2138.4688,586.4375 C2138.4688,586.7188 2138.6094,586.9688 2138.8281,587.1406 C2138.9844,587.25 2139.1719,587.2813 2139.5938,587.2813 L2139.8438,587.2813 L2139.8438,593.7969 L2139.5938,593.7969 C2139.1875,593.7969 2139.0313,593.8125 2138.875,593.9219 C2138.625,594.0938 2138.4688,594.3594 2138.4688,594.6563 C2138.4688,594.9219 2138.6094,595.1719 2138.8281,595.3281 C2138.9688,595.4531 2139.2031,595.5 2139.5938,595.5 L2147.5938,595.5 L2147.5938,592.9219 C2147.5938,592.4844 2147.5625,592.3438 2147.4844,592.1875 C2147.3125,591.9375 2147.0313,591.7813 2146.75,591.7813 C2146.4844,591.7813 2146.2188,591.8906 2146.0469,592.1406 C2145.9375,592.2969 2145.9063,592.4375 2145.9063,592.9219 L2145.9063,593.7969 L2141.5469,593.7969 L2141.5469,591.375 Z " fill="#000000"/><text fill="#000000" font-family="sans-serif" font-size="12" lengthAdjust="spacing" textLength="75" x="2163.25" y="594.6543">NurseReport</text><line style="stroke:#A80036;stroke-width:1.5;" x1="2087" x2="2282" y1="606.5" y2="606.5"/><ellipse cx="2097" cy="617.5" fill="#000000" rx="3" ry="3" style="stroke:#000000;stroke-width:1.0;"/><text fill="#000000" font-family="sans-serif" font-size="11" lengthAdjust="spacing" textLength="31" x="2106" y="620.7104">id: Int</text><ellipse cx="2097" cy="630.3047" fill="#000000" rx="3" ry="3" style="stroke:#000000;stroke-width:1.0;"/><text fill="#000000" font-family="sans-serif" font-size="11" lengthAdjust="spacing" textLength="126" x="2106" y="633.5151">reportDate: DateTime</text><ellipse cx="2097" cy="643.1094" fill="#000000" rx="3" ry="3" style="stroke:#000000;stroke-width:1.0;"/><text fill="#000000" font-family="sans-serif" font-size="11" lengthAdjust="spacing" textLength="74" x="2106" y="646.3198">report: String</text><ellipse cx="2097" cy="655.9141" fill="#000000" rx="3" ry="3" style="stroke:#000000;stroke-width:1.0;"/><text fill="#000000" font-family="sans-serif" font-size="11" lengthAdjust="spacing" textLength="115" x="2106" y="659.1245">medicalRecordId: Int</text><ellipse cx="2097" cy="668.7188" fill="#000000" rx="3" ry="3" style="stroke:#000000;stroke-width:1.0;"/><text fill="#000000" font-family="sans-serif" font-size="11" lengthAdjust="spacing" textLength="83" x="2106" y="671.9292">signatoryId: Int</text><ellipse cx="2097" cy="681.5234" fill="#000000" rx="3" ry="3" style="stroke:#000000;stroke-width:1.0;"/><text fill="#000000" font-family="sans-serif" font-size="11" lengthAdjust="spacing" textLength="171" x="2106" y="684.7339">MedicalRecord: MedicalRecord</text><ellipse cx="2097" cy="694.3281" fill="#000000" rx="3" ry="3" style="stroke:#000000;stroke-width:1.0;"/><text fill="#000000" font-family="sans-serif" font-size="11" lengthAdjust="spacing" textLength="92" x="2106" y="697.5386">signatory: Nurse</text><line style="stroke:#A80036;stroke-width:1.5;" x1="2087" x2="2282" y1="704.1328" y2="704.1328"/><!--MD5=[bf963651faa913c734e6109ff257fb0b]
class ExecutorsMedicalPrescription--><rect codeLine="172" fill="#FEFECE" filter="url(#f1fa8mkxispdly)" height="124.8281" id="ExecutorsMedicalPrescription" style="stroke:#A80036;stroke-width:1.5;" width="249" x="12" y="817"/><ellipse cx="45" cy="833" fill="#ADD1B2" rx="11" ry="11" style="stroke:#A80036;stroke-width:1.0;"/><path d="M43.7969,833.875 L45.25,833.875 L45.25,833.9844 C45.25,834.3906 45.2813,834.5469 45.3594,834.7031 C45.5156,834.9531 45.7969,835.1094 46.0938,835.1094 C46.3438,835.1094 46.6094,834.9688 46.7656,834.75 C46.8906,834.5938 46.9219,834.4375 46.9219,833.9844 L46.9219,832.0625 C46.9219,831.9063 46.9219,831.8594 46.9063,831.7031 C46.8438,831.2344 46.5313,830.9219 46.0781,830.9219 C45.8281,830.9219 45.5625,831.0625 45.3906,831.2813 C45.2813,831.4531 45.25,831.6094 45.25,832.0625 L45.25,832.1875 L43.7969,832.1875 L43.7969,829.7813 L47.7813,829.7813 L47.7813,830.6406 C47.7813,831.0469 47.8125,831.2188 47.8906,831.375 C48.0625,831.625 48.3438,831.7813 48.625,831.7813 C48.8906,831.7813 49.1563,831.6406 49.3281,831.4219 C49.4375,831.25 49.4688,831.1094 49.4688,830.6406 L49.4688,828.0938 L41.8438,828.0938 C41.4063,828.0938 41.2813,828.1094 41.125,828.2031 C40.875,828.3594 40.7188,828.6563 40.7188,828.9375 C40.7188,829.2188 40.8594,829.4688 41.0781,829.6406 C41.2344,829.75 41.4219,829.7813 41.8438,829.7813 L42.0938,829.7813 L42.0938,836.2969 L41.8438,836.2969 C41.4375,836.2969 41.2813,836.3125 41.125,836.4219 C40.875,836.5938 40.7188,836.8594 40.7188,837.1563 C40.7188,837.4219 40.8594,837.6719 41.0781,837.8281 C41.2188,837.9531 41.4531,838 41.8438,838 L49.8438,838 L49.8438,835.4219 C49.8438,834.9844 49.8125,834.8438 49.7344,834.6875 C49.5625,834.4375 49.2813,834.2813 49,834.2813 C48.7344,834.2813 48.4688,834.3906 48.2969,834.6406 C48.1875,834.7969 48.1563,834.9375 48.1563,835.4219 L48.1563,836.2969 L43.7969,836.2969 L43.7969,833.875 Z " fill="#000000"/><text fill="#000000" font-family="sans-serif" font-size="12" lengthAdjust="spacing" textLength="177" x="63" y="837.1543">ExecutorsMedicalPrescription</text><line style="stroke:#A80036;stroke-width:1.5;" x1="13" x2="260" y1="849" y2="849"/><ellipse cx="23" cy="860" fill="#000000" rx="3" ry="3" style="stroke:#000000;stroke-width:1.0;"/><text fill="#000000" font-family="sans-serif" font-size="11" lengthAdjust="spacing" textLength="31" x="32" y="863.2104">id: Int</text><ellipse cx="23" cy="872.8047" fill="#000000" rx="3" ry="3" style="stroke:#000000;stroke-width:1.0;"/><text fill="#000000" font-family="sans-serif" font-size="11" lengthAdjust="spacing" textLength="141" x="32" y="876.0151">medicalPrescriptionId: Int</text><ellipse cx="23" cy="885.6094" fill="#000000" rx="3" ry="3" style="stroke:#000000;stroke-width:1.0;"/><text fill="#000000" font-family="sans-serif" font-size="11" lengthAdjust="spacing" textLength="82" x="32" y="888.8198">executorId: Int</text><ellipse cx="23" cy="898.4141" fill="#000000" rx="3" ry="3" style="stroke:#000000;stroke-width:1.0;"/><text fill="#000000" font-family="sans-serif" font-size="11" lengthAdjust="spacing" textLength="149" x="32" y="901.6245">executionDate: DateTime</text><ellipse cx="23" cy="911.2188" fill="#000000" rx="3" ry="3" style="stroke:#000000;stroke-width:1.0;"/><text fill="#000000" font-family="sans-serif" font-size="11" lengthAdjust="spacing" textLength="90" x="32" y="914.4292">Executor: Nurse</text><ellipse cx="23" cy="924.0234" fill="#000000" rx="3" ry="3" style="stroke:#000000;stroke-width:1.0;"/><text fill="#000000" font-family="sans-serif" font-size="11" lengthAdjust="spacing" textLength="223" x="32" y="927.2339">MedicalPrescription: MedicalPrescription</text><line style="stroke:#A80036;stroke-width:1.5;" x1="13" x2="260" y1="933.8281" y2="933.8281"/><!--MD5=[67141e6eb3ba199f7c4756941637724e]
link User to Group--><path codeLine="181" d="M641,268.037 C641,268.037 641,324.413 641,324.413 " fill="none" id="User-Group" style="stroke:#A80036;stroke-width:1.0;stroke-dasharray:7.0,7.0;"/><line style="stroke:#A80036;stroke-width:1.0;" x1="641" x2="641" y1="321.413" y2="332.413"/><ellipse cx="641" cy="321.413" rx="4" ry="4" style="stroke:#A80036;stroke-width:1.0;fill:none;"/><line style="stroke:#A80036;stroke-width:1.0;fill:none;" x1="645" x2="637" y1="328.413" y2="328.413"/><line style="stroke:#A80036;stroke-width:1.0;fill:none;" x1="641" x2="635" y1="268.037" y2="260.037"/><line style="stroke:#A80036;stroke-width:1.0;fill:none;" x1="641" x2="647" y1="268.037" y2="260.037"/><line style="stroke:#A80036;stroke-width:1.0;fill:none;" x1="641" x2="641" y1="268.037" y2="260.037"/><line style="stroke:#A80036;stroke-width:1.0;fill:none;" x1="637" x2="645" y1="270.037" y2="270.037"/><!--MD5=[67141e6eb3ba199f7c4756941637724e]
link User to Group--><path codeLine="183" d="M675,268.037 C675,268.037 675,324.413 675,324.413 " fill="none" id="User-Group-1" style="stroke:#A80036;stroke-width:1.0;stroke-dasharray:7.0,7.0;"/><line style="stroke:#A80036;stroke-width:1.0;" x1="675" x2="675" y1="321.413" y2="332.413"/><ellipse cx="675" cy="321.413" rx="4" ry="4" style="stroke:#A80036;stroke-width:1.0;fill:none;"/><line style="stroke:#A80036;stroke-width:1.0;fill:none;" x1="679" x2="671" y1="328.413" y2="328.413"/><line style="stroke:#A80036;stroke-width:1.0;fill:none;" x1="675" x2="669" y1="268.037" y2="260.037"/><line style="stroke:#A80036;stroke-width:1.0;fill:none;" x1="675" x2="681" y1="268.037" y2="260.037"/><line style="stroke:#A80036;stroke-width:1.0;fill:none;" x1="675" x2="675" y1="268.037" y2="260.037"/><line style="stroke:#A80036;stroke-width:1.0;fill:none;" x1="671" x2="679" y1="270.037" y2="270.037"/><!--MD5=[b6d3dd3a27d395b097e9e19547bf02f2]
link User to Jwt--><path codeLine="182" d="M796.039,247 C796.039,247 1566.5,247 1566.5,247 C1566.5,247 1566.5,317.767 1566.5,317.767 " fill="none" id="User-Jwt" style="stroke:#A80036;stroke-width:1.0;stroke-dasharray:7.0,7.0;"/><line style="stroke:#A80036;stroke-width:1.0;" x1="1566.5" x2="1566.5" y1="314.767" y2="325.767"/><ellipse cx="1566.5" cy="314.767" rx="4" ry="4" style="stroke:#A80036;stroke-width:1.0;fill:none;"/><line style="stroke:#A80036;stroke-width:1.0;fill:none;" x1="1570.5" x2="1562.5" y1="321.767" y2="321.767"/><line style="stroke:#A80036;stroke-width:1.0;fill:none;" x1="792.039" x2="792.039" y1="251" y2="243"/><line style="stroke:#A80036;stroke-width:1.0;fill:none;" x1="795.039" x2="795.039" y1="251" y2="243"/><line style="stroke:#A80036;stroke-width:1.0;fill:none;" x1="796.039" x2="788.039" y1="247" y2="247"/><!--MD5=[dacd0d41c30f0f4af4274f36018a8d91]
link Permission to GroupPermission--><path codeLine="184" d="M1765,459.191 C1765,459.191 1765,644 1765,644 C1765,644 1253.61,644 1253.61,644 " fill="none" id="Permission-GroupPermission" style="stroke:#A80036;stroke-width:1.0;stroke-dasharray:7.0,7.0;"/><line style="stroke:#A80036;stroke-width:1.0;" x1="1253.61" x2="1245.61" y1="644" y2="650"/><line style="stroke:#A80036;stroke-width:1.0;" x1="1253.61" x2="1245.61" y1="644" y2="638"/><line style="stroke:#A80036;stroke-width:1.0;" x1="1253.61" x2="1245.61" y1="644" y2="644"/><line style="stroke:#A80036;stroke-width:1.0;" x1="1255.61" x2="1255.61" y1="648" y2="640"/><line style="stroke:#A80036;stroke-width:1.0;" x1="1761" x2="1769" y1="455.191" y2="455.191"/><line style="stroke:#A80036;stroke-width:1.0;" x1="1761" x2="1769" y1="458.191" y2="458.191"/><line style="stroke:#A80036;stroke-width:1.0;" x1="1765" x2="1765" y1="459.191" y2="451.191"/><!--MD5=[f81011b08779d54c19923817c92042fc]
link Group to GroupPermission--><path codeLine="185" d="M594.5,465.512 C594.5,465.512 594.5,644 594.5,644 C594.5,644 1081.33,644 1081.33,644 " fill="none" id="Group-GroupPermission" style="stroke:#A80036;stroke-width:1.0;stroke-dasharray:7.0,7.0;"/><line style="stroke:#A80036;stroke-width:1.0;" x1="1081.33" x2="1089.33" y1="644" y2="638"/><line style="stroke:#A80036;stroke-width:1.0;" x1="1081.33" x2="1089.33" y1="644" y2="650"/><line style="stroke:#A80036;stroke-width:1.0;" x1="1081.33" x2="1089.33" y1="644" y2="644"/><line style="stroke:#A80036;stroke-width:1.0;" x1="1079.33" x2="1079.33" y1="640" y2="648"/><line style="stroke:#A80036;stroke-width:1.0;" x1="590.5" x2="598.5" y1="461.512" y2="461.512"/><line style="stroke:#A80036;stroke-width:1.0;" x1="590.5" x2="598.5" y1="464.512" y2="464.512"/><line style="stroke:#A80036;stroke-width:1.0;" x1="594.5" x2="594.5" y1="465.512" y2="457.512"/><!--MD5=[f69ebe575c48b85bd8ebf27172c95ff2]
link User to LinkReset--><path codeLine="186" d="M598.847,176 C598.847,176 370.5,176 370.5,176 C370.5,176 370.5,317.707 370.5,317.707 " fill="none" id="User-LinkReset" style="stroke:#A80036;stroke-width:1.0;stroke-dasharray:7.0,7.0;"/><line style="stroke:#A80036;stroke-width:1.0;" x1="370.5" x2="376.5" y1="317.707" y2="325.707"/><line style="stroke:#A80036;stroke-width:1.0;" x1="370.5" x2="364.5" y1="317.707" y2="325.707"/><line style="stroke:#A80036;stroke-width:1.0;" x1="370.5" x2="370.5" y1="317.707" y2="325.707"/><line style="stroke:#A80036;stroke-width:1.0;" x1="374.5" x2="366.5" y1="315.707" y2="315.707"/><line style="stroke:#A80036;stroke-width:1.0;" x1="602.847" x2="602.847" y1="172" y2="180"/><line style="stroke:#A80036;stroke-width:1.0;" x1="599.847" x2="599.847" y1="172" y2="180"/><line style="stroke:#A80036;stroke-width:1.0;" x1="598.847" x2="606.847" y1="176" y2="176"/><!--MD5=[5499e531898646cba9793dbd8f48ef3a]
link Patient to MedicalRecord--><path codeLine="187" d="M2034.67,248.617 C2034.67,248.617 2034.67,317.85 2034.67,317.85 " fill="none" id="Patient-MedicalRecord" style="stroke:#A80036;stroke-width:1.0;stroke-dasharray:7.0,7.0;"/><line style="stroke:#A80036;stroke-width:1.0;" x1="2034.67" x2="2034.67" y1="314.85" y2="325.85"/><ellipse cx="2034.67" cy="314.85" rx="4" ry="4" style="stroke:#A80036;stroke-width:1.0;fill:none;"/><line style="stroke:#A80036;stroke-width:1.0;fill:none;" x1="2038.67" x2="2030.67" y1="321.85" y2="321.85"/><line style="stroke:#A80036;stroke-width:1.0;fill:none;" x1="2030.67" x2="2038.67" y1="244.617" y2="244.617"/><line style="stroke:#A80036;stroke-width:1.0;fill:none;" x1="2030.67" x2="2038.67" y1="247.617" y2="247.617"/><line style="stroke:#A80036;stroke-width:1.0;fill:none;" x1="2034.67" x2="2034.67" y1="248.617" y2="240.617"/><!--MD5=[5499e531898646cba9793dbd8f48ef3a]
link Patient to MedicalRecord--><path codeLine="191" d="M2102.33,248.617 C2102.33,248.617 2102.33,317.85 2102.33,317.85 " fill="none" id="Patient-MedicalRecord-1" style="stroke:#A80036;stroke-width:1.0;stroke-dasharray:7.0,7.0;"/><line style="stroke:#A80036;stroke-width:1.0;" x1="2102.33" x2="2102.33" y1="314.85" y2="325.85"/><ellipse cx="2102.33" cy="314.85" rx="4" ry="4" style="stroke:#A80036;stroke-width:1.0;fill:none;"/><line style="stroke:#A80036;stroke-width:1.0;fill:none;" x1="2106.33" x2="2098.33" y1="321.85" y2="321.85"/><line style="stroke:#A80036;stroke-width:1.0;fill:none;" x1="2098.33" x2="2106.33" y1="244.617" y2="244.617"/><line style="stroke:#A80036;stroke-width:1.0;fill:none;" x1="2098.33" x2="2106.33" y1="247.617" y2="247.617"/><line style="stroke:#A80036;stroke-width:1.0;fill:none;" x1="2102.33" x2="2102.33" y1="248.617" y2="240.617"/><!--MD5=[368f8f536ed01aad29fd9302b9bb6d68]
link User to Doctor--><path codeLine="188" d="M598.742,92 C598.742,92 136.5,92 136.5,92 C136.5,92 136.5,324.218 136.5,324.218 " fill="none" id="User-Doctor" style="stroke:#A80036;stroke-width:1.0;stroke-dasharray:7.0,7.0;"/><line style="stroke:#A80036;stroke-width:1.0;" x1="136.5" x2="136.5" y1="321.218" y2="332.218"/><ellipse cx="136.5" cy="321.218" rx="4" ry="4" style="stroke:#A80036;stroke-width:1.0;fill:none;"/><line style="stroke:#A80036;stroke-width:1.0;fill:none;" x1="140.5" x2="132.5" y1="328.218" y2="328.218"/><line style="stroke:#A80036;stroke-width:1.0;fill:none;" x1="602.742" x2="602.742" y1="88" y2="96"/><line style="stroke:#A80036;stroke-width:1.0;fill:none;" x1="599.742" x2="599.742" y1="88" y2="96"/><line style="stroke:#A80036;stroke-width:1.0;fill:none;" x1="598.742" x2="606.742" y1="92" y2="92"/><!--MD5=[1e108d242f2159a04bb04a1d1378df89]
link User to Adm--><path codeLine="189" d="M758.667,268.037 C758.667,268.037 758.667,343.953 758.667,343.953 " fill="none" id="User-Adm" style="stroke:#A80036;stroke-width:1.0;stroke-dasharray:7.0,7.0;"/><line style="stroke:#A80036;stroke-width:1.0;" x1="758.667" x2="758.667" y1="340.953" y2="351.953"/><ellipse cx="758.667" cy="340.953" rx="4" ry="4" style="stroke:#A80036;stroke-width:1.0;fill:none;"/><line style="stroke:#A80036;stroke-width:1.0;fill:none;" x1="762.667" x2="754.667" y1="347.953" y2="347.953"/><line style="stroke:#A80036;stroke-width:1.0;fill:none;" x1="754.667" x2="762.667" y1="264.037" y2="264.037"/><line style="stroke:#A80036;stroke-width:1.0;fill:none;" x1="754.667" x2="762.667" y1="267.037" y2="267.037"/><line style="stroke:#A80036;stroke-width:1.0;fill:none;" x1="758.667" x2="758.667" y1="268.037" y2="260.037"/><!--MD5=[9128ef9680314361adbc1f4cf193280d]
link Doctor to MedicalPrescription--><path codeLine="190" d="M136.5,465.707 C136.5,465.707 136.5,521.523 136.5,521.523 " fill="none" id="Doctor-MedicalPrescription" style="stroke:#A80036;stroke-width:1.0;stroke-dasharray:7.0,7.0;"/><line style="stroke:#A80036;stroke-width:1.0;" x1="136.5" x2="142.5" y1="521.523" y2="529.523"/><line style="stroke:#A80036;stroke-width:1.0;" x1="136.5" x2="130.5" y1="521.523" y2="529.523"/><line style="stroke:#A80036;stroke-width:1.0;" x1="136.5" x2="136.5" y1="521.523" y2="529.523"/><line style="stroke:#A80036;stroke-width:1.0;" x1="140.5" x2="132.5" y1="519.523" y2="519.523"/><line style="stroke:#A80036;stroke-width:1.0;" x1="132.5" x2="140.5" y1="461.707" y2="461.707"/><line style="stroke:#A80036;stroke-width:1.0;" x1="132.5" x2="140.5" y1="464.707" y2="464.707"/><line style="stroke:#A80036;stroke-width:1.0;" x1="136.5" x2="136.5" y1="465.707" y2="457.707"/><!--MD5=[e15fb0f5fa1df4ddc09bb30ea4f267f0]
link User to TeamReport--><path codeLine="192" d="M773.333,268.2 C773.333,268.2 773.333,343 773.333,343 C773.333,343 885.816,343 885.816,343 " fill="none" id="User-TeamReport" style="stroke:#A80036;stroke-width:1.0;stroke-dasharray:7.0,7.0;"/><line style="stroke:#A80036;stroke-width:1.0;" x1="885.816" x2="893.816" y1="343" y2="337"/><line style="stroke:#A80036;stroke-width:1.0;" x1="885.816" x2="893.816" y1="343" y2="349"/><line style="stroke:#A80036;stroke-width:1.0;" x1="885.816" x2="893.816" y1="343" y2="343"/><line style="stroke:#A80036;stroke-width:1.0;" x1="883.816" x2="883.816" y1="339" y2="347"/><line style="stroke:#A80036;stroke-width:1.0;" x1="769.333" x2="777.333" y1="264.2" y2="264.2"/><line style="stroke:#A80036;stroke-width:1.0;" x1="769.333" x2="777.333" y1="267.2" y2="267.2"/><line style="stroke:#A80036;stroke-width:1.0;" x1="773.333" x2="773.333" y1="268.2" y2="260.2"/><!--MD5=[e2f390ff4d92bb292ca9911c4fa65422]
link User to Nurse--><path codeLine="193" d="M796.039,254 C796.039,254 1291.5,254 1291.5,254 C1291.5,254 1291.5,311.959 1291.5,311.959 " fill="none" id="User-Nurse" style="stroke:#A80036;stroke-width:1.0;stroke-dasharray:7.0,7.0;"/><line style="stroke:#A80036;stroke-width:1.0;" x1="1291.5" x2="1291.5" y1="308.959" y2="319.959"/><ellipse cx="1291.5" cy="308.959" rx="4" ry="4" style="stroke:#A80036;stroke-width:1.0;fill:none;"/><line style="stroke:#A80036;stroke-width:1.0;fill:none;" x1="1295.5" x2="1287.5" y1="315.959" y2="315.959"/><line style="stroke:#A80036;stroke-width:1.0;fill:none;" x1="792.039" x2="792.039" y1="258" y2="250"/><line style="stroke:#A80036;stroke-width:1.0;fill:none;" x1="795.039" x2="795.039" y1="258" y2="250"/><line style="stroke:#A80036;stroke-width:1.0;fill:none;" x1="796.039" x2="788.039" y1="254" y2="254"/><!--MD5=[7406c410648326ab31d5abb90736e2a3]
link MedicalRecord to NursePrescription--><path codeLine="194" d="M1995.5,472.221 C1995.5,472.221 1995.5,534.134 1995.5,534.134 " fill="none" id="MedicalRecord-NursePrescription" style="stroke:#A80036;stroke-width:1.0;stroke-dasharray:7.0,7.0;"/><line style="stroke:#A80036;stroke-width:1.0;" x1="1995.5" x2="2001.5" y1="534.134" y2="542.134"/><line style="stroke:#A80036;stroke-width:1.0;" x1="1995.5" x2="1989.5" y1="534.134" y2="542.134"/><line style="stroke:#A80036;stroke-width:1.0;" x1="1995.5" x2="1995.5" y1="534.134" y2="542.134"/><line style="stroke:#A80036;stroke-width:1.0;" x1="1999.5" x2="1991.5" y1="532.134" y2="532.134"/><line style="stroke:#A80036;stroke-width:1.0;" x1="1991.5" x2="1999.5" y1="468.221" y2="468.221"/><line style="stroke:#A80036;stroke-width:1.0;" x1="1991.5" x2="1999.5" y1="471.221" y2="471.221"/><line style="stroke:#A80036;stroke-width:1.0;" x1="1995.5" x2="1995.5" y1="472.221" y2="464.221"/><!--MD5=[cd3fcb776391f88b4419779acf245183]
link MedicalRecord to NurseReport--><path codeLine="195" d="M2141.5,472.221 C2141.5,472.221 2141.5,566.22 2141.5,566.22 " fill="none" id="MedicalRecord-NurseReport" style="stroke:#A80036;stroke-width:1.0;stroke-dasharray:7.0,7.0;"/><line style="stroke:#A80036;stroke-width:1.0;" x1="2141.5" x2="2147.5" y1="566.22" y2="574.22"/><line style="stroke:#A80036;stroke-width:1.0;" x1="2141.5" x2="2135.5" y1="566.22" y2="574.22"/><line style="stroke:#A80036;stroke-width:1.0;" x1="2141.5" x2="2141.5" y1="566.22" y2="574.22"/><line style="stroke:#A80036;stroke-width:1.0;" x1="2145.5" x2="2137.5" y1="564.22" y2="564.22"/><line style="stroke:#A80036;stroke-width:1.0;" x1="2137.5" x2="2145.5" y1="468.221" y2="468.221"/><line style="stroke:#A80036;stroke-width:1.0;" x1="2137.5" x2="2145.5" y1="471.221" y2="471.221"/><line style="stroke:#A80036;stroke-width:1.0;" x1="2141.5" x2="2141.5" y1="472.221" y2="464.221"/><!--MD5=[f3d6c2e42e51a5dfe566d3dd43151177]
link MedicalPrescription to ExecutorsMedicalPrescription--><path codeLine="196" d="M136.5,765.007 C136.5,765.007 136.5,808.696 136.5,808.696 " fill="none" id="MedicalPrescription-ExecutorsMedicalPrescription" style="stroke:#A80036;stroke-width:1.0;stroke-dasharray:7.0,7.0;"/><line style="stroke:#A80036;stroke-width:1.0;" x1="136.5" x2="136.5" y1="805.696" y2="816.696"/><ellipse cx="136.5" cy="805.696" rx="4" ry="4" style="stroke:#A80036;stroke-width:1.0;fill:none;"/><line style="stroke:#A80036;stroke-width:1.0;fill:none;" x1="140.5" x2="132.5" y1="812.696" y2="812.696"/><line style="stroke:#A80036;stroke-width:1.0;fill:none;" x1="132.5" x2="140.5" y1="761.007" y2="761.007"/><line style="stroke:#A80036;stroke-width:1.0;fill:none;" x1="132.5" x2="140.5" y1="764.007" y2="764.007"/><line style="stroke:#A80036;stroke-width:1.0;fill:none;" x1="136.5" x2="136.5" y1="765.007" y2="757.007"/><!--MD5=[e141f6af53a08d86cc145a9054d368ae]
@startuml
skinparam linetype ortho

entity User {
  * id: Int
  * email: String
  * password: String
  * createdAt: DateTime
  * updatedAt: DateTime
  groupId: Int?
  phone: String?
  * gender: String
  * name: String
  Groups: Group?
  Adm: Adm?
  Doctor: Doctor?
  Jwts: Jwt?
  * LinkReset: LinkReset[]
  Nurse: Nurse?
  * TeamReport: TeamReport[]
}

entity Jwt {
  * id: Int
  * token: String
  * expire: DateTime
  * idUser: Int
  * createdAt: DateTime
  * updatedAt: DateTime
  * User: User
}

entity Group {
  * id: Int
  * createdAt: DateTime
  * updatedAt: DateTime
  * name: String
  * groupPermission: GroupPermission[]
  * User: User[]
}

entity Permission {
  * id: Int
  * name: String
  * createdAt: DateTime
  * updatedAt: DateTime
  * groupPermission: GroupPermission[]
}

entity GroupPermission {
  * groupId: Int
  * permissionId: Int
  * createdAt: DateTime
  * updatedAt: DateTime
  * permission: Permission
  * group: Group
}

entity LinkReset {
  * id: Int
  * link: String
  * expire: DateTime
  * idUser: Int
  * createdAt: DateTime
  * updatedAt: DateTime
  * User: User
}

entity Patient {
  * id: Int
  * name: String
  * lastName: String
  addressNumber: String?
  cep: String?
  * birthday: DateTime
  phone: String?
  healthInsurance: String?
  * cpf: String
  * rg: String
  * gender: String
  complement: String?
  MedicalRecord: MedicalRecord?
}

entity Doctor {
  * crm: String
  * area: String
  * userId: Int
  * active: Boolean
  * user: User
  * MedicalPrescriber: MedicalPrescription[]
}

entity Adm {
  * userId: Int
  * active: Boolean
  * user: User
}

entity MedicalPrescription {
  * id: Int
  * drug: String
  * drugDosage: String
  * drugWay: String
  * administrationInterval: String
  * prescriptionDate: DateTime
  * realized: Boolean
  obs: String?
  * medicalRecordId: Int
  * prescriberId: Int
  * administrationCount: Int
  * MedicalRecord: MedicalRecord
  * Prescriber: Doctor
  Executors: ExecutorsMedicalPrescription?
}

entity MedicalRecord {
  * id: Int
  * patientId: Int
  * patient: Patient
  * MedicalPrescription: MedicalPrescription[]
  * NursePrescription: NursePrescription[]
  * NurseReport: NurseReport[]
  * TeamReport: TeamReport[]
}

entity TeamReport {
  * id: Int
  * reportDate: DateTime
  * report: String
  * userId: Int
  * medicalRecordId: Int
  * MedicalRecord: MedicalRecord
  * signatory: User
}

entity Nurse {
  * coren: String
  * active: Boolean
  * userId: Int
  * user: User
  * NurseExecutorMedical: ExecutorsMedicalPrescription[]
  * NurseExecutor: NursePrescription[]
  * NursePrescriber: NursePrescription[]
  * NurseReport: NurseReport[]
}

entity NursePrescription {
  * id: Int
  * prescription: String
  * prescriptionDate: DateTime
  * realized: Boolean
  obs: String?
  executionDate: DateTime?
  * medicalRecordId: Int
  * prescriberId: Int
  executorId: Int?
  Executor: Nurse?
  * MedicalRecord: MedicalRecord
  * Prescriber: Nurse
}

entity NurseReport {
  * id: Int
  * reportDate: DateTime
  * report: String
  * medicalRecordId: Int
  * signatoryId: Int
  * MedicalRecord: MedicalRecord
  * signatory: Nurse
}

entity ExecutorsMedicalPrescription {
  * id: Int
  * medicalPrescriptionId: Int
  * executorId: Int
  * executionDate: DateTime
  * Executor: Nurse
  * MedicalPrescription: MedicalPrescription
}

User }|..o| Group
User ||..o| Jwt
User }|..o| Group
Permission ||..|{ GroupPermission
Group ||..|{ GroupPermission
User ||..|{ LinkReset
Patient ||..o| MedicalRecord
User ||..o| Doctor
User ||..o| Adm
Doctor ||..|{ MedicalPrescription
Patient ||..o| MedicalRecord
User ||..|{ TeamReport
User ||..o| Nurse
MedicalRecord ||..|{ NursePrescription
MedicalRecord ||..|{ NurseReport
MedicalPrescription ||..o| ExecutorsMedicalPrescription
@enduml

PlantUML version 1.2021.13beta8(Unknown compile time)
(GPL source distribution)
Java Runtime: Java(TM) SE Runtime Environment
JVM: Java HotSpot(TM) 64-Bit Server VM
Default Encoding: UTF-8
Language: en
Country: US
--></g></svg>